<mxfile host="65bd71144e">
    <diagram id="k5wywYWtKTQ27XQW1JUj" name="Page-1">
        <mxGraphModel dx="679" dy="647" grid="0" gridSize="10" guides="1" tooltips="1" connect="1" arrows="1" fold="1" page="1" pageScale="1" pageWidth="827" pageHeight="1169" math="0" shadow="0">
            <root>
                <mxCell id="0"/>
                <mxCell id="1" parent="0"/>
                <mxCell id="3" value="" style="shape=image;verticalLabelPosition=bottom;labelBackgroundColor=default;verticalAlign=top;aspect=fixed;imageAspect=0;image=data:image/png,iVBORw0KGgoAAAANSUhEUgAAAZ4AAAHWCAYAAABHd+8OAAAMQWlDQ1BJQ0MgUHJvZmlsZQAASImVVwdYU8kWnluSkEBoAQSkhN4EESkBpITQAkgvgqiEJEAoMQaCih1ZVHAtqIiADV0VUeyAWFDEzqLY+2JBQVkXC3blTQrouq9873zf3Pvff87858y5c8sAoHaCIxJlo+oA5AjzxNFBfvQJiUl0Ug8gAHWAAGegzOHmipiRkWEA2tD57/buBvSEdtVeqvXP/v9qGjx+LhcAJBLiVF4uNwfigwDg1VyROA8AopQ3m54nkmLYgJYYJgjxYilOl+NqKU6V470yn9hoFsRtACipcDjidABUL0Oens9Nhxqq/RA7CnkCIQBqdIi9c3Km8iBOgdga+oggluozUn/QSf+bZuqwJoeTPozlc5GZkr8gV5TNmfl/luN/W062ZCiGJWwqGeLgaOmcYd1uZU0NlWIViPuEqeEREGtC/EHAk/lDjFIyJMFxcn/UgJvLgjUDOhA78jj+oRAbQBwozA4PU/CpaYJANsRwhaAzBHnsWIh1IV7Mzw2IUfhsEk+NVsRCG9LELKaCP8cRy+JKYz2QZMUxFfqvM/hshT6mWpARmwAxBWLzfEF8OMSqEDvkZsWEKnzGFWSwwod8xJJoaf7mEEfzhUF+cn0sP00cGK3wL8nJHZovtilDwA5X4P15GbHB8vpgbVyOLH84F+wyX8iMG9Lh504IG5oLj+8fIJ871sMXxsUodD6I8vyi5WNxiig7UuGPm/Kzg6S8KcTOufkxirF4fB5ckHJ9PE2UFxkrzxMvyOSERMrzwVeAMMAC/oAOJLClgqkgEwg6+hr74JW8JxBwgBikAz6wVzBDIxJkPUJ4jAEF4E+I+CB3eJyfrJcP8iH/dZiVH+1Bmqw3XzYiCzyFOAeEgmx4LZGNEg5HiwdPICP4R3QObFyYbzZs0v5/zw+x3xkmZMIUjGQoIl1tyJMYQPQnBhMDiTa4Pu6Ne+Jh8OgLmxPOwN2H5vHdn/CU0El4RLhO6CLcniIoFP+U5XjQBfUDFbVI/bEWuCXUdMH9cC+oDpVxHVwf2OPOMA4T94GRXSDLUuQtrQr9J+2/zeCHu6HwIzuSUfIIsi/Z+ueRqraqLsMq0lr/WB95rqnD9WYN9/wcn/VD9XnwHPqzJ7YYO4CdxU5i57GjWCOgYy1YE9aOHZPi4dX1RLa6hqJFy/LJgjqCf8QburPSSuY61jn2On6R9+XxZ0jf0YA1VTRTLEjPyKMz4ReBT2cLuQ6j6E6OTs4ASL8v8tfXmyjZdwPRaf/OLfwDAK+WwcHBI9+5kBYA9rnBx//wd86aAT8dygCcO8yViPPlHC49EOBbQg0+aXrACJgBazgfJ+AKPIEvCAAhIALEgkQwGWafAde5GEwHs8ECUAxKwQqwBlSCjWAL2AF2g/2gERwFJ8EZcBFcBtfBXbh6usEL0A/egc8IgpAQKkJD9BBjxAKxQ5wQBuKNBCBhSDSSiKQg6YgQkSCzkYVIKVKGVCKbkVpkH3IYOYmcRzqR28hDpBd5jXxCMVQF1UINUUt0NMpAmWgoGotOQtPRaWgBWoQuQyvQGnQX2oCeRC+i19Eu9AU6gAFMGdPBTDB7jIGxsAgsCUvDxNhcrAQrx2qweqwZ3uerWBfWh33EiTgNp+P2cAUH43E4F5+Gz8WX4pX4DrwBb8Ov4g/xfvwbgUowINgRPAhswgRCOmE6oZhQTthGOEQ4DZ+lbsI7IpGoQ7QiusFnMZGYSZxFXEpcT9xDPEHsJD4mDpBIJD2SHcmLFEHikPJIxaR1pF2kFtIVUjfpg5KykrGSk1KgUpKSUKlQqVxpp9JxpStKz5Q+k9XJFmQPcgSZR55JXk7eSm4mXyJ3kz9TNChWFC9KLCWTsoBSQamnnKbco7xRVlY2VXZXjlIWKM9XrlDeq3xO+aHyRxVNFVsVlkqyikRlmcp2lRMqt1XeUKlUS6ovNYmaR11GraWeoj6gflClqTqoslV5qvNUq1QbVK+ovlQjq1moMdUmqxWolasdULuk1qdOVrdUZ6lz1OeqV6kfVr+pPqBB0xijEaGRo7FUY6fGeY0eTZKmpWaAJk+zSHOL5inNxzSMZkZj0bi0hbSttNO0bi2ilpUWWytTq1Rrt1aHVr+2prazdrz2DO0q7WPaXTqYjqUOWydbZ7nOfp0bOp9GGI5gjuCPWDKifsSVEe91R+r66vJ1S3T36F7X/aRH1wvQy9Jbqdeod18f17fVj9Kfrr9B/7R+30itkZ4juSNLRu4feccANbA1iDaYZbDFoN1gwNDIMMhQZLjO8JRhn5GOka9RptFqo+NGvcY0Y29jgfFq4xbj53RtOpOeTa+gt9H7TQxMgk0kJptNOkw+m1qZxpkWmu4xvW9GMWOYpZmtNms16zc3Nh9vPtu8zvyOBdmCYZFhsdbirMV7SyvLBMtFlo2WPVa6VmyrAqs6q3vWVGsf62nWNdbXbIg2DJssm/U2l21RWxfbDNsq20t2qJ2rncBuvV3nKMIo91HCUTWjbtqr2DPt8+3r7B866DiEORQ6NDq8HG0+Omn0ytFnR39zdHHMdtzqeHeM5piQMYVjmse8drJ14jpVOV0bSx0bOHbe2Kaxr5ztnPnOG5xvudBcxrsscml1+erq5ip2rXftdTN3S3GrdrvJ0GJEMpYyzrkT3P3c57kfdf/o4eqR57Hf4y9Pe88sz52ePeOsxvHHbR332MvUi+O12avLm+6d4r3Ju8vHxIfjU+PzyNfMl+e7zfcZ04aZydzFfOnn6Cf2O+T3nuXBmsM64Y/5B/mX+HcEaAbEBVQGPAg0DUwPrAvsD3IJmhV0IpgQHBq8Mvgm25DNZdey+0PcQuaEtIWqhMaEVoY+CrMNE4c1j0fHh4xfNf5euEW4MLwxAkSwI1ZF3I+0ipwWeSSKGBUZVRX1NHpM9OzoszG0mCkxO2PexfrFLo+9G2cdJ4lrjVeLT46vjX+f4J9QltA1YfSEORMuJuonChKbkkhJ8UnbkgYmBkxcM7E72SW5OPnGJKtJMyadn6w/OXvysSlqUzhTDqQQUhJSdqZ84URwajgDqezU6tR+Lou7lvuC58tbzevle/HL+M/SvNLK0nrSvdJXpfdm+GSUZ/QJWIJKwavM4MyNme+zIrK2Zw1mJ2TvyVHKSck5LNQUZgnbphpNnTG1U2QnKhZ1TfOYtmZavzhUvC0XyZ2U25SnBX/k2yXWkl8kD/O986vyP0yPn35ghsYM4Yz2mbYzl8x8VhBY8NssfBZ3Vutsk9kLZj+cw5yzeS4yN3Vu6zyzeUXzuucHzd+xgLIga8HvhY6FZYVvFyYsbC4yLJpf9PiXoF/qilWLxcU3F3ku2rgYXyxY3LFk7JJ1S76V8EoulDqWlpd+WcpdeuHXMb9W/Dq4LG1Zx3LX5RtWEFcIV9xY6bNyR5lGWUHZ41XjVzWspq8uWf12zZQ158udyzeupayVrO2qCKtoWme+bsW6L5UZlder/Kr2VBtUL6l+v563/soG3w31Gw03lm78tEmw6dbmoM0NNZY15VuIW/K3PN0av/Xsb4zfarfpbyvd9nW7cHvXjugdbbVutbU7DXYur0PrJHW9u5J3Xd7tv7up3r5+8x6dPaV7wV7J3uf7Uvbd2B+6v/UA40D9QYuD1Ydoh0oakIaZDf2NGY1dTYlNnYdDDrc2ezYfOuJwZPtRk6NVx7SPLT9OOV50fLCloGXghOhE38n0k49bp7TePTXh1LW2qLaO06Gnz50JPHPqLPNsyzmvc0fPe5w/fIFxofGi68WGdpf2Q7+7/H6ow7Wj4ZLbpabL7pebO8d1Hr/ic+XkVf+rZ66xr128Hn6980bcjVs3k2923eLd6rmdffvVnfw7n+/Ov0e4V3Jf/X75A4MHNX/Y/LGny7Xr2EP/h+2PYh7dfcx9/OJJ7pMv3UVPqU/Lnxk/q+1x6jnaG9h7+fnE590vRC8+9xX/qfFn9Uvrlwf/8v2rvX9Cf/cr8avB10vf6L3Z/tb5betA5MCDdznvPr8v+aD3YcdHxseznxI+Pfs8/QvpS8VXm6/N30K/3RvMGRwUccQc2a8ABhualgbA6+0AUBMBoMH9GWWifP8nM0S+Z5Uh8J+wfI8oM1cA6uH/e1Qf/Lu5CcDerXD7BfXVkgGIpAIQ6w7QsWOH29BeTbavlBoR7gM2BX1NzUkF/8bke84f8v75DKSqzuDn878Auit8WHUDmjUAAACKZVhJZk1NACoAAAAIAAQBGgAFAAAAAQAAAD4BGwAFAAAAAQAAAEYBKAADAAAAAQACAACHaQAEAAAAAQAAAE4AAAAAAAAAkAAAAAEAAACQAAAAAQADkoYABwAAABIAAAB4oAIABAAAAAEAAAGeoAMABAAAAAEAAAHWAAAAAEFTQ0lJAAAAU2NyZWVuc2hvdHD0AcAAAAAJcEhZcwAAFiUAABYlAUlSJPAAAAHWaVRYdFhNTDpjb20uYWRvYmUueG1wAAAAAAA8eDp4bXBtZXRhIHhtbG5zOng9ImFkb2JlOm5zOm1ldGEvIiB4OnhtcHRrPSJYTVAgQ29yZSA2LjAuMCI+CiAgIDxyZGY6UkRGIHhtbG5zOnJkZj0iaHR0cDovL3d3dy53My5vcmcvMTk5OS8wMi8yMi1yZGYtc3ludGF4LW5zIyI+CiAgICAgIDxyZGY6RGVzY3JpcHRpb24gcmRmOmFib3V0PSIiCiAgICAgICAgICAgIHhtbG5zOmV4aWY9Imh0dHA6Ly9ucy5hZG9iZS5jb20vZXhpZi8xLjAvIj4KICAgICAgICAgPGV4aWY6UGl4ZWxZRGltZW5zaW9uPjQ3MDwvZXhpZjpQaXhlbFlEaW1lbnNpb24+CiAgICAgICAgIDxleGlmOlBpeGVsWERpbWVuc2lvbj40MTQ8L2V4aWY6UGl4ZWxYRGltZW5zaW9uPgogICAgICAgICA8ZXhpZjpVc2VyQ29tbWVudD5TY3JlZW5zaG90PC9leGlmOlVzZXJDb21tZW50PgogICAgICA8L3JkZjpEZXNjcmlwdGlvbj4KICAgPC9yZGY6UkRGPgo8L3g6eG1wbWV0YT4KMLFhLAAAABxpRE9UAAAAAgAAAAAAAADrAAAAKAAAAOsAAADrAABrACaAZH0AAEAASURBVHgB7L0Jm+PIjTaoPOrqw92+PR77Gc/sPrv//3/tzDfudnedmbV4gUAEEBeDFCVRKaqyRATw4ggQDIgUJd19pcdhf+wZuPEMvJTD4O7urr4ncZi3ZHWNnbtn4GQZuNsbz8lyuxveaAZeSpMZSW/eiDD3nDdiZ8fsGVgzA3vjWTObu62LZsA2FLu4Wv5FA7ywc1zauDdnPXsTuvAOuWH3e+O54Z3/EqZum4ptNpiblb2Eua45h1qu+CKdaUxr+ttt7RmwGdgbj83GTl9VBvbGcrrdlTem03naLd9iBvbGc4t7/crnfJaGs/Vbbtw9BKPBOqVuFeyNp5ueXXhkBvbGc2QCd/XzZWD1hjO6Xp9vipmnIwIc7zHGZ6lkG5Dm3/KM8k7uGRjOwN54hlO1Ay+RAV3shnzPXKdnwpshlMt1ExoEa3me8jMoH5rAHd8Nh/2xN57BvO6wZgb2xtNMzS44VwZsc8GiZsfNGLK1Oxs21S4hoBldwu1ynxON6O7unm3vHw1anuJb19wbz61XwAXnr6+ehxoN4gzr97aX8WXRTaz1l9tLE4FpE7pcgLvna8zA3niuca+9oJinmg5eVW//cdogJ9b+86anEYw2IH0xcd6gdm/XloG98VzbHnsB8XabDa3hp13Gj0kgItOV9/JRaiTHzGixLpzbdCAzHNB9vFS6vxe0OLsvXnFvPC9+F192gvkrYNt09rOZ8+ybszYocpbOfp7DjQhnjeA8Sd29HJWBvfEclb5duZYBaShy95NtNMBuv9lc/kymltO1eGdpARUncvZTEaw1sd3OVWVgbzxXtbu2HOxXaiq45RbNxS/ePPKsjU1k08GdNFcnbwXBgZ4FnXQyu/GrycDeeK5mV203UL6chvDMrdDbbzYI+HYbDmZfe5ysEcEwpfvuXt4D2t//qWX/dnh747mdfX2SmXLTkXeVD8/PW1zItxjTSXbFSY2u2ZCk+ezv/5x0h23c+N54Nr6DthqeNhws61/3hrPV3bR6XGUDQgWU3CnHfMbDZ8jPrL+fAU1l7GXJ98bzsvbnWWaDpsPnEZs6mdhUMGfZD+dx0s/reMtpI/fLb+fZk1vysjeeLe2NK4hlW5fT+oviFaRzgyEuy2m7rdSmWKLRfOQB/6W8ZmXnXW8G9sZzvfvuLJHj7AYPXArZQtMJ51rF3PelqkjJDMayZtNyMG9fGDSRuPtNL+O27O/868/A3niufx+eZAZ6OQ0/lYzeow1oqbNlS1tDq8FeGltNzyyHNfEV8yrJO/Fk55mnW/Lj2c8Vp3kPvZuBvfF003N7wthgaLX4ivd9Fz4qy9sMS6R9nIEZvo6DzltUj/N1nPaRCV1pouNmcOmNYiaF/TNAx+35LWrvjWeLe+XCMS25pLZ4WYuKkbjw7NdxP77AruOvbeUMeV0w2WEVfCj5Qd//ac9yl1xXBvbGc1376yTRYmnShWC06SxazgqlgnGS+W3FqOb49PFsIK+Dkx2DhctvuJuSFGh0+hTuHk6agb3xnDS912O89z7O0DI2CZoEXE+yThjp8iX1ivLbmGSDHbN9d/9A7zXig6f7GVBMypUSe+O50h23RtjP3G1wDb381c+hZWwSNAlYYxov2sbUYnw1b4b19lI2yWzoNLn5PFPz2W9AcHm5tsHeeK5tj60Urzad3Fy3VXSFsDQJyN3t45kZkEX5heY56zjZ0GWKXyzhohu9aNof15eBvfFc3z5bJeL8vZzuUtYVIpxJwCox70Z8rl/0kmsmZ0hXAjj74Xv99+bj8nINg73xXMNeWilGXFnDMarv53TbRVeoAQ2BFLxvF2dgLM+tBXqx260o0sRac9svvW1lJ82LY2888/J1tWic4dzfy7cPNJexpkCnPQlQ4L49OgPr5rq1cB8d5moGpuabuk8+FznzoQ+d7TcdrLY3Tm1obzynzvCF7fM3ENAxrTcQVA/vKtMGPgmw4J0+KgPnyXW+eB8V8iLlpfOsNyCpb/Se/Y63RbvjzEp74zlzws/pTi+t4WynephXmTbCSYAFD9EjFi+/KA5NZWXQSGZWdpmZO33e159jfnMBn/1wtZ9+Nln69uGMDOyNZ0ayrhH6VPutnO7x3xVWUzBfo2pmNvP6l5ZLZW4s1evl97TzlHsLUrT8vs/+eZ+xnXwh1N54LpT4U7rVMx3XdIaOfQHhOR3G13/Pmp3LKfM+bntoZ4ybOxNS85jXR9v9GedJwUl84Rl3vO1nPu1dc2HJ3nguvAPWdK93q92FmwjY9uSx37gMt2ZgV2xLF9vjpzC5I453cUELKU+Xn6feXS1nPl/p/c39fZ8LlkbV9d54qmm5Pubcs5y93Szfx2mRnbJx+UV4KsL15Gmu4/lZz3tuKTWfR/5Jj/y9oBy/j8+bgb3xnDffJ/GmTecLvZ8TD/q0Djife8Nx6Th6EPPtLDWS7zAvZTA913qOzjN/NKC7+0dyhjgvGcl55nstXvbGcy17aiLO+H5OZR1IrERNmLs+sU4Na4vSp56FW8fEqWOd2v/F7c9P9KXyc/+A93wu5f3iO2pzAeyNZ3O7ZH5A3HTMGmBIMuZH860v0LiAywVRHqkyb5IvZ8mbN+/RJOulsVH8Ehz7oPd79vd8lmRvXZ298aybz7NZ08Ofv3NNB+Q9kYk6SVAnNn+SmI8yuv6Er6sZrT//3u4oclMwetptGb69Axek9+bTztE5JHvjOUeWV/aBbyPAm6VPT2kxqFFHu01GjzZ1vQbOl4SV1taVU32++bcCr+alymxZ8Pz7B3rPR98Y9aJ9dKYM7I3nTIle241eXvPLgh/N8nmE6iw/VwO+bEKOWFdXzPBlc5BPJOUkiysJcpUwzgF3B37PZ28+jXydnr03ntPneDUPONxwCKHp4Jjxj4LhxRgpBEaULlGTnDmq+SE/afyigDkzu2igJ36bfGt58PFo+TZrqwtIQpz5fN1/VO4ihbw3noukfb5TNBocfl+L713zB2XV8gAEeoOwqotTMJsLy2rOtjbj4yZ2fL62lo/xeJpzbwok1/f8mz5E718uelzxzdTeG8/MhF0S/sW8pyNxNA7MBhs6HdElp7aq7/ZacwuzT6ls5yFhhNpaXo6LpzrvKlNmf//wiq4g0M9p799wkBfGycZ74zlZatc17JtO48DM2Nlw3YCuxlrKQmftuZrZHBNoff4pP8fYXk93nXjqcw1RVoRoPvsNB+vtxSlLe+OZytAG5JNNJxyr6xyyG5jwKiGMZaOyBq3ifftGzLdcbCLYsf01N9Tu/s2E0nz2H5Sbm+Ml+L3xLMnaGXT0lulm06Hj9DSH6hkmt7qL9TORrUmrR3w5g2O5Ot/8x+JZI1/NORkBN581nO02uhnYG083PZcR4lCkS8505m+/WU0O0PJutsvEeHmvG1iwLp+EGREcny+zPs/w24MeH1PPektWnYdl0mfk7vn73VoWdv6xGdgbz7EZPIG+3sHG30rA9mu3T5/A8VWYvMxilafGrlO5bFvj0+XruBycLq6R/DdjJ0H6ah18v9v+OEUG9sZziqweYRNNB4Uvl9jk4NzPci67SI3szuZCNqJ8Msx58zaeg/PG1bso3Yr5/vE1XXV4om+23pvPKcpzbzynyOpCmzjDwXdJ7U3n3AvTwh02odZa1CbUVhBvI3/1+Z8rtnl+arHuzWeFUmyY2BtPIzGXYmvTuZ2znHkLxKX2y5p+a4vc8fa3nscU32nmjwwmH0vzmcd2/4jP+NCZzx1+02d/rJWBvfGslckj7aSvwTn/+znHH65jk8dBLb7oueI0P+jHrA6iTmp8MIYG7PjQKsls+Do/28RmyDyOk+ZgpvECjpsN8Dmf/bFaBvbGs1oqlxuir4uia8l4Xwe3si23A80j1U/sfHl0xWJwXKTztUcDqE1xVJeiGofWHM2fVqGxqtllxsZzgOiX+RhJtI0D3wZ/tzefolyWMvbGszRzK+npzQSfB5rOwkNsPNKTODiJ0TgnuzhE5gsj/BxPm8/1UrdOnH7ueXQr+Og7CP2J3nt9fDw80zHKt1nzbW95LPt4Tgb2xjMnWyfA0v0Eh2fqPvjyT/vwIyuZSa9maMrv2RxNBeLkE+uKw257UOZ3m3Mr4zxNXk/4zQsxsTIXHd4/vqETLOLtjefoXbo3nqNTuNwAbiS4o7vY8EpKH4sP28WK6nnu9uwO5wZYxesiUhVukjkvz5eb37w4l6e67WeduWf2jdF7XG7Dt1jvNxos331Bc288R6dwmQH0mmf+egLRz8q9b3QWuG9qXHoRp+PhHYE0a8sRVtZWPT7f55vX8bGOZ2/M17y5D9qMRnHp7e14yDuyyMDeeIqUnIfxGT9xEO6Zniz7ScApYr6I01NMZLbNuL7M1jxW4bQ5P828Thuzz+hyX/W5L7B3p5f46E43XHrbH4sysDeeRWk7TglNBweC/y42Y3PB8WC0F5IXcbow1vOr1ReuNeO4TP6Pm9c5Y17HV5rvEntBh4zQRTe6xfr1/n7PwkNgbzwLE7dUDU3ngb+dIL2vw7aWHAdLg1h6C+pify9bMS1mc+Z51h0+JzDG9ud0ztjX9FW31Z+rTV3Sx+3VePDne/YfkLNJGqL3xjOUpnVAekPMpy+m6aRaXsdJxQq+4xqHyRlcFd71oIZvpQvQC2O053mJPXB8ctN8zh3/mv6mbaV51nJW6j+8om8z+IqbDej//piVgb3xzErXcvBI00Fpo/jLEk+LtpW1sClKi07crVI6n/4CsNXo+3HdVfdqX2dbUqml8+2bNWt3nq36HGs26OrFq3e0myCra21rH24nmr3xnHFffKYznVi+gYjjVeJY19oqIa1o5PoO7fb+uJ65tOeAXXuaefR9ziup42z1XzCIbWk+86K6dfTeeM5QAfjWaf4uNvgKx8Fxh4MGDSs49NexplavaauzP80CODcTy/bHtuagc15WU7ofNBNqbXy7zG/dfrC1NBi+TEGWSb/+mVGxzzL6bM/+fW71vVDj7o2nlpUVeWg4eCNSv4ctHApHeljHypFBbFpdF8DzBHma/XHeOdhMXWo+C/w2VZoCO9EJumdDZNKQ5BjHB0v35jOR0iDeG89Ynhaj0HjwcunJXmZbZK13ECwyuJ6ShqYv3dXy1MqpeqN4xS3cToUzz2we/DztJeh1469FcL45lXOp+K6walGXvMWKwdSIfo7Bb2k97J/tKXdGlbM3nmpa1mHiO9jwNRu4iw1n7cseixWXuatpbSCEWliTvHJ1K1QGIJnONpIxP+5sGsXwzPNy7mSwzpyc4WKWfcaobo6T8SPd5fb8vP+EQj/HIt0bz0iWFmL4Mht9ZufzZ3P79KStvKgnFUoATOAoXsFUafzlctoL3wYS2Q7uyDf4F8xtgUq9atqGOtOtm2Ju215HyYhG9XOcjr8eHl9/yx8M18/5GOM7aTKwNx6TjDVJfAHo48Pd4WO36WjBzvBcUQFL+4xuZ1h0UD3gK24crjdQGz3MtmXt2V/T3Pqxtud4nn1znP9ybsfZG3+VVvOTePy7PXSVY/8ut34V7Y2nn5+jpO2mkwoVDnqX4XCAefRRIW1KuVw8LhXe8gxvZw793KU4l8+172GOdN0Y+rc8j8Q1J54cW47v6RuscUzvt1m3c783nnZuFkvwo274VdH8IQ0mL9QcddvjtECeIw/r7ovzxj43P36ul4vVxzF3FiW+tDdvbqV+6UM5NWzOS2Ncdtsf9Qzsjaeel8VclB3e00nlp2c0lrPY/M0pzltEptJz3n2wbuxTc+vJ+/M+T5z9GHrR92VjdutzHNNN/mt4z8MX/+IahVxyu9/PelLyHLU3HpeO4wf4ElDUHn/zdKzJSBzv4MYtYAGx2WwvKDlyG4nTqOpxrx2jzdR82+vFeFwc9ciPtem/v3B6rsmfXLmQD5VKo9EIFSNbNJ8H+t2eO7rNen/4DOyNx+fjqBF/Q8FX+kVRus62X1Y7KpULlPWgF9XphWSBixOqrBevz8OaIc+P8VSxHGt3Wl/nisZC/SMcz7VsWltKy/bxgRrO3QP90c8n7A+Xgb3xuHQsH0iByl1s+orIvzZfbnvXrGVAD/KarM7TxaQu3Q53WZzz83HMjKdjPFU8x9qd0C/EBcOkLZfpWLeHw6s33/DVjztqQPsjZWBvPCkXR1HhCwoOHz/pXQWp+I4yvCubDKyf0+kF1Li/ENmPcf2czJ1mGd+pYjrWbkW/wkrz7woJlst1rFtcjrvjz/YItsxU8nVb1N54VtzfuH3aX/Nd0fhNmkoH8Dmmv/Vlwcd33tyM51/eOxnHz0EeM2fSnaU+Ba7Jladbmdur168PX5/v6ZIb/X7P/uAM7I1nhULAzx3gx6Ce6DZqW93pktsKThaYwLXpYx6I39rQ+dR4I36Snj8wR3S3gDkynUdOoZ6zy8Zkp1SPzyJAL4t3wvaE2B6TeTz18ZTBmtzy5AYjnis94cXo67ff113dKHdvPCvs+E9Ph8OzaTq6QK9genUTuvifL0Z7QE5PZ9nCNG23iljB2QomqqF55ngOzxOPj27+wi76Y7GauRsyj6A/nqs4ha/JlSdNR+LB2R/NEn904OHuNtzltj8oH9SNNWN7PhZk4NOXr3QXG1IoadyzuW45jS1OC3bcCVQmY50E2KCOy+MsV9btLPq4GHNXd4W5gpGrDIzn2pjCt+TacKxcaDQdedzRzQb7h0qRi73xhJJYuvkQbiagstPes9TUlerZA+18U9BD+Xwe53taFuPMfA46GYQNTnJGjDOg3vka7xXNdT6Cr2G06WAGVp5oNB/8bAI4j/xz2X62tzbaG88RexxfBHpHXwT6CdfaUo0dYfEaVLc30XUX1dPsg+kYz5fX6Vh6OThHnHUf8+Ku22jPbARfx/iLRhZj6XC5jRoQvsPtjt4TvuXH3ngW7n1cXcPv7KDh4Hd31nrg4FJr0wcakNOoMjb1UEpeKmdJlk6Xi5T/rcQ1HUeK+XR5geXlftIcltgY0UkYf8gnforf8lLGXr99S+8HH27+l0r3xpNqYhbFb+tQpX/4SFVkH1pv6Siw0jatekBAF5WtNiAjWoeA7I/jM3D+fNqdXMZ//njKGJSTYunHrPh1tmv4SjbSHKaiSzp9pL2kpshcV8e6JRzIEAwuub1685YOb7q9+obPevbGo/WzYPurbTqmzuabWqisxTzf4a7RyMD4YtUwULCX7dv14ygCG2BI7KePZVmOyglM2ynnMq0jZzctXM7XcdjyBk/kOTh/9Uif56Gv0bnlbzPYG09ZvZOcL3S685VeuXwO7+2EsooXCcri7pkMBdqDjMqC43n+R43fHm55Hlfcp5T25XEs3Wft+NePpe1rXvRL7HgdO7f2pTQblddPl9mAIVkUK0EegpNb/1zP3nhsHc2gcbbjizNX1mLL+fWxLfo6Yn0u9c79sTADPnXz9vVCl4Waj6EQL2Asn8eyWJb785NbYifoTKr2ALlMxq2bDThH4aDDj8Xd3T/S53re+KncyGhvPDN39IfP9Lkd6jhf+U0eq5wXoZWtR6N44WnZgT4Wx96QRvKU9vcp98VIJMf7T3MZ8TeFmY5nTX8LbLHKiN4UJpfLuNV4kDfOjWk+t/pjcXvjmTqKMvl7+tyOfGAUDSAV3vTBlhlaaQi/GsWlYtCp9BpWfnbYw6q97W010/3ILrkf5vkem09/ttNSH9OaPgdtFbCC0ZjEFM7KhZY6L/nWgX6bAXj4bM/j62+s+CbovfHM2M0f+JdF6fd26OtxbNPpmfAHXQ+5nkx9ovyVXs/6+pZsE8ob1Ig31c91lT9io42xi0gb1ZJcKv/Tfo+bV2u+bX7yNx1b20qSJHuJR1SDnTCTgADt4UpZOsvJZWHMG3qiopT50zP94ZLbLZ717I0nVeQkhW+fxleyPX/Fl4HSI1/phDv7GYWIupSCNOrrrJxssLBt3NwSOZ2HsFBMJWXaUNXCQrWqrTnM5HdwfnOMT2LbPlNck0YMgOy1TRpcTo4qTeG8vH2WE3ARTgRPODWf1/TN1fQ59Jt7r2dvPHltNsZ4S+cD3cWGIuOzHSKIdA89iMBX2gFWGjjbKzYnhOdsrxTvNs3ke+9ycx/K+RColelyrkAeZbLlyvHrfiNkQgxcGeOAUnRgiVG9KVySp9ediScedRy2vFEeJiWzwjMuteHnEm7tJoO98dja7ND4epxnKphPn77wmY4po45WXVQeTHXcFHfIDoocR8iMBjVkdyq4Tcrn7bVz52Fdf9lcJ4xPiNt7M3OTgE1Bgsymln5/22gsUziRp4aDCeQ6dkx0HEZCZm2az+t37+T3eqgJ3cpjbzwDexpnO/d0ZP7rAzUdeqTruQPKCyCLF4HgS/W11HXM4gWNyE7B2bKCTdKageODu8S8l/s8bt7L/Wqej/OvVtK2bW861rZusq9UH1s/7nMdM3YdyvDVXWg+jw8463l9U1+jszceLYLOFo3nK1X4ezQeKqZKCXW0jxdNH1xjPmAHsRf2ZpwNqafChgoutj3vXjnn/Md9nSYH4/6x89eOYZk9iXmObh8rPaSGyXlh7JqO5AWSu/wIpGMPsb5+9xteW+ZcmYDVa33sjWdgz/FPWtP3Kn35/NkdVrHkIlE3xgcBngyOi5B4qE+WQzUSAWvHkNPDstiGsBc9W1swULU3cYaU21gUyFFKiPpyDzv/av5WDk39ia/zz139l9M6RSzH2Cx189iBEJ7H8jFJAt87PCbNP+fTC1NiocGIxMiDQXmdZ6Ihxhtcbvv6SH3H8JOTF0ftjWdwl/7rfaXpmJoaNDMEa5ZeU5DMDkASuEF1bXQOjK5ew1ebjeTC4omS3Ha8imTdXOQh+Zyc1lfuOx9LLOvG4OeXe5wez9EP2K5KS5jzpelIfCrTLXFNJ8ubD26rxtnOqzffTU/vBSD2xjOwE/H907+Gy2yAcymZehowUYGMGdAbL52BwaN8EOZM5wPYQKRVW50mlNvpjb3tsbz07G1R5ue4NMLp3KzjZyS+dizHxdC2OxLVrBcqphG0bffi8TL/HpDKwrbiyzUfGuC9nofXt/ELpXvjaVccS3A7wXs628HBhBLiMtKaYkT5VBcn7tIDs9qErPuZhmfCo6em3kgjqhyAMJyr5rCaPOfFADdMNHPXjDnVTRNSEcz3UzFSZc2PZzyW+bZ9iBP6hbhgeHM8amE8v950YIBweTEbL/HSGhXzg36Y9BoL28xphNwbz0SWfvnwFD8wyqXm681pl6KS4xSywfgBmhQnmxGgA4YBQbQDUFiMj7n4qHghAsd0vg5c6jjv525e7Uyls+9rSlvl68RUxrKG3YqNCktnItWeRnWqZyDJpJ7SONkmHrOtDJ4wTlmwzQfH8+t339fDeUHcvfF0duZn+oXRj/RfX83kC5aqprJKlMqk8OJomkj1GLEVVpT1iKGmlBswzgyZo7rjpXpdoxsQDs1rCJRPJtXNIvXc3OB43FeKb9D0DFhpuxtXCSdfVWYnhhF8DyOytB5YbEbz0PIQlo7DTGkTj1V6FfQGd7i98MfeeDo7GF8I+uVJfmG0Vj9aPqmQjLEkZGY2NED72sexm4LugZmZyIexwHNBPjZODJmjJsfH6E4avyBg8bycYq8qmrv/ZLN2obGXfnzHB1KxX2GVcVnPFQUrLuhRfAtnbyBQ4xZr6NiZDC82HdUNs6MNjk2c/dw/vjo8vnqngBe53RtPZ7fiN3eenuV72WINBbyUki0oJ4hWK4goaxHdA60irLBappk/3HyADsbn+sgDOFY/t7el8by5DVYEjAJK23n2j8+MfNbkeDtVC3H6kajCppiSk7k2RvFtnF79SPHlWDOOi0biQZ9jdztVBnrJ7QGN54V/Y/XeeFIFOUo/u/MZn91JdcMYGVaZzkaGcLKRgavNlkIFVGG1tCN/qBkFw0vsq6NjdNXG1rflHI+thDTj0naSOWoYaLXKOJtmSqg11KEXKxqbpY1mnFGr1IkiR9RxsgbUZDkvjHkjtH6iR052hBfjtQTROA7ffPPN4Yku8b/k72/bG48rOhmgyD58xtmO/Oibnh1LyQCTKEtaUwZh2UfTsU57ljJQNuxpFrJmQ+KDpIAPM2xMrVxZzLDhTQBlRqeOfz37rT1QJvM4n+N+Ss/KGbeRYh3V8bj8Bac77jUctwAEfd7EdkNIz1fVGJ8hcKPLq1ev6ZtS8MWhrxX64rZ746nsUnwh6MPD3YE/NGpqMZaS4Vn1BttCIl1gwYgF6Mio0yKMWgsi/AyYDfu6RtpsRoQpbBYMY2gheQKTCyOBWrEnm7bOFfc8P+PxNycWBG2/a/hYamNQr+wy2XRbdhI/XYZLvFgfkQVCB5Ixfk5P9JPYuMHgG7rSQt/hRt+Y8hIfe+Op7FWc6TzREvrhw+colVKhZ62ZKKmyjNSTrF6x4VE0yo7ibFjAlQEczI/iARzGqpOw7TUgQLp2e8I8PxVshZVFd6phHtwyP+eIv+9jnXm0Zi++1/Kx1E5Hz4ncoDKlljzx/aW4xOejMQ6V0C1cSab4OT0d3n77PTUeOsL2xlPZHy+QhQLC6e7P+IqcUB+yoecw1mlnQ2VXtxEbiSqsz6S4uDb7KCedi1dl5GDOY6oJqa2ZZlVtaGtj1v04pNgFHbPDuoZZeMp8WO/i57RzSf5KP8vnWdpKfnpUppcNvWZP2JIlvm86sJxkcRFhh4HPxWkjkOzwc3jCtxjc051t9/RbPS/xsZ/xVPYq7mP7169ytiOlQs+mlqCSDStWhMW4UXDTSkNARSol25A32KM6diFvmKqyt9CEqoEZps7NLhpyV9GpdpZx3iFH903HREXk53QaH+rW+1JubduPY9yOtx30htWngC258KV+EIHFGToBEkZ5LgEykLoU+u23P/qpvaDR3ngqOxNfk/NrbDxURLaOKvgaS2urJpvDw/tKowu5tasLq+X1aHcMVIBO7gYVcGDNiduaNOlmS1bW9jYiyS2P6HgM8op9Oze/3srY6Ph5j8/3nL6mZy9xFzFNTmcSkLmewtfl6b0cNWdxhnaLQOA7Hum7ScpAm8/bt2/oN7Ff5ud59sajtRO2v9Bnd1BYz/Q+D99MYOsow9aGeV3VMIlnjCem7XOG60lXr15EI0hhO6FGF8qkURiNjAJTMCJ0UdNM2iXVcZWB67nNQCcbjuZ7TgBjc19n3mO+NPp1fHLNdkz1Y+ooaphuO4Wvy/tNBw5IL6pGIvLlBiXhxxdmbmIy4LNvIu/vHl7kV+jsjccV4+HwhWriPd1UgB9/s9dnbQllKjIMgElcqkrWm8ZXvRVMV7uFNDEcrrE6OkxSLaghXADFg6ywspwhptfK4PI4Wprd/HSFLYuJX6qfLg+lL43jCJ9V1SpTnVW3EttcvSl8KU8vKHNZNo7AxGfK8ZMsHhcuycTlMbb4XM8P1blfM3NvPNnew68ffPqE396h4gj1kcokA2OYYBWhsrwFP1LMultXxx3Tob4JUWqUnLahSWwGiAdc22RDUs9eZr6hezn27PgGFQRWz8mpZtv1uSiURUphenXddvrq+JSrJI+9IgqTLLJ0kVAGKwnOoaMxcJ0kHHkh4hh4aj5vvvkNNaCXdVv13ni0YGiLz+98pP9PX+RyG0S+RAw4CJpyhnqpHxlbJyZjLXf8MKYACqNgu7mV0pJjHDeE9UY0P2MN8yaAy5LrxFfPy6RtBUAdtJqx9GR6VEmAanJSrQnw9pqwqmCe7thXAdFLzqbZmsDwSFFGhoe4o8HA13GWvHgMMF+EOOO5u3+gz/W8rG+s3huPKeh/0emOvLcjxZKVjyCJWeVHO17qRxFUJ2aB63HEWo5E6aojKs97euBgegDCyBGc3FkWDCMfLaWeLKjnm5apHHfu8XRcMwsjm8C0/UyhGC733/a93Ga98ougDaPhq2AXjAkbCS+9BOPEY2VtMjIQe5aXJYibT+RJK7qjW6r3xiOpe5HPqfFQ8cifn2eNFxFZwRG/5ERwIoZAAp8BjfZNDUeeElGmjMp2BAO1xttFFYvtXlIFw3az+7Q0WKkjFNHo3CYNrQQo41myx/vBlD76+MEqnjLC8uT7mHnN1Q34SbUeoCWzZ0eK0W1IiW0yvKhArpiQkZSYkCdiRB59WzV9puel/VTCfsYT6gMbfGhUbyrQ0ohiYhS8IU60UDNghJNih507MHVcqEZZIfGMKdwpmw8iWdSA7BQqE6iwrMaF6PANxif2Pj33suKPC8nbm/afe/P6uTSOIywSUVQneriWTPjpTEctG7xrOpCTjHkGox0mS0Y687mj7257pO9uezi8ekHfWL03nlAvv3z8QjVxR18Mivd3tIikVjCyLJEOcEqIqFaeZ0Ar2uOsWN+RqOtOiAuliA9EHBfIOmMuPrdydFOCQQri2DjyuOaN61Vw6phK+/U45s0lR4/bLOOBrYZ+g93E52G17EZc3YG/rdpiAs0by8cUMMb7QLUXFjRrM/HUeOijPHSpDZfb9sYTd8rLId5/ejp8fqJfG+XP74R5UZ340vEjnb3juoEi6tsZ0LqBlbim3sViwXDHxKTXirrTYfkEaELs7PUGqzSkhoM5Z3jexDp7fq0cpdh8XOvY9zaTrwGKVdv67fjaOt7rFE7k7oUoG7B6loYwjAslvSwHedLxc6CRYWjt4n3PV69f81fovJS72/YzHi4k+qYC+uDoF2o8z1owVBupPExBBXzB8WCDSuQAJIEvQJma996NwJAek42mcCyfAE2IM4/9oR7EfdRx0n4jOt3ePz5PY7HN9zNmNzvQzE4Y1I8atTOJKMyIKdvaKDI1F2zNBvGYLTIhhU4rCo3BCgn1efVMPfN59913h+cnvN/zKg/oKsd746Hd9pluof5KX0X+/tdPsay0/8he1cKpjLyoKIIJcYE/lpH780U9Zr2rY4SGrBqekkOpismY2bDqa4R5juaT4kh7Ag0J9dRvTEnzWGo8XynGuT77Pip2K6y2z1ngYKav4+PtY/1lNBtlrpePCUs7Gv/cIy4mgf9VftU4Vn8ILsVIVBoQeXd49+03dMctfXEo/TrpS3jsjYf24if6tb+nw/3h08fQeKg+UukkCjs8jiLRLoMBSFt5QrKGbVPbTW8jGCi3FtUR/SqmypQwO6LmPHLB+k3ouD3i5uQGeeRj42kTx8WbRxH9sdljbC/RnaPjsRp37A3pCM+nSGOra2kVacsxsmRYQDw2cu0wIRCNhztP5N3R+zwPh4fX717Mj8PtjYfKAT9z/UQ3Fnyin7nGI9VKKpBIRYKhxdOEuMCPMk5lV/2ngleO307JLZqxHYWOiM005S2BSU6rAdr4LD3egOAEARhn1tBKdGuKk+Y1NDWgYYaxsmfHP2va6tS9YJ8MPQGSfuJNUXN0DNaQ3kNLkPNlnNYKWAHP4Jww8IvGo95pDxX7KvEe6EOkONt59eZbVbjq7d54aPfhjIduajs8PdET1YeUSCogptKwusMnxFWdKaar2ynwWvKi+OuGA6wuNFzGdcAdEVuZkhtXVTLqK4EdpXRFQxrRKfZmxdkgqxPugIX2XI6za123fViUpb3v+fp6lFqbji5MFgwHl0EL4/n1S3GKoS2TOlY3lp/LFBOyQpuUHxlg/O7735JtjJNUNa9te/ONB782ip+a/emXT1wwUhKpMJhKw+r+nRBXdSxzrMEs8dIr0AF7VOA9C3YOPVxVZpiGtCYLehSXKzb1moJkYQCSwGegxuMZ2L8m3nG7Rsm+urfsWbSPcywOr8PuKiwJoynIomzhPF+OVc/zTZBkLM4w8SD37wGV8w0c2giVxt98/xuKGT8MF3jZDK5puDceajwP1Hj+t9J4avWT79ysvHJxGjeAclU4L6QGOFk7OzX6IsvPpDcKU/AQZlZYxXxHMH5BwOFa0QIL6a6I1GlHpJCzbvvxHFc7fdt2msf5yfeNtVyjU1zkd9j1KLCF8/x600G0BmcajJtH4PPxrpgwqTQ31SCOk8n41SN9luctNZ/Rg1HNbXC7Nx5qPJ/o9PXjB7qxgOtHisiQ1d1mSq0qt7WIwpzE161sjhsPkkjUQ5wQ63ElyvFASlkS/baVUpJ06xF5brUJeYgfGYeG9JgLjFIs8+Y/EmqynaPX8DXDRoRGwgVUj7OOdYo86OGSTHuFazLRWMKlN4g9T0aBF+9qgwGKXv6iNSESU+Z3d3h8xA0G37yIGwxuvvFQ36HGczh8iLdShyYRasRWQ4WVxCzEE8okNRoZJdhLonRucmDEqUsKwkSjrDHxnjz2o4Zuzu7ZyrEYo/nonprdiIJBxJgWJbI5N4haYLN4ZVWeIoSUKbd7Z0Uq4DJe96oMwReQgjHhV/A1Uz43dbv2Bah3VMMTj9m5TNcRywcWY8uDhxAVbXx8wog8Kq5vvqNvqb577cO6wtHNNx7Uwa+f6ayHfoNHC8IuJLpP81JRfqqhhEhURK1K1OzH4lzV0zxjLgY3yA+out1MpQpizARQxTZPyqsaDcylzadnU2XaoFqNCTXXkqkN2dpZeUltNDLvmp7n9X2O+yA7fVPeLY/mKByBdapuYGIq+bjRQOYvMvss4atO2PLiojxjmkmyJH9GYHhUIO/evj3cvbr+O9v2xkO7+J/0/o7eqTLUdGLdRIILxY9M7RxBrmVTDo4jApmhWvWVMbNhYb0nZ1kPUFgTxhyVUzahRniOnZrQOhUwZ+4ukPmdwr9qj+FHwpvvjubojGIDrglvCep8WTdyWRi7xYR4zMZTkFfnTntK/oxUefg8z/3hzbd0d9uVP26+8dAN1Ief/0V3tFExuDphjtm7rlbcgEElx+hOkMfoTpg+qbi3mPVkNqi0wFqu0D0bVVmVWdoFZwaUsHPQdX/zuKgI9SnVoSO2g4EWjROMe5lWUwcDNiehelYwYCtCJo1GZEqGYVkymoqElRq6J6/JdM2wMkPbBYVplenWuHYk7R35M1yqQuLxTyR88yPR03vQKG+OvPnGg5+6fk83Fkw3nnqx1Llj+/kY3TEP50H1DoGeTKPrHUM9/aYMApvcBrDB1rCaWzQifW8IoHUbkw28HsLSuGvWOPdwaY3aBbOmNMzrz8W69Cb7epPYqnqVaUz15KVMUgR+Lgtjl0PiMVvf95GvzOk3D2k0KUDKFv/J9pvvf59EV0jtjeeJGs/7dKlN92EsJ1dAZZkpfmob7eXApiAHNsbto7ehcAI25mDiMGThrCcDOMoj4U002AzqybwV64joEP8sfWNweeM5duebfJl4lpE+lqW5EN/e1ng843q0cI2bLZpDrtqzJTLvzuItDbs0Zpbhk7KM8Ez/vbHO2QvtBfmTgOlVAvYLfgr73XfXfbntphvPT7iTjW6lfqbbG20txJKxTCkZKYDB52RnUGFt2HGrh0QTJzEzOHvAdFR7IUZZJMRQNnTWezIHbAx6Z18NFcduN6GliXTmu4Nlc2/Htba9bvBhaW5iXJhuUFVJsU9h23J937d0YHUsTUheMwyPxjIKvFwejednOCqgmcgfMQJ9d3/45vvfKeAqtzfdeOSmgsOB2k54lRI3xasSU0pDO5rxc5WGLF8XaGQhT4tEObeqLB6IJb7GqdqoAQd5U3OS5nPZnT8253kx9m3Os+VT3dCtsqtMby6OSqyfQymHanq9WZNbnqEjCUIvqUUm86QDiRx+ysdA86Hiu6fG825vPGX6roWDbyuQIqNCCTUSS0UZNJnIm5iYUZlA3p6YD3h/1BdJaImrfGJW+YVVYczBNkwMs7UxndNnL7gyjtGKrltd156JxZB1z5OAoDaCyzDZsH7U5yAaO5YMuO0UiwGwCtZtfZb19360KeE3ee4P93S57c03P9QNXAH3ps94pPFkTYdrIhVGovp7M9ZUHzZbmvsvD/rZJi+uEOcQiRRShRWFVVlgVmVR0xNzsF5z2Yi+kWkTD9wSsf5DbC6bIukOhzQKHMBNHqw1G56nl+HSvEUen3MfPIbU22nvD200BkGvaOAPv0L68Or14c07+jDplT5uu/HQbdR4daI1wiWhA9qhIyVi4LNKYMT2LIMZOB0QmeCsw7FZyuEUAjOBG9JF3eKna+EOPjTwNsfi9oa9BS8rR3PQegZVWpniTM9jThze27RtxhtY8mWY3mhltBDbVGsKgu+avORp40kBK4a2TOoYCPB0bOmg3dzBefPRMX19zqtX+xlPSv51Uf/HfH6HyyI98US0VJqzQg01hW2B6MzVTIdt2/K4ZF1r6nfunFSvcdmMgnRNKcEnL7Px/CYnWcY7qWJiaJPzrczVaK5VMahyblFUIeb5r9iusCpuiFUHtv3X8YXtuLAXEsOYstWSJ35yk3huThFg5MzjC3ChASUZz7u7M7XZhGkQFjoPr94c3n6Db6u+zsdNn/Gg8egrF6mXVBCJquzYIOxigloot4qRNVjtw3UN630bI7MvLUxFXJUTs8pnrv1wYonyHBOzFSjb8ij0bFhOZogzbmUcWXfM61dc+CqYAQcR0shJeuVesT/JUqOTwAAo8TE+IFhcYurWp3B1ua4P3maODeOYeyMnXloDiM8iIyfDMid6dpOzHm3zEfqbb94dvtBPYb96884Cr4a+2caDW6nxWzxaK7bAfFmEfZkxs2F1h6eCq4rPwGxW8gzfIzOdYY6gI1HVMN0XhhN2YS+fSc0Hz6QiqLAYOvY0T3seGhHkMxvL8Vjsaqv0Mapfi6+v2/BVsAtGYXbsfa26HVkbclljrAsJR5Awsq6EccQkuQ2Y93uzyE3zIczbN28OX+/pF0np57Cv8XGzjefn958PX57k8ztcBqEoipIoGFOHkShU1FJ9dIUJVqXmr0pVM1titqbU5TeEDfbkdOfqNfFNgYYwCVCg2yat5cWTbDjTE4PS3zw7pX7fYcBPqk0CyM0gpgmrCXJeGMemgtkJL72YpTGzArYTl+SWnitJTne73R1ev3l1uHt4szeefjFtT/rTr9J4YplQ4WhZxGgNw5BR7AlBVHFVptc+alQp0qPsnUK5lYMQe28KLZnju4FMoMIamtlcPeDt9Jy+G+Tuu0IDTtZHNYyyI+fpJ7/OSDao2xzTdabc4u0k2WDEdgfDoo6cvbXkhm/i9atHwKhct1wlkKmNeubgnt/JKcTprOfhAZfZvjk87mc8vLeu5sk1Hq4DXzpaG1oi/YkJqsAWjBErJaaovxLS5hyl3DZblcycb2GDYu2FOylrABrswr1lLNFR/aZuVVBlBlP1hPY0NIapbd9G3e+UzSSX991gpevHuXGDZKqgRnAZJhuKySozeGvJaI2IokhkOoHPG6WxDTS2yUhIUD1LteajZz339/fceNB8rvFxs5fa8B7Pl6fQbKgQtCziTgyMgh8BIJI0UY7t0K2B022BDL9epgawlKwZnhvcUt+ZXvNSN+FqYUK94BuGITNP/eFSPbU6qQ+AzbGOVREypdWo2XZEBtUmvb4NpK0zLanbib6c2A0mTI9gCTMJmwK05Np4anLl0ZZJHdOUuNHoGDbsDTFhyo2CL5uPnPWg8TzQ2c6bt9f52zx74wlFomXBZUADN64eDgkRqUhUFRxzBtTp1QbxgK4Jr5gX5xWJNJkKi4UFP2Nkw2RwkFqiv0SnGs6EoQlx1WRiSkWuYSPZJKpb6Ek47TdhnX0dsHgCw9gepiUTfjpRyXFhnABm4iRjsWDczQaEcvNuNh8ALVKaz3c//u7wTF9yfP/wyDO7pqe98YRiCaUTD5Q4Lvaml/DIswoNZQzCFL761pbu6sZPbNDF7gbZwWviyGBGQiSElR3Cxzf4XWUx1Yeoce+IX8GK+vrPGhC5xjxQ2sxSfuFRYywEnhFgbu1zqm7gdZujUZ0KrmAVjIpXwTRTwRrejiwNnlctGgZanKFJFq+niEHyZOQhUheXS7QA8jMfjL/74Tf0BcePe+MJOdz85sOnpwP9HT5/oR/j4cIIIYd6KMui5ECDuXVRzMGEOOIuTbjCv3QwHf8uTjMwZFV7Sp4rFfiCkTS8aHyPn7QJpfCYWhpjZmYlW+M54qNsEj4JoLjbGMmNXkazM67p5DwaM8vyDa2Nx2Hwezx+j8Cr4ww0n+++p6/MuX/DP5Ngo74G+ibPeN5T1/nyfHf49Okz7aPwesTWStxzhhl5Qrg6ymQ6bGsr4nq27qDYQNhFPIFR8E2sPZmBRbKNz/bsgO9o1BDnbDy68CJUjb49PxNkk1Qr2YLZxEOQdLowFhJ2CD4CamAiOxJZWDk/H2NK4Fl+ouPt1O5Mh+Q6rjQXBBD3S0WuNxcA9/btW3qf59v9jAfJuIbH+49Ph8/0ouPzZzSeUDahXkzZNKfCmASs4ibEVZ2dWWYgHoSlKB2gVhYUZutZGwWd9mbPblQDKKjEtQPjCeXTNKIUe4zPEBMhGaQll9js60TrDBvBjmBg1eAMGf1ZeWJ6vcgXA9o3km1rmOg4BB0HYpPHhsc7oNwLkRMLSIIQuEjf0IdIH998tzeeuH82TvwaGs8XajyxBAIRx0lSzMbVkpFCFyWRbBhhi1Slmrwnq+FfHM8nIB6MZp7yyfSaREDZcRs1035SH4O3AEcLk32EkeqnGmFFmDcfnI/nPBNCg0xzagAKdjU+h1pqE3qVh5qDyEHcoKJYKJQYtk1PXVM9YV0Wz2DYo8UYOi4OgVcZyz7NwuYdUO4FYXs+1wOxHumzPG+++5F+ImG/uSDL5jaH7z9+OXyg93ie6T0eLg+tkRiuKaTIy168GD7IukYG0uEssCo1tr4mG6BrYk8npzflrqwnzFI0Ch3FqfkuviPEYsO34bY66bwK1HCq2zKM6X1SNYSYoAqDQyY8KFeTuDwm+nVsN4iQRPTkSRZ7Bismvp9M4PMGTwbnDOA9JJXptvLipbJ/ed4ZH7zHV4+Ht9/+dn+PJ+3YbVO/UOP59Pnr4ZnuReQSoKdUConKZxHrJhfQuK0VwBVAeHepYg0sOcyssORYaaCHQBW9i7EqidFYOqLsOFSNuK2lIfKUsPYtL9DKikY7xBysmlmio7q6ncqD4pZvK585GTHWO1iq+nZnVAHErGAKlmeUOfZy78nLZAqeV8ZA8gjBTQPmEXLAxzljFKhbwRYxVnYqYzI+3u/5/scfaal4Y5xeB3mTNxf88oEaz5dn+pLQUChUB1IKviB0F04dQ3Ut0i4E/Vaj/sa3vmT9KFipMsc9rIssElLJ0TyP2bHolFtTb/Gdsg4IPAuverQd1RvFiWnksK3Ry4cJbZAs95fzXIqD3aag4XcEbzCG9AabgiIuNw+WJt10vCde8pPxItie0WAP2WOddFgNT6Dpf7ajyniIkzF5aPRAfv/jbwm3N560fzZM4eaCD5+fpPGgDmKsiVKm4USUEk2ZE6RBotTC6baT7wtkRb1+JGG2Z5q0HJTlLEamOYKB5XjM65xGFaFbhlZw+hh1mqv1tQo0wXnds4KqCbP/IM/cV1XYZga0fgp6EBsX98KAYUzZmpBXfeQ62ZiHykPjyc54NLpom7BMBx1Oos+kH5GBWHRiTN/fwQj0d999e7h7/Z0Ir+j5Js94cHPBh09f6MNXKAQ9pkIxYOcF0nCKXVrIHMMN1Fxh41KMorgvFciJ/FaOZ/Y0Z96j2ElcA+DZqBfL8fVjJf2UjSNzO6Lp/eaY/lh0NQKdkW5L3Y4vJ3KD0gxzZmCq0CqTLOd8GUsfsTKibUOxUQo42arhOGmaOVF2o6L5ECbwvv/+u8Pdq73x2JRvlv6VLrW9pzOer/R7PHjYZwxk3A/fYeIgEkM2+h7OK3WFfl7XJ/FWzMcwDDnpexQ7hAMolgi9dzKk5EMcUxlDmWCck1FtUYoTcjZaA7Fd0SlYBaNhcgoX5E1YS1DyazcHxBzUGkpsOkCRPRrrBbhqjrOCcJiajHjv3r07vHr3QyM322Xf3BnPZ3pv5/B4f/jnTx+kFuK+CYWG+oi8OuHkcRAJVvKjup1r4boD4FqCpjircRumIbuzOh43XQ3RRyTaIQ1AjHILPSMmY82T0zY8HiOjY0hIfKSZEIDiMYFhcQ8zTyaNJ9cJY208PKxjcn0/3zC5WoPReecyGuOW6m9++KMirmZ7e42HvpH68HCXNR4tHndYVHeiKykeOA7rlJyqqRfHrB5IJ5hlK789/y1ZdiwPR9uyZw2M/fpl0ihsFgzCYvLEr4mSpRalWq0M1vVUy0vn2RBd0plU8wDrWyXC05GJyrHcwICU7MlF5k5YWA38XI/GzMJ7PHoHoMfwWU7AMBiGTeHZObIbI9NoBUPPBoy72vC7PN/ujUfTtN0tznie6SvFf/75QyihUCR+U51AgIgsq0onq2rvzHNlwBybVZc1OR/rkzsxADID2bDq0zKn8FNyZ4vA2TpmxavSiAsZ6DbUIocFoxPTCNZgQGpQzqpgqqKp+GmG2aEdLMOm2I0NxjhINxYIxoejurTNjZsmA3PuYWTgR3ngY3z/gN/l+fbw5t11vc9ze2c81Hg+H+4Pv/5SNp5Kybg6iHIm4iiUo4Pug0tlQHdLOErjwVqJpyXzfDVYMaCsAV8KrW29vxIxJS816hxdx+zaZ3lKh+4iRjB9BGCVjPnp2Abyx/YGcI0YTDgI1A+LUUPO7JrM81KDsYYJw7F5LCNizB1MTLxpLmreyMCK+Q58nPXc0//vfvtn1biK7c01Hvz426evd0XjifVR2W2xnEqC0ZFd0a2yMoVs6FRSoTn2PrAZaCYQArrpNCaxVKqKLIwtZIyBYd1nW7EXR09WWtRkzNOydkpNtWlRddrrjuo1cGDDIIsbGBfGFCaTu6EbBKueJ2tEfst0wNQaj1tUCFfDaPxZwfg80sgwhBSe3l79m9/9RS1dxfbmGg8utaHxvP/1I9WzFk37dZIrPVdIsn+dvLfLk6seakgWazASQ2ovC9RMfFMgx24jZw12kbNRHBQLbMFI5juiBKrZZGlrzqNWnQseJM2W7VIncaZ1qvahpgJnwg2SG0dNYYzckMlEzszH6Bvg0X9sNU4YYGiQqUG3VkAHf6lpWXVVyV8heQyNDINJala63RtPzOI2CXxjAd1Nffj48RMFyBUTiqIeb0AQJlIRWHKiKBHJReKtTJl6dMW5spvLmZuT6IkoY64i4RUabA+i0ShOFefgsxe/asJskRAsOkOJYaxRHibH7VuTozFBR9+Ml8OrnqMRexOYyrFrI+YFwDM4NssSE/BD/6v2LD+PR248ED8qC03DOgGd7XyfExoFhmxkjMtte+PJE7mxMc543n+5o8bzkSILRYCaacSZCs4DWnhGGaEhvYEzj0K9TnsdBk6b6iKOTszRBvQYTmFmc8+GCZdRo7hMjYc9XZZFQDZfHUZ5XJNqbjKeUcokMlTjVWFkeisdnaqoyoy2x+IwNoj08agpg1FW3PZlvr8AS/+JCcr7Ag8yGOYnEOnBhsAHxshDk/G2gpppQF5Oo8DgTcD98Pt/S/6ugLrJS23SeOhzPHigFoQqnplvCyUgWngWB2EXU3i6PMMX9+XjqUdwmqzOmbsc7PXoLHfUZhsnc5XXxQPzDoba9mx0llaNAR9WDTRU7tJZixM3zTUFTr19VFpYsNU0mQSYJUY62759nKFU/MBG9rU4Yk+akSg5RSgEQ7RlWseBzQamz35S3NCjkfzRViR74wn53OomnfH0Gw+XR3py08lKR2SGaUind00DX+iXjPx82Rydc4ErGD5fbXGa20iDadvJ/I0CSS2ui0SbF9neIEYIFXZTyPmAxgJhonhyioXUMwawNnCvHEZTNkSuqRJzNZ3EE4y+TwO+SQjD8JTwKbmBxwaMXOPmICQSjUdF+U5JcqLkj7Z3h73xxIxtk8B7PO/ph0c/faJLbVoPWajMTk9RWikZkRmBIaPeSyFS0Z9yRutmsGWtN5eezM58EpcBZNiKSCxnKtZdQY9i0VB0ndbmouPCaGAwrhtqV8hLsrfdxwt2AsPiCQxnpd7dAAAqwElEQVQbmsJU5FXbHte8uQA+bVMpkkt2iBfOiyq5IX3dMSBhzz2IE5hORjo8pu3eeFzCtjfAGc/P9CtwT090hwHqIQsx1UwuKbGsamCGzKzextAdFLOmvE7mlljpxdyT2elN43xkZo2xZhw9bdPBebBEp7TiOXWbfj5eozaq473tCqZgFYyKsylMkBewgkG2Pc81nsIzYW3zsfLYdGBPbfYvr/ncwBhxDFNI4cHSD3/Y3+OxKd8cjTOef4XGk5qMhCljLQwfuuOagSG9Ao/60orCSixToStZXGbmUvPvRNsJaaoh9LOaDPdxPjaLhQU7ztYar9gZORsRl+KLLCbqaI+RkSBbdnKNAVyERCIaKaMqMREciQ4mP9ijjhI1XbzXk/FpjH8+PsHExqQmdavvC7GtYI8N9JsP1L0fGgVG5Iei/fEPf1VvV7G9uZsLYuPRn702u6kosiDLSi+9aCF5IWOdOte4ujAZyzbEsfV4V0jX4BRjZiKR+xZDTXGAT8lzq/nY6YeB4+UKxThfHAtAhdHy0E5eS6M4MqwJKPHYMivhRFYbJ/71IlZYl6vwKjN4qMkqTQdhm+aR5h78G1kKHbbDf5ZHiRDUOJIdIzOvgrycRoEhGxnvjcfkbovk3MbjStINikOLppsBtpiAW4pp0e4QpXBsS7bcoExgT9yTlZYSp6dn1iRR4JDNZBlQmUcyP0BpBMZurgURYLT1MQWdjqqYmgSIcQE3no0NkCEegJXsfx7J6BsPtsEoO70whU6mF5tK4McxtIlXa0pqmJKn2VYWb01SC3mQMZ/ovfG4zG1v8MuHz/Tro/QZ4if6PR4TXioqwyQyYiIhcj/0I29hH501A4t2RVupOOBrkwmgKeyUvGYavLqexCxLltD5LMy61bAR1kPj2OoYtpDqAAEp7UDEJBndYT3xmAS0HHi7bnH3ojRq+8obUjKnOjjrofnwDhA6TVwxwZMq8zaTTTUemAiJL/Z1tkOSHInmP9bdG0/a45uj+BdHaUf+9z/fywsQE2Gt8bjyMYNEJsqYGiK1TqfAWd1NwW9Hvjz1lKNlyumgn05zFVtlJlsTYtM8xuKfspc8T1N9W2PxiBfBDttrmm4KzGR6GJJVxZZZu9wGPYtRd+DVZfHsSZsSHdT1+RNX/tRo2Hpm1A2LA8Y//vHfM51tD2/qPR7s92faS//zv9R4sv2SN54oj4QopGGiMlNuWK1RhzhucDONaSzdA8k83lA88Ae8zcFac6yXnTqAV4u+56Mns/5G6bq9WlQ1i3VcmhfJ6a/uQ+3VbahUtg1MZEfCq2XZzT8symBtHk4z2CMZ/slDeRiBpv92MVil+VCm5O/w6u23h2+//1FcX8Hz3nhQElwjoVCkRNKuS+xQUoaRUI6y9eUEZx5cdVOaTvPMbM4zCHR/AZyW5wFO2Uv4FGvUiURCKdURKcRtEz75EUCSOIXGQNC5jQY4LsgVeTQRiQpIWQmTR4tF3/EABSOqREKNmW0p48ajB7MaZphidStm4pmNOoxiIthOZIiCOWMxgRBJzoI/dRsUIh9jlgUbj4+vD9//9np+iXRvPLQDR852pGSywpFqSM+orzS6CkqKdzDUfHL+qBg0EmC5rXnaM9DTjqYQU9OckmuwfVw7ikIPDAtXAPFUpCxdwDgG1gmKBIgYDTBu25IIMQFMorHo5qAQRs1e4lmqULBCoklegcCtsLOmFLUrStDRRsHiHIOx50l/CnwZRA+MVXuGyyTnpXHprdqYSMHkUtTpJ7AfX1Hj+VNufbPjvfFQraTT41BOvqZi4Tb3IttoSq9eYOr8SuaS7cAQdZ3bmZJRGDl7nJOnhDVOOqGoKOkpp78FvjgTgAoJxm1ZZBavDlv2aMFVSHCLTfawiEwUhxOYYrGPikSUujIj4UdpQRCjsBt0Cj78Aa9fqaP+rQ3RVUnccjDLmo/Mg34C+9Wrw2/2xhNTuikCtYL3eP6b3uPRhz3biWURCS1Zw4iKQlQkiti3lAE5ME6TCp97P5rtcVC9Op8qUyNovdJWeX3bNUkqU3Kx6ic1ppPiqTZbbzKBC6oN9HG0ccUcqtAqM0QzISvEOYPG3GDA16ipkRZNR/UUb5IR9Ln9gqakqiWDErIlCzvC69FI/lj34dXrvfEUCd0IA/u91Xi0dPIXR/71WphIBGtj2sgErzAMfzDJBEx6J2Y0jmwaWmiiFrfzgRsDrG2zSDhcZzDpI+jWcdZ5clLHJvkcqm2r7tvbrmNgExKxjUVeaa/tk5vLMM7s2yE7AcMycxsk46YBVHrxICzRs3zWJiH+RbvRvNoKjFaDMZ2kyG1oPvATZaYh7Y2H98A2n1A0rvGgHrhQQqmEutDoVaZj3gZMBnWQfXDqDByZ/SPV89nlnwfJ5bVxXDxqQuURaAjHeCyOQPcnZ+1ZpOWr+6mteku61mJPu4EDW4025iG+5MhMfnNfxr4hy9w4oRgJzSYMDvwRjGD+nhxq49G1QWNIZ0GwSf+dabr8xmPDnGg+aje4lk2n+eA9nt/87s8OvuXBzb3H80R7FLdT45GKpawLLay480zNGDKKd+LUGTgy60eqp9m1DVUXi6RYpUZ04nqjrgslFZCLQEadileoG42IKMxGSZ8Qe2LR2gDHjpOV4L0WRDWypFmP3PYrMkpOszvRg4HkEMc3x51YhEkDltHYrhEpCuASlvnckQIva1565lToHNF8Ul4x2QPfXLA3nrSHNkU9P1Mh0csWfY9Hi4rLxdVR1naMzJCbmtvLC+aITENVj8wjzJQ5nTambkvdaQ50beg9jdGzLG1Azq5Og4OlgR0TrTqSRAhHZqVGTNSRJQRbUVNRZvBMNgS0mEPCsTFBA7vt6VZlpAz90gijWWKbCXOtQ9VnZNBhg2QybMUIPWMc4g/IuAnJ1rREPnIemIUs16HxA53x/LCf8aT0bYnCafMn2ps/0TcXoBa0vXCZxFpRbog88qV8tjSflxWLSfSSiR2p3nd5nPFi4eg7i9K6XoqlLo/qXUJ0k60uuBB6vfh2uQ3IQcIxFXhh3TRW03soYKpqNBeajlHQNTmwVMMilM5kcaiEbsmvbRiqrtFAFgMiIWOTrsBpzCzMV2ioCA0B/afJWzOih2fiyl9iGYbXkZHN4wN9jueH3++X2kzytkOi8Xz8enf4+Sd8ZQ5XCAfHVByGgwSSyHPkdiZ0tZGYxC6dwwompl2v68QvHtPegRCddhw1mzm6hkFF1/m9uJJlXofJgG5Vq1xWw/GUVBmaFk0SZDK11REEiJ8DzKQ5VYw6lsZlmUpjC0s6xjy9L5GJDfFJWP7DU9KTQPEej+Gt0nwQonjG8954JNObfK41Hi6HWBN70zlux8VEHmempX1i88nttCOLkMM/aU9R43jxMo5ve/Y2lthNM7ZraO5RG4r1x5pRPRK6boYF2zYNWE049QG/d/U3bxQi206A9hKlffGp/rjBUPDiS82lWDCvuEqwnyQLaFGWAaOl6WS4avMh6yFxYROsyEhzG00DLH9740lJ2R5VbTyxHmI5SeCRryXZm48B92BHyXwpHmVqlvI55tYJ6Kzu687qXIo5ExR7qGD4ebbFmWFSa2O9zfoof7WeUGN2JZ7Oep4MEgWb0OC7wCCJ04kEuPxQrIySXONiTmRHIuq6xHiwmHTPXj+dhSS+bUZY6GXOkCcMm4zJsPxARxnUVNfiQlCd5qPzD0jaCIdjiiMQwsd7PD/+/i8JvnHqpu5qG248pkYMGXZl4NCmlF12b4cavGwQraTkR1ILd6bovXs/aoYwCFP9fMrKr23tK/GaPPKMUUNGcSQ41hBwAHbxQbHEiA27lkYfA4S3F17ckcmyVokpf66XiAuJIXeX287lfpzZCBPSRsMLepxkhoWhKFOrisGW/utQCcILS+XY0oVIHzQnImcBZ5Pg5SJLPBnjduof9sajO2db29h48LMI/E9qBlFqmYRq4cBjLfFIUJCX/Ai4OSIdANuZ+vj+GUQOwloZaOeobriNr3uo4ydsq1IG8wsjHRWZvB5Bg6vKbNQYimQk4jqbOLBZP1MTsySLwQpOde3UuKGTIJfJEW8EEaHINCdtTmIF1tUf9BNe/CJnicc6PFbesc2HvIQJykae8ZU5+xlP2meborTx/PTPXzmuVB+x7UhtcWnloaPIojgX7uNGBsIx0pCOsfWQHUOPoGZYnAGd8pxyMc9o0mt78Jil9r0e1vV0jLR91yR28fWxKdr7Uq7fGgyRKR7hR7uR8Nr14I3NeEAnno1brCWZPfrhUrBWDqb9rjaSsRhPCZcapniQ50pDap75yIRj3yXc3nhsLjdG43M8n2hv/fN/G40n1YYpE0yCBPK3sRnt4czLgNnBU4ozoFOmRC4GW2vkmI34YrcDX+pnqZ4PpVy4vTzNv5fgTBaHkYhG2V4yKnyGWaylCYIhdGJXFXk9dqtr6Ew3OrZ8huPJ6AmQnikA+YscIXI+AqWHw+Y8+RzPj3/Y3+ORZG3sGTWBby747/9jG0842zG1YUguTjfe2Jz2cEYyMLgHB2EjHgXTNhiWjnFTGbLUr/sCriZJ+hWpslhZBwhArOEVuy7Sls5C9MO4IAcrZKowT5Hyq3hyab1iBGz+gEngRYbjGDdzZ5oEsrqCSpZ4HgBwfExgkACBivPlcZKDb33KakJyhgQc2wZdntWUZz8hWtoEivXYbc5LUL6rbW88nKXtPWH/TzWeUCoSPBdMrQy3N7c9IpsBtxetwNODMK80MppvOC0yI/aBER9dvSKMgmEWt9JveElWCLo+c3Q4hsCG97puGVcy42WqL2brsrpuwGLjjRDD28FYw0Zj06ZTw0Wg2mBTao+2bEjHiKxsPuieGhIQHGBgJL5nyIieAxs/BLc3Hsne5p5RA9x46FJbuhQbDi/UiI04VJ7jWflObywDA3tqAHL8pI5zEtaRThh1+06PIDnKvirvGDei3EIQRXYkjA6tg3zKoth663KxFpFac8FH1VWVqeswGbFyawc0IvByHO4aujQaKw8xFU0E/PCeToQrQVv+wxOdFZlJc5sxY7Zeaz4QEE6g2INyTqc8eOJ8E/H46pEaz1/Z1DU83dTt1KgbPePhGqI9xIcG9iDTspVB/aAxiJ28eAbCjuvFMQDpqc+TNZw12GFFqbqI61LUjUQV32Z6vWi3rUCSoONVjUZTYDAdUg++uKjy2hwVeJFWTOQqMeXbX1rjuZCKO5phO3QCbcjprAZ+CJ0g7Ng1I4SARHKMGOB/etCiKhxs6RWuNh3XlMmA8kVT9kyN5xpNGKh7tbk3npT/zVGoky+0x/6H3uPhmtFyJL4rHRF63uZmc6sBuT1VT8IApK64lNtw2GDP81IakSVqxEqpq1qlDcGG0mdYiQG7bVNtd7fWQRVY2k9xhBiDXuSrTTBUXYUsUybkho7+PS9vQgIjDMM8Fmc8MKkNTE2yDb6sArw2Gd0qSreWT4HLnwrZLSFkDJl2J/ilMTy8wgdI/7if8cSkbYlAgUw2nlCY2Jm9R16/Wgs9nV02lYGQ9ankT5k5q7wS7MA0wjLSiLRis4HM2WK3om9ZAGGsQeTFnBuVFTfCc7GoWwc5ojcOl4+CDw3FHU/KzMzINGp+vU1tNvGsJ9rTRKhhbys1oMAnPfyDVtLEWQ14gkFTwBhnOsIiGYFjs2BXoh3DYHvEuxe7itWt4jQnwg8RgEmuX+FzPHvj0R25rS12IBoP39VGNIpIikM3+djHrwXgue2RFkobsUs4A3MTu5m0Ub1kj2OmgqVEKzEzOzg08RgSymI7N5OBcjGPKxjHcoOqhSYTyUJgVRPCrMXNx20wGuVqI//l12hcAeSO/KqecOmZ/vR4lX0oDQVulI83hpMVSGhEH9HQH/+JNsmANC1pSNpAZLKix1NnBdVSPzKGDuthyE7hJ8go+hgTzNHj7v7h8Ie//F0GV/B8c+/xcOP5H9xOHcqXd6ru2zBgabn3pCBL/lxOXjRz9a8erwfS1U4k1QmmcPx0vL08LWlpChIL54XJMnLt1rihAzbZxPsU048+hhf4WrFP2i7tag5s05lKvOjoca42aaskE5xAmmpk8rSlcdgMqJ79gChp4T2cCEPDwQBPYk/OhBQBntJEMSnjlCYrD80HJvGAiEwAi6YEX2rjj3/9D4Zcy9PeeGjn0R89IhHGZhcmkeCMqCRT4ZSyZZxUlMv0L6olyQ0huEEMq8ZdP4vR3QqEW/60gBbYrc28YqYJSwKbL3DtOFlM+MQjyrHdIMK8vTpGweWirZL6NtkWu3hOvKBjmxWEDO3FQTIV8woNHWHgWS+NiXUFygjPaQ5JJrw01ltjJVbbdNgAnmCqeOgZkDYNANIxbmZOJJ/5kByW4vs8oOM3sApmbzyUlK0+UHfujCfUBW9MUbr4SSiwAHbC0YEpplGVmbhUuDMVDTykwHDmk36mKWeJmm8z1/A+cunpxlm7EUeLJtZQarDLGQ0DSZWwBo7c6dDnUbmlt8SpYBzLDZJaj+oWndjzcZIxYn+lS2qO37STYqo1ExjjnCSYOMCzswlAAPHGjInPWIOXxiZ4ZWuj8VsyqzOhQGROaWZMocmEBzctMqvNi9kk/tNf/6GQq9je7BkPLyJSF1JOVB1hmHYcMSrcJD8ZlQrtZC4mDRfZmNR42YAsH9lwfO6Zohka0pmTamhJDdRB3MCAcjLDZcO42JJauyoLpXByUfJz7/kYPnDMOV/BjOXH45JlAhBdsaj6inNnOMYe0FFPO4SYoGcABZyaEI0dTsbsh/jqV/Vkm7h8BsNDy4PDMKZNOrOR6O8hC2c4tuFEmsR740EON/rAd7U90w78/+g9HikULQ8Uj9Ip+FRsibdtKhTvZJA02f0xIwMmX4acYSBAjXKdbJg0YEVUWCoqKzlJlIoLcdOOCKy4rC4rJctu6AbqdmIbdKqqKrNC0IjK8jCkccEOGDQHOuWIx7ZOim999koRE+2TDTaDp2RPmw4x2S1kSRdc4odLEv5sR5wHEVAByxr0JI0Ho/t4yxtQ2HtfqRfRbXDh8ad//4eSV7G9qTMe7JFPX54P//zl8+HL0xeuHakjKaJQSrzj5EWN5VzF/tyDXDUDZv8bcpkLYyCQhtMxOQfcsRhFkWj4zOTZUBdcXa9LI4VCCQGHDjCLHLGHxRw41sMBSgPVU5k6g3WRySLNfFGkJgD3KhcNxecNI40TniOPsZBRxOJmozyNhuLMGo9K2D7Pg1oL95EwI+ZpbNJs2AbzgSEfZFPPjvbGoxnd6Pbj5+fDT79+Onz58sQRomTygwD71B8WG53MHtaJMsBVIbYNudxZMOI3E+bmgDtBOpEbVPxP+Wzry3JZynlNdotyxW2F5eyR2Xg8isGKRvIty3IaJ/fKk634wOHv+dY4fx4nMKLdiJcPjyI6rCHcGGgr9tSmNB3pO+rRekh0ak7UTtBUHFx4QEdbQQ7sfqkt5XGTVNl4UDT8J/GGeomFXpkF6s4XRQW0s64sA7YI1go92QxlNWg46eUK3o4ZGdLrNAUJFhfSxEpU0C/MFAw6KEiL2Gm9TJjkIvGSD0+pviDp2anIQFylsxC2kJzIkBTVVvRAGLYgBsg2GgakYldMWIfKVx5tox/wME76kLEHtiveuaEEf9KUTFMh54IiG4aWxkMS/tNLa7hECJhoqF1Y2M94sA82/EDj+Sed8TzRGQ/XSygcoSlwIlpNJ9ZbY36hHhrSnb2pDNgdvnpgwTjX0lzjdaUYLptL9vvWvZZVFb2KPBokWVOcCXiY8aIdJabkisu27qAzNhwfOiSDWNZqWqADVtZokhldhmfjMFk9W8GxnFQUS9vIpFUCNIvwxAQsEz99tkebBAsgo/8ckjYZjjcEqTxgQCMIplWPwcIjK3vj4VRcx1PReEIhxfqhadQaT6y3GdMMdTND44ag6TiVSYdjb/UM5H7MArG6LzYoDufXSwg0izcbhpCJWxeYKRmAIROgygzral0mukHmIG4gC2t0lGQ+J4kfoUTYMgBCxljkFSWE4njxx4DZqoGt4qKQWMJjo0zaIx1nRzijKD8gqp7ZJvT42xGCLYOXRqT6aAxJ01LSMOBNHtpgoKA8SMDX5sJjSA0g3lxAvD//+3+KsSt5vrmbC6Yajy1F3Ydarzo+dtsqyGPtbl4/HKuXifP0zrl2FrkhpUwvG6aUTRSj6JX2kgFQDevMbshUpxAbRiQj4d3yqCczcDfPpCNnJGn9Rc7Tch1wvEk6YjWNsXbLKPCir4SBjvhKmLg2MJ74mR43LcDJAXzoM5NhCL40GjSVINGGw3rKFFlsPhEqcrGhtqjx/O0/A+I6NjfXeD58eqJLbZ8Pz0+41Ibi0SKkHcY0Kic9Ym0l1kmpWIwn9XIm4z6VSG/z4Q+3JmxCAA9qqedtwswMsXih50XuSr22mRJrwxS9PqYaZHQYCWuWVBp8QunxkxQ8VveEyEVWmvM6yVagrILSarg1JtUEIfsYBDd8fEEv8kI7UVvsFmDiBx1RpkFkQCYYsSuy2BTJtjYGNhefIMBHcuDcYxjPYpElFWmrak+3OkGM8W9vPDFj2yQ+fn46/Pzh+fD506d44HB9oXakimLgsc4iZ/vEKRrX6fPAe2A4udmhOax3DLAa4eLEcLFxOFW7eaANP063gRFTAZncGg/OiqyxUZrJlF/1ZRdqAEU331d8jFXNVpnikfxBKraIUqgar8QDkWgpOIZkCCszNDSjzcDnsdCp6WBseISJjYEksTkEgo9NNApuFpBLU2EoC30zAl8f93SvNTwJDDZgPiSANn/5238p9Cq2N3nG88unr4ePHz9SzYSiwa4iWkZpvwVxYhQIiMLON6idbGUgz3ALt4y/1p4YirIsjoGgyXIwPuQD4AqwZNVxqlwPNVjJjLmjIMoiUZkjyQpxxuBhxmNLNR6ZywN2Y6uDpTdFjP2PEd6CqQQlHsmW4iyGedEPGYi02NJmo1s2hokTzsYb+oeI+Tk1idQ0hAexNirdIrjYUKwVNUxbkMAknTtqPP9p0Nsnb67xfKK72nDG8/GTNJ5Yxiggs79c3THfSg2wSqKM94dkYE7e1s3ZyF6YFR2DZ2n4CWU15oXZKCvAwmsmz7TdYuhlwZIxKGTJF70EFJdpHO02Y6lgVamqU+J1odfFOF/k3ZhtoxGEl4NaANGXsR95MSAhmC9rAZoaHs+Bx4a52YALWWg6xlZsBoDgQTGAx/GDZoZstZfwKMQKLCxbOzoN5rEtBsRLduhEe+NBsjf8aDUeW8AI39QSRivMSMtnBVNXYWKNnG1kojyVI+ZDxTSsbQqvqmPkNjsRW5UHqd8E9RpTePwcxMUxYPiRhMWefxsw0emIcBaCCeXpFrYzA9YXjJk7zMQ6KeQYmGAejLGSwUjTAoSY/B/rgqDUFvgQJblgtTWSLHWUOEdpGurRYGGLHCgH3zoNLP+HjB8Ywywi8VvwEMm//X2/1MbJ2erTUONBjcUJJCqyViekoJJZ9Qk+6FyekOenWvFozOePaFWPOg1OvQ7mecCahDUifzFTtQIXxlfhMZPDRmTxoNAANz0oGI8I2hwkwWgonIALYlHCQB7KFnziB2VMloH6fPeVJiXXvKIP8WQMRg0kADmThV/WV7VEAiIll2gCguWGwEDF6SU2NhVyCl2S8+3PcCC2hBeGMQ/qG1uxKY5hT26R1hjA4R+FUxxtuSmwLYmPMVIE5ChEzSJ64j/iAR++eZoR4DOWRthCn/4wfybpCRmAipVD9y974+GUb/bpE99cQO/xfPqQ6op2bDjsOG6tJwZsdiY2MFTn2g89+Na2u0F7xVQLxlDQw3XD5m3FZeaDXLnVaJIzhfFWVKsaVM6JX1CJQXZkwM/pKfkxPEEGkbEvHCdVswoOXpJZG1/ikg2yq5Z4HYYfLL54wsP6ZRZ0WMDi+MQ4tRTkdhgbjMhSowGI/iMOxmNLzcj4DZGwK0B4jOYBTtjW+BDzXW4EZHTYatPhLUywGbYWm45gSIvY//b3/wumruZxc+/x4HbqXz7mjScVNtdX3H1cZWnkh5GPHb8/riwDxb4sGJMTcho8cJxCP72SLkRhoQRfbFQtNXwkdlVLbJKolObMcBw4oBkw3Ix1GmYBFpYu0ArQrdFl0owVwlvh6yIPVi13OOyA5DMHgPQ4rMRjmwSgrOlwiFnjUTqMiR8/WEoNh0YISMx0nrVpKITDQxMKjUgbUmwgAAaZ6vKlN2LDG+5swwMNCmsOj4lA49rPeDg1231C4/n4dH/45ZdfeGdypCgsDRk1JUzlKMSNRwYojv2xkQzEHZzH0xTkQB47dBxEotQhkUgrmMhqIoJyBEb7kcNEHEmMFV5SzLCiIWIvIl5g0EYoA2AyjaM8sYJLwzCkWgygiPXrebDKG20GRiOA7XGG5lEcdoxzzskIzljEFo5+6EjjUT/qG1v6j4YDO8EW0+RYfTGaZegdyhX73CoCS2VylhP0YUf/Q4WxgYeh2qMtX5kDFv8e7g+vqBn9+cous/EUKYGcMwxu4YH3eN7Tz5C2Gk/KRkpL4q2XIa2l9Sxu2FJK5caCnA6sQEwzzIvhAizzJ7Z5qVPmJKoJEYdA8sBxDMvzEUjGCb6ImwkYmfEciGUJkCjE5EYSZMaqRsKYDBgihG8xm+Rxqcrmxes08wTLC3WMCTz8B4q2AqGtvG/zTA0Ii7jKxEdoMsTlHMJWPNMRPYj0oSZ5jAE3BislD/G9nNRItKEUW6gGG3fUWCDHeiFbjImmf/dk8/Hxgc52rusyG0/v5hsPakqrkWlbMFx3ytjUFsW3pUc8zk8Q1HFTdctCjK7OjeJEFEDP4FFkRcLpJ26iIoBZsQIjW0sS1YlHgAV5spP4iRdAtGYanqETl6g0EDW8EZ9OBgp/WSDqyuOC2XK/JWeRMnGJkSjhoYjRhAzf0oRSWfKX4cUSPRMiNByeOJmkn4ZkqTyRHv1YJBKgNokQDBoPQyHH/+RNdGssaWksD3De4OANJuKY1QUkx7Y0q4fQeGADZ0loRLjEBgwa0dvXbw5/+ts/IL6qx829x4Mznl/pjOdXvdRGBYDSwiPVcz6+nn0qRXv6eFOuTu9r3IPst3F8A1mYKRhSMZEdiWgw5cfICtIwoBmHWpHBHPOjsKjT5DTVMvOCXtRMQQUxSaJQrQRG3GQAHmY8VVWnPXHpkBd51K0PT4wILxlEQ5DlWZzGBhFjIKwzhDEJ2b52VLGXdEUHWf/6rI2IaLLDGHQcbVjWuYnEsRFLxjAtKEaqGJYFfMTRGDTOlLjhUIKk4ciYaWpA37x7e/jjX/8j2bwSam88KK6ws1K9amFeyV6cEeZIY0p5mGH47FDdays5bprzAh5FViSkhtKQgjIDImVkeAjbDFMVej5AEVYSYY2NAlhlu0aLxmbkdm7gO/UwiDyjy7ajgF3VnwgDWLb4RiybUDsCRFi4nRqP1BCChghlHoGGacGpHeYwL7ml2HW+ug3ZjHzkFzL6rzcQqF25cy2d/SS7IS7HkIFjBRhvMoFD08A2HODj5Tckkf7QfGLjCWc9GL97+5a+p+0f7OKanm6u8Xykmwve080F6YwnHFioPd5z4Vk217QvX0isZ0x805UXxFFJSM3U+JGH3RIGtEnsRPGOc8NQk0ZVNRmWnlgVRkVdnsVexgkLL3OzRbiu75yL/agnbvUZi2jynCgrVzptw4LP3SnE2rAfdZw8+MEGAdBDGgURYYxmInw9S9JjXXURg5zhSLNBk4EGLquBSE0HXDzUtIxqjCiJRGwqkROIYIzlloaYxnnzAY4vtZEMTefh4eHww2++P/z+L3/PLW9+fJON5+PX+8O/fg53tVGlca3RE2/1WQab34HXG+CFEtx0WwqY49gyaPFROgkeKK4vrCpJIqubrDTCtbK0R7kyowiLpMqCFm8CkzahkoOrwIfnpBgMlLZYEFUioQ5hxM4g8mUWGIqOoOTT9HLzb4QGQnwjJD3DYe3gUi65hQGBdNHG51HFBxFQFgOBp5ugh1jkj7bUWFKQURdxIi8QofmkxiO2pYkFe1E/EqTlzTKj9+RVGalz0/h4TDiBUg6JoHdzmJFkGOPsh24soMbzu9/+ePjdn//W87xJ2e01HvoA6Wfanf/85y+hOKW4UMfyyMfKxzaCLLNDSwl1AC9QNDdHK6ZgtmtZJosInJ2AcTxoYOFKmrXFPS5+EUYKVgflwa+sIwBWZcAb61v9JXnCCk9UglxNUpCJQ1QYMJdpldpaVV40YvSUJ9uklet4XDnK5pMDkFxaYNU+rEc6JD6OMSm7M4oxjBt/aDQBI2qQofngvRyhoaH2QbtHU2BQmo4BrMwyzJDwaDasTnRsOMgF54OZTKPx/PEPfzj89k9/NY6vg7y5xoPP8Xy5azUerZasjnlfJtl5du1AxZ4nkAEv584NhbTApahMKEYxL00y98jDMPCZJ4K05tFY/kRPgxSYaEa5YiNDbDOWn8JaanDiPtgJGOYpXrY2iDgLFikuGDK6WOTLR7CnZjEf0wxKfOJ4c7ltjSMa5kUeIyCVy1owlBJspMkXGob1kF4EqCWoCZ03F8FCRve3PeGy21MwnCwmKogGNzH3Dbza1Si1yQDOMs41UfxHUjrL4X/g03+c9fz5T3/aG08jv5ti4/d40hlPKg2pSy3OPGQtjZx/ybGW7aViOFFOYBZTO8J8XbXO5ew5UaoJHwPxI87SiNXoqBJhExxyYegWfnWB1C00bB1Gu6yKJ7EY8exX7bJFxjAqPSUeIBwHRxHtMZtXN30vpKwtXrB5x9DuCQug6NWf0S/C8hl7GsIXPlxzgKJsBM4zwIqDAPqiEZ6zfBEX5wo8O2OeFaHOd6xBBw0m6SIW5j1r02FD+kRb//AxJBn7TUN1azkSG3HCdESGWIkhdoN1HqPBQBYaDvIOOvx/fHw8/Of//f8eXtMt1df2uLkzns/0qubn918OHz7SD8HRZQ6tT6lvGWmty85UBNVRIof3MxfOMHoNYCjcNUxFGwsmHnUz4ghT81UbGk12EBg5V0hzjAVL52doYurCGvUJBzqOQUEXWDYRxhixPphBxkCwBSlyK4Nu0GN9qwsaC63oiwnvi4WhULGo6UPp6JcEuuhhmRRowkMPPPjAVvWjPQUow2ydFVLGGH6jD546DBslngwLApNoO9QB4aTZACbv58C2zIsUqCElubFvfRl2kzS+ybqH0dDxoli4MmNSCT55Q1dmOI8h15x7uqkA23uSvXr1ePiP//p/Dm/ozrZre9xc48EO+unXT4d/vf/Mr4B0/9uDi+s57kkUaBxsjpAD8/JhXTZHEzuoI46LgcEwz47j5HwtgM2vsIkAPNZQGKNwki3RtWORQzEsStjCKLSwjfp0GYiG0Zdi8MIJGB7Lgvqsn0NhXmYPZQI8GlH0Bbu0zFEhcS3JEzjCEwpwohAEcPgvC6COYZcfrA9senADgg5YcEX/EAUe9HFIehM96GJMdlnGrsQK5idmRRMW9KyFjcAiQdNncMAlA2wW1pSWHEEQ88vv7QDIYDYnXpkcemL7QMIE4kC8wZxs6Jn+nmGY80Tx0jbKoKQPInnE+cJA5iaf5QlNB82H/r998+bw93/8FzWed6p9NdvbbDy/fDz868OX1Hi4LqQMUA2Bop2IAr2afRkDlYM0Dk9CXD4vAzumAkmsQCUG9rbkSjdhksyPuFQTsuCTSlhE4mIGO/yHJ8XbLWiR5brPfLMB5GGRpC144kt4oLHI8g+U8av1Jxo/0XsU9P/5C/3HJSOybxc0nRtmCFH+4AVPFjoscrLg4b40LHw6Bi2LnjQeouGDLwFhUcR09XIdVEWX9dUOswkYHiKTAbgxahijBz8rHDnjR0SxT7D0jEWhkWd0hLS5Ba25gobVxjg9VEIaiQnKDUUq+yrASA4u8yI2WOFxoAMc+ZR8c+Y5pPQZHuReznbu6Xvavvv228O//e0f+xlPyN3mNz91Gk+s01BRabz5aU0GGI7lSZwFbGf+8ai14Xm6AUnsROmCIZzAjxsiChqLh7iTRUQXD9kqDwjQPIYR/hNdNAvFYaGUhkJNA3iWgYf/ykMjIZ2n0ExokYSMedxc/PQXjXRFJWUhDQMGaRg5dw8HfIULrX60OOI/LZK0AOIs5Y5kDCce5sPfMRYXUbwRHvQYRSaAo39sQwsT+WV/4hRnBaQoGqARCDD0UBUeUC5FiFEAIKegoccPGoHHYzRqyOQSJIvjJAN8ZAMT6g94dgd/gavyytZiRBUNO8zbbPn9NJqsNp/7+wduPg+0/f677+iXR/9jbzxI4DU8fvqVznjofR4+2BGwFgZI1A0/UKRK79vzZmAw8R1YKQoct6FBBpSFKSwLig2FwDKimR22/EobZiIGzYWyxXLChmYjutpsCBMajDYabihf0GA+H54+f6KzF9BfyJCsiHahDWGlXVIwkshRjcU1sRMV3Kr3ZIYgjCKf2nSkEYGL7xHDK3ZpMnx5SBsOTwANCAbof4hZGw+2MMyLL3sQABoYJ1TEKQ6lQt51yKbRUFhdbMi+wfGMfYOmkxoOma0/ckGIV8FcBYanY9nyM8cQ64ICkhoAmxSDbkCSWZk52w95iLnRsxxsqeGgieOM53e//e3hD3/+96tsPP8/AAAA//+H9IFwAABAAElEQVTsvWmXHMeRLRjYIa7gvkgkRaopiS2pl/fmw/z/HzDnvJlz3vTpnm611GqtXLEUCoUCMPdeW9zcPSKzAAISClVRleFm1xb38M3CIyIjLzzCtpyx7eade8udew+Whw8eLDp47B4ZtbTaAHLmauZv1RFOWNE71LZFLikKIofGVfs/bP2ANRFDQyn0affo4UPvM+KWh/TDf6XUwR91Hhaato/Q14A/xOcB+t3Dh/gcH6MP3rcPedDUWS7I5dwYzHLv1pQa1Yzg2rdGhZ4Qhy8QvHDBjhX7C6C5NRyYISrvBXAXLl5cLl68BN2L0q8pfV24SK2Lpi9/4JhS5h86lY58S9XlDlCB5dGehcQH/1E+tgNLTYkNYNa96T16hLpFPbsUCvTStp5rOCn5870kANJP0EPKPmC2EkjfyiK427FmtEXC+iDGf9AXUacXUX+s34uXLi6XLl1aXn311eWjTz5bLl2+0vk6DcwFVITVzmko7VMq43d3jpaDexz0Q+Cx/uG5sMM+pQzP3WSd7qyKlfpegXa6iClCSm7cfICyf/PhDawJJHQDG1MGE1hpuEBmNtgzWGFHPFPqAmOQEcagAloB5/j+8uD4aHlw/whBC/1PDuAkJh7zbOWLvZct2Dk1hb1qoyENfKIbReRzMqxCzYXNCHOiNEPFggssEYQs8IxBCDJMothpQm3BiY4Ni0KF6wgqkJqImaI+1Zi00YHXo2dbsETWLtSzdrP2kF+KkyAzbiF0v5kkIQN4dt9kLV/1BdD2X9LIwqD17JGtHaf2KiODDutVwYdBB8Hn6pXLy/s//Gh58+13w+upSs9k4LmJwGMrnmP2jaGDGODzzqlqzOezsKrh9aINooFdt9lE3bo4KSTa2DjtS+NqQoLPljKDmEw4rZhMK5GgYa/JxQMOfWs1w2DzAJObAo2vanBy8+AhTnIQaI7vH0pm2dfSNbpRLAe2CTDY9k3YqCof6H1KMdcOZmR9GmwSTZAmEVj5QmsVpIkzAhE8MShh5aOAMgQgCz7w+Ah6LI/LWcecfDUTWwVatoS4ESu0ArraUULILeiQCzXSPSOk7Yb6Um9wzHoG3RJwDiRysbIwEZ1SErmFfQIiWi1b3bB4rAd8tNqxoHMR9Xft2tXl/Q8ZeN7pXZwS7kwGnlsHR8vtw10rHnSL0klOSVs+J8XcU3Eu3qP1GMcyO+x8e0MKK40avEExcbDdIcGHcgUXnVk7TRkmmoc+iZmcAQb6DDYMPLh89uCBfXjpjCsbrnA4Jc2znEpR5yM7boONXt33Cj3nBqvgqrP9YJmp29ToZpCZuCkpYARKGIHnEiZLpt0qSAHIJlYGGE6o3GyFQ1yMYZqAJVWGLTdidrCBaZWphgWutrLUiwT96SjoZHPz3qFsRtr6C0XMA//Kt/D06phI5QLFnZuVL4MP6wZ1x/rRZTaseF555eXlrXfePw88O+vxORPyHs/B0cPlGJOENvUZdJ3sD5V+zgr/XBYnK24unYt2aMw2e5F1p10erTF9WoLU/nMiUOBgXjFZMIDwD3x8KNNkwqBCuVKuauwMWpdrccns+BiXzRhwdCntHoIPLqWBty2mRGdbiQKwtDuAXtS4XqnnXGsVbB6+F+WHMk3dIw4+dZy21Q/uAfnKJS+zlQBkl+jMmbu0QCQGHjEJW2CKo4h7TcarreISG9qKjU4sfI1E4uHOU1j1CFhhDpO2ftFw8tKhpfQ7opP1zp0rhVHdgWfK42XAieDD+zsvvfzS8uGPPl5efe3GqqvnHTyTKx4Gnrv3H+HSB27msoW8U6Hf+MZOFXSkxNgJJkEo7ExnfzvV9wp1Nigt6630bxjLV3rwXk+PoxC+t+vg6R5n5Mcyep4l4VGulcQmn3ZcMUGoWlBA2sSlM2ppwiDOwntqDw0QY5CxVPds/H4NA44eEEBwYYDRfRusbB7yshoDDhujK1zHqHAzwsJItLGbhRMyARuuCtybkKv9h5O2PWRQ0VCZZK5EXFsmIDiB4szdUvK2AuKZfAQc2Q02xGRGn6xXfOKxB1VYXJZD5ekSG9uMf2g36cmfPHdlqoxnKYi2uTkpDHTIok8lzr4T0rARFk0q43S7SXhBVFovNx/AqJfaLl++vLzx5pvLJ599vunmeRecBx62kHco7yc2AXUth+7lnamDTwHDcdpvE9CLxa0f7F+vDjz/UoxCrpQXEAo36mhyoHbIoGAY29O0mcZHeoWPVY3u32CFw4cBHmJlw4CjlY0upWF1g4DTJjwv3liYqXTqdq5cksmuyET2Cj3nuqtg78dUTqDYm4ErE3iV+SSZvcuJ1AZvEBAGHF42ihS0pAoojCtUpiV1KWLKD+wyz1Z26kR7slb5BCEaSXZUl03bFT6dzYTclz4FXtyQZr6Bw5Mw2dOGmzMDKdHaDmXlsdu/pbrMhnriaoeB58Ybby0//uzv1qxPBXYeeNhM3mlsLmLHbW2XHatBLwSlAb1xJPX4N1SeEewV3ye78/LClibjyLehnildsF0LLgPwumQmqezschoum/kqxx4U4EMDWMlA9xiX0nTv5ujecv/ooJTNSpDlSKKo1AnI4UltAqp90L1Sz205DlseK7dVq6a0SWkG76QdonmyIJUPGp3P7udYyoDCTSsfdUyzlw54/REaA4/8yRQ7Pyo+KYh2Mg+00RRuSgJHPuxL6lXjvUWuRQPfSmlt/SuN5dBLVZxTsWc7zguuUur4tLP7Owg8lxF4rly5srx24w0EnvMVT1d3zzvDS22HuNR2/z6falNvUmpzGJDsGJV+3o/qtJbP6j9Kn1UfwFraGqgfw47LB+hI6YIirUpEk+FzArxPI4FkFmzw8ACDkV9SY8qHBXQ5jZfU7jPg3IWc9298luhLwewaAvdt65gGOzVJJ6Ca9MKeg94EVNsQ71HqTZyLY+6FHaq5siCVZyDID76TQjXwrMsaeGLVk9/zYfihHlWlzX0tP8cqVjloO/+ykalKfww2haeblc17j2fR+pK6i+cbJ6WREu7tooS1nJ5ZhfyYajF0rDpmHjLqxu/xXLqMR6mvXlt+9U//s6qfOvpMrni+Q+A5wrxxdIRLJNEPOFGJiRSdxoBT16ino8CobK/8aIMTlZvtNCoKaLgFEyo5praNdmWKj1Y0pC342MrHeT0CjUtqWuXwspoFnOOjQzwajSfUsgBJjCVKPjWSCNEEhKC5D2RbFRq9sOM6Jpy11MR7lJq6UyuzZNHppAwwVabAAUyBhk9pGY1pFbNrBB4aEGfCe0A28ZIwO/Kx8eGBtrEN7elB6EgJNhRPtIHND/m6oR8EC0LclLKvmFLIyaVlOogWKkD4Xk1bmUWhkDxuBmU+GXjp0uXl6rVryy//8X+sWp8W8EwGHq548P3R5QgPF7D3sEtoMlLfKB0qetZpac3nvpyoYPt/vJJ6O6h5qqW3nSD5Dec+/CUHrfmJ7WoeuKJRu1MOmg8SKADhOzj6UicDjz64rIZLa/z+TXwHx2e0Voq5UE22Qkm9s+mYyaKTdsykCsAUJrUJ6G2buFGpEVDO0kmkykhMGgwaVPLgQS4fJlBwodQmV1MDr38LPNUujnFK1Ya4t0NPFnVKnkJNlqRKZDqS1B36A1nsRHkdRP+x1HSsS0lRDtzSnLmdMSfcW7GgjDpiHajuPPD4Gwsu400Fv/rn/+OEDp9PtbMZeA5sxXPvaDvwRCd7PpvtFJXKRqZPiY9Zbg3cbiibA43zMqo56VASuDNsQ7Wj4+IVc/jGAJcp8CDgIFUQ0ioHKxwGHlxWO8ZlNfsejpzuPIDUmInJTiqpF+IJCEFff9tqrr9eZ+lshZhdFiRITYo5M654MWjS4ATKKd4DDzm7rMbAwgmWMj5s4JbE4EoPExjR7FUTViC1rbIEz7MLfuSPoPmYeBOFVNbjLmuv9CuFIGZjncxSGLYykNG/EbPTEel5P3QD4/itblg/WvHg/g6/OPrFL/8Jr8m53NufMu4MB54LdqnNO5dNRGw9TkhDhzpljfpcFDcG7ZMUhg3gW6MCyGnBgMhnLSUmB0zxYXARZjzvB+g+D1Pe0+E9HH54aQ1PqjHoPHxwD/l0s4IXZHfi2Ral6Ug4T8VMVfQ2Qel0XjpmcJFT44DvsNkWjZLd9ZHSCCSc5hUQTGJ0CzoKPHzHG4oqDeqSRjAiIX0RcSwojzUsEj5I4O2JlFnK2n0QIOaoOQidcNeldqzaMxv88Z87PWJvpOFEvRyETS8SGQk++c6Om/pZX378fE3OJax4ruMy29//4+m+v6PjQ8U9SQ2dvC6fQ807h/eXO3hzgb70p35lHVc1gR0r5AxWy/dqqadVXzv9eNtkQYP3NuRkhH+2ntpPvqJ9h6DDQCN94XiPmoIN3jTgj0jz0tpDfAmUE9a8EVNGs2gF8SK5ZLZLJInRySzokI7pba0399iuou9wNTjZZm3iDzknfvto8ndawYYhglEhVjskWd+emow6jsslVjXYrJ+wtF5iu55KU/cpT2SEZUrjzh+BupUay/7EXJDP2N9oRpi72ApJaGBDq0tZ5tyciTpj6fPBAqx4+MaCz7/4VaqfVuJMrnjYWF9+excPGPCSi3UcdmTR3GFbmwBdJDl3HBCPs63Zj1jvb+y26xmyHKOfxy1bn+8OTvXFY2d9sTxjGXfYbonkc8NPwj68xRvIfbYTKoB1YA8LMCPjCeYDBKRzlUNlu+TGlQ7fYqEVj6907PIa3OAQ12udeYwb86raVs5Oi9kK4L6vvw4xpc40LAOcVCYgNMOyKBSyaTVqj7gpFsqn+KywLrjgWG0y9fs2hVdQ8A4rHdYL+pf8ATeR1xUbWTWIlO2p/HX9VP7JtifhwNCV7TKljjAjuDeX2Rzmt+tb0vH8mLXnzCRpOXrSnWVudWblE41F36UL9kbqq1evLr/8h39EnD59b6Mea+XsBp7vEHjuY+JhjeAJJ1yEYT/GR0imUWEOB/sUU8vv+ztkx929PW4wmo/5aZXVyyl3O4Yt5J100FdbBUZdFZjtaB827nrQsfs50iuPSyvwYKVz//5dGu6uzBNIexezPyEJJ5GeO6RjqNKARrnpBBje4EZJMrDuZUr2qcUET0ObQNknLXDY/RrwDCTCnPaHC/KyGmT2T1upK9XxqgBc8bB9CWMnwlZBMWmfOPBYVu5f3nJn7r33MRvl1VLLXYK0r4TsAdhRVMkOWuVxCyT6gi3qSz+HoNXOK8tPPv/i1N/fYQ2c+cDDSuCjtbsCT5tAojvRam3b6mb77NZ8PS1sq0y7/D/D8qZrH9RrxXCdTgNY8kHXVI0EDaQKQJDx/g0nJsN4Pwcg3x4NnN9u52tv9FMFWPFwJcTLbMdHd7Ty6Yu1qw7h84SbisgJbNiEJJxEp5VoElVsYCfqmKrLeoytUQUM4QlSr5eueizQxJQbASgCj/gIPng8OPh4lQ4zZWDyf6TigKKsKi7bjgTble1rgUh20OU2BR7h7keui/8SGuBR9pYV83OEpIGWUkuqaZF2RpS9FakA62QcpR23lw/ltrc7XNAbC955++3lg48+Fb3u5fSgZzbwfHXz7nIPKx71J3Qwe6SWfc06X0vZmIadnmZ9Tku6NljHoq7pVAx0NwmEjJME287l3SPTkmF1G28jAK93rSHg2EMFkOmhAv50wQHnm9x8Lkt+F1HttvqMF9fdlIyA9DKq9PJEZjh1O1HH0Lpts8iRWdCMOsomR4P62bUFG0oxpbIS8dGfaH6Hx767QxmmV0YLl4dNTUGrclk4fHTiYDRPGNp3d6wcGXjEwq/ygBqLwT/HgQhTyh3y0OH7jlmOfc01zER6rpNORoI57tmKgrRZTpYZHwYe1hWfZuO72V559bU9zk6H+MwGni9xqe3+sZ09ccLqAw8nMWvACECnozmf01JGXa5MpFOJY/CHQLbDhEAZ9UImGoz+geuBAcrtk0+v0UAYVj/xPR2kvMTG1+DYAwV8wWc/H0VRHjdldrYlEYBSk88yIR3cMWbL/Qwn2Ik6Rua52xa5REk3M1q+CRnRJvN+Yo+VjjLUZBpPs7XVTn6nx6doTripz0rKvECTV8XF2OXJI4OPT9ZMPYhZO9oEHnRNZUR9fHSYvgta/cc6lVTRm1JROuGgYwL0NMs+4B2rcGMI9CPoRMon2l76wXWsdn68vPb66XwbdXe4YM5w4MG1fD1cwMnJLsvYRMV+bT3Jkl29aqzOcz5rANXWaq5RKR8J6Q96FetoazObCIxmI+rPgw7d2yU1TFBc6dRgxEen48MAxPevHdtPGfAVObbZjBFzoIMnSqL/bCmv9SsdeR5+EumilxM2ndRMIk1EsE66bWBDtgGHeCONOmI6Bhyf8DXTc2J1npfXgtbZvGZaTLZY9QDncckrYRZKwQqMBxemOibxOGFke4E2G+ZBEwY1etMONKUuC8xTCLwqvaaQp/lHqoYacBmETTAnSFmEHVuUlSqkI+hwtcN7PK/gZ675brbLV67u8HJ6RGc28Hz13aE91cZuhs6mLxBy8mLHU4dr6elpzr9tSb3avBCcNU6wuZoP72bAdsBfbNEmhISrrUxOmQUWaoN2WcP97FjBh4GI39ux+zpsdz7B9pCfh3wB6ANNWpHv00itXtqxhE/DyfUycQklIbNelp6ah149FKzOkgOxqVeVtmibRbX3XZ3cbZJnIMHmgUMTawYdu8zGSVUBx3XMgNa0M052UVgPNhykCDk4Bvv+lQKPgku5vwN72QK3S2/Bh3/zbBz7jHqO6oXe7d9SlwizUknDyL37yGePYpQXaqpL8Ao6LD8eLHjn3ff1+zt7vJwa8dkNPDfbigcnxFPg2ZosTk3L/rUKGmMz8wNw0k2qK4NYPpufGnQ0CVCuBrIJg1i9pxM6hnnQoX6scroAxDcU8P1r9nABg49moXIMNoEVYCSH8o7i5KVHDsSwWX8j2Msa3mSpkYTJBpZgt3XyyKcHd+ibKKdRDww+jdtk6WfqxNrlLiqS90tr0rGz+AWPCceZPQhIqJo5kLSttrWCD4MO295WrhF4pI7VAddU4af5Vym4g5yBz30raf1I1UHfwKd+FyY76ixUurTLq5Mko6NmsVV2K6PqEMdzBa/Ieeudd5cPfvhR6p924swGnq9vYcXDx6nRiXh/Z1zxEB8ngb9mY1v+2znmoNxWeaaSuXyPORpd3YZ4KarXe3oDIZ2KI3OtZhxjI+qJtcQhV3ChMa0t+KCR8c/JiryvfPwBA15ie4SgwzcX2OU2TAEnmDBKyScSWWPTbpJJsiI3m9muV20+e9zsmhR8x1C+CjV0RV9GdabOejHCVjuYNFVhrDcPMsH7SkfBgDJf6URQkD4m2LqJiwZgpSjgMGXb854OaT6VeIxLcuCha/6sHDGBM21B0CZ28ty41+HSlfxtpFSWIglu0jZy516l2KkhoR96LbO9QNXq8TLeSP3BDz9W8Nnv7HRonN3AgxVPfoEUnZmTUX3AIM92nnI7tonlKTsu7mK8FuipkOtl70bk/nxcfXXojjLwMSHkYNfEw2wgYYHIk4tAQ5z3dBhs9BRb6CD1wEO7DEB+j4CX2PhTB7oE50GJeaxtMW1Zzmsa2xiLPPo1bAXvoFaW3oXhPUZD5tJsKmnSsRSBPk6KqTI7m9ERTHjOzmDAy0Wa4hUYIuhQ1yZV6XerIc/fD0iTMY+E7ZwBB0K2kR6J59slLIioLMrHrKIshruOgmBYMPVaon9ybAzlnRLxrkWDlBuze8/qcXebilZaiKFby0ya9ffSy3hbwc9+sWl/GgVnNvB8o8ATwWZ/4GmTw2ls5qdV5n1DaEc+OZips+JHUBnelQctiTeCTUICEw/MJg5q4y+CkSYV6Cvw2NmyrWxs1aMJTTKsdjCZxWoIhMraXtBAPjY/TQ0206qToA7ZJCtyQKOs9bdef8Ql7VW8TkreIJuKUw3oFDdg12nHzAnVNhIMJO2DJQYRrWxES2aBhsEogg7puM/T7M2rHWcpjdqSl9hiteOrVzyNaD9vTb8qCVISzjPFH+MgL7FRJBkSecfOUuszUVHkgiYhHStawQPYkTK/E2wqI4vNP6YemFk/V69fX37+96f/NTm1Gs5u4LnFN1TzLBdBB71834qnDfhafd+H7rry93FUbE/Yy4vFfvJ7lrOYG1mAyNyhHN7ik8NAB10xrWiIAXScvxyKyOKxwmQKINKhzNrYzpQp52PU1AfNy2wMODm5UU4ZJzmamr0xnmUwXQo9qmpLwsybIBQmXNkMtmRHXJ6be3h2psNkKW8hLojhdd8yAdr3I7pNRERy8hCTpE34sZJhaqseyXF56wLu6XCLwDAHHfo13/ZKJqljZ+3BEwdrcz7Jxva0x+CpSzsFL1LMK3jN4gg6msgppIQb915zMBcVKcWVdp5J2hhzgn3kZ6pW0tlMAVFlhgwMak+Bm3X0q3/+Z4BWd7Pl6UTOA88JAk8bk1vdZq3xqfs8bjbsWsmeYTnhunlvVMsblMM5eVIouxSAFSCBtQUmIJ78CjdLBg0hVOC/AoeIpseApRUNUw860OeXRxVkSAunfz+zZnnowTIWLchgkcjFN6dcF1YqS0jlh0waJAH/ncD5sFzXS7QQgxvPyhVSz/wObGS2J43AUFPSmCg5qXOC5+UsTfQMPMGbXJMq5E3fbDjB9lsrndU9eLaNgo8HHqx2+DCI5U6XmLDFMH+yUSbiUUbTa23grUL3BJWtKKdZKueN5P7xN2Yv38WUGDaU0lIlXmYcCMvMuvzVP53u397RwQ27Mxl4HmAC+u42fsLYz3gfPuCqJy67oX9oAmq9ZJwUhjo8Z8caiPErvNXjqNYG4jiw68AHLReBmT+7j8OMKKcMNAMLU8cyJSrMg02cOQcunpEsJrYSdMIX/Q4bRNgCZx6hAIJ2lAkzgZFGh11nQ29FP72FSeYVetQwYfNjVi3v8JKaQTRBeukgZ3x2DE4TOJk2qZMWgiDDmd9WFzhDx6SpgKIgFPoMCkHTDvrQI2Z+8mDBx7Eh1QkB6xhtw/tykPHt4fziLzf5jLT41+qHvMorBS+te1cWqi0AntJhhxOwrWgE9L1SlisKZMfAuuHxWJ1cuXpFv7/zvTJ5Do3PZODhTyLwbTn3+NPX6Gy7Ak8b0DYInsM2fD6K5NXTaqlRqwVM8TCUgScSE4F0gUZjUIcTER1TR3rgusBDGQMIVdxWNjLWpVVNYvQCuS7V+WqIPED7lw/ysTVaaoJN38yi9IaZG9CuLGuVAxMMYe1owynIy8mZiPpKaAHC8zF7Z+kcWysHaMeGhFr6l4FxQZ4gZf42IUqZ2XIxo3smJuNs2VY5RvP7JzGB8sxdFrwM5pOqbIgyYHmwoP842iiw2i9PDlhHdlmUv5XUBR73YYEtLq8xP3jEvx6jZjFiU5XUevHa4/FFTYo2g6zbYh+kCk3dVvgU7SNQQtnR1OqCZb+w8JdG3/vwh8tbb7+7z8Wpk5/JwHOAwHN4/6G9Ch+j9jzwfI9+W8et3JSRuuXWVbYGsnDpxESA1Hm6VAACYBBlpMEh8GjCcF0FlqRNj44i4Nh9IfCY1AKXH7chRn/NJ0jnNVOEnmmYKO4zsUQu78orexooJ6X0SmPTd9oS7rGFrnFrvLSUn+m4BVVzK2TBDW2yeebUxC0vPomDNsx0NdErsOAsXde6bKVzgT/uxmAQqWjo8I80PtiJ19xLvmzkdBysKwZrpaD1yLvd32HgcTfFL8thZYx87EukzItbevZ68NrySrA8pYidy8i2SnKyAKGutOXSwVsM1FUypl4fPKZr+NG3n/3iH7esTjV+JgMPVzz3EHj4ZuJjnkntuNRmk8FWB3s6bd8mnMfzN4zTxzP+ntrrZT5BPblKGc6tJJLVSSBopJEhdIg23mhiGXjoke3K1O1MH1gGJ0q50vGgE7pajYjxiYZy8kxAmFMDcs8ymEbLjxOlY7SkqVZPoUeeClKiRvoW4rtK05Kb+RU18DMme2lh54YdFrIutYnTIKOtr3mw4DQpQDOl0eBtkvdLbL6qIdZWPnb5CIppb27Ay2dXCGdQM2wj1hDblB+2Eb9zhVcdMVUJM39eugt/lk+93GbK6drqnSwqRW3gtCUCSWob5YE/UVqqmKW1f5YX3vxY3rhxY/no08+fyP3zbnRmAw+/PPoAnZhnvce417P1VJuN1f1Ddauh2ySxpfH0cXXep+m2H38bnk9QR66SA7h6kqxIgs/UjCPgKI2JlCk+sq76hLEC4aSiaaXTg7bskXIyi7IIoztOdticj1R5mMD9SskQ90dnVpaWhxDi7jfz9rJ1ZZS38OEMPWYhR9nMp1UcTwCRdr4CbGkGFkDWn2ymNLxdGovLZLTUJTRdSouVjq98GIR0H4eBhx9p52SrSVcgBfauNhZblx5ZMWAUbJSC17g90hsn+N0rPtWmUAMfDDK8x0Sfutek8kjq+TFv5uKbCLVWgs4hz9Qqss46vDxByjL5BkKcp6yKS5cvL5//9Gd4lPrl0Hqh0jMXeO5jdXP50oXlW7y5AP13eYCJgMHnAYIPAxH7GjtcdLpI97V67aP7dF8seRmcuw6M9Sr5ir5DMeBN0bWVtPZgAxnUMLWRGoAYM2ky0wfoDWS61s6hx4FOnJMbJwCjMZkJN39dmQQpI1LYoMsssGM2F3S5zctCvzRW/sTsQxtihFOe5QBobuXb5AYJhpHKKUs5MCEKbMfn9kTbQSgvU1TuIJseJ2mVDZ5j00qBX2ISZJN5BiT4tctXFlQ0dQKzwILUA409OOABRxh1PI9MYc2iiPcyqWIEoly+4kGqMuLhAj1YgPfr8bIby0efegoMaa5wcEyJKUsqxtEhZf2TjSwbIXBbRqOntKlIVi6UXFXAY+Flto/xUtDr13/wlDJ6vtycucDDJ9oeoWFv38GNSQYcfLjaYRoroDY5qG+ixbxnkmrk89WSf5XSPMHBu0mzbJSKnPKCi4xJwXBNqDQAG6uYmJBNJoEUmq77kBHoaDxP24RmeWgiCh16crrNVa5XZCBtk+5YZq62Gmb+fPIMfc/DZCwj3bU07T2b5MOu4EkmYeVlmKLP3Ei2g2oijAvbLOUEyGw0kdNAKwkGEcp9gieeqxlNnT7xW7C5eMlS2uZ9lrC3bDzPkvixWcFQFxibVif2vTt+74r3duxzpEOxQIdSwXesdCK/CD4sc9u8XQioapwXDSjLoJzNLGTNSaFcKKTPpyglyZqqqqo51ov+Lyyvvfbq8h5ek3MeeLLKTi+hvoSGvX2XnZaPT3PFg2mMr8ZX4LEgxIAUHc/6n3Wq0hcfsxJqp3xM08dS9878WDb7lL9H2d20eWhU5ipongQoN5HZRHsQjMAjHTWKt5f7ajid0LeMzKM3omFuRzk2noCwBs0N9l6dOUlIy3bNJ/nin5yXyWDKmE8EIdMlH3pWpAhI5i+PF05M7nYUe34qg/iAoBObk02n9A2WB3oWQGgQR206EVh0+g2Z4oQ9xgYagcQDDe2ky8k+VzM1MBmdNtRR+cJnKZNw7nicVng7MSDEOmD94MOrEvzCLy6x8a3icY+H5YhPK0vDGDy5cS/vloW4yqtmAGS9pd46Rp9PvPnho5Rex5ayft97773lnfd/CNdrdfTEOT43hmdqxcM3FBzhsf+j+7gpyT90qlj1cLUTKx5iuumMZrIxYL3P6F1tV3rpLrUXXebV0GqjUd2hC84hbqKKOU1BTsTeCMG3ydvz2LRhe7sO/aG9OZVwCx+ihQvGmG+DvlEmS0/FZ/ijWx0VZJEK48RpBDMVbeVoZbAJ1vOQb+hlHqS9bLQWbUDFlUWo7UhpY0GGSjZJ05uOlRM5gw3vkRBRXTDoUK+/xxMTvqXUgZxWHgy4IupWHfLNPNc2lAAFq21iPC+J22PUaDycLPKpNj5OzXs8Vjzm11Y7DHrEUY4S8CJH5GBkJkmoXSRkUUKPQFNpjBSfbKd6pSnLaTulV65cXt5578MX6qWgYw2dicDDAcagc/zwwnLvHs6SWAvq3MDBRfDhKqhdeuPEJDXuCy0yseDO075KfIz2YK2kVOiGtle1Y9ZQwlKLjUmvnlIoku3p7WSAlAzBRBVbTPTGhy9y9IPeAD+YB2wmY5obJ9JkpNc4p1gQKjFVeQynX2HKw8vJ5XbwpC8wb0Ish30oNx3BqW84WCJUkR+msdE+DsEvl+kmiulzMqYZJzsdrw6Msx+PkQcJnCz+MGsrtVVO09GETplsGGyo3eTmy+TyBFH4jzzyOHQMVnbVFUk7MJQTded1xZNBtVG80FVfIPVLbV72XO0oQHog0jExf8sj98iXrZEb652MQ+KSdkFRT7tmUqFNuisGq0z11tIf4N1sN956Z3n7nfc2fZx2wQsfeBhUDo/w416XLi/3j+6h47LZrYPZAGfwwUeX3uIhA1vxUM6tpeKEfZ9dmxR2ezmp3m4vfwVpGYyNbNRUgiLqBz41TWhVH3Q1GDF4EISdp5ZwTyzk1bcHIqpYd4Aag4PpMOEjuap/gZyoeTlJ7jh/QiZlpTaRGiaaecqVpRhk4IEwZSLagpwwIpG/dKjh+uGHhsS4d50oe2ASlp2VkQeITYkKDtoxgZj27M6+KVHmAUVmHni08oEsA03odBht6Z7+RWilQzowmKH8kSdzwAbevkhLTdaFHbtEOlZ7RY7hqDfd4+GbxHHJHJfbWC/0r1UV2k2rHpbLg4/lrVKoWF6NzImmuQUfqQnI4VhU/w1Jo0HW8D0UqwgbSqky1fQqHyz49Ccv7P0dHTcas1S96uKF2d1FwOHTajxCXkbjZkdrh8y9eOx4UqVLbaBlA2C0MVt54W7n1nR3qj1Vocb7U/W4x5lVYx27buCCNfMi0gCvOpKZgtVf0NVoBUMJshtL7J6jEbiSQT4c6zZ5FX9e+jzTlpYVyurTZwgv51jHma/LuwT5W3EsP3EgI8iYLcuGP3ZAU5ZcRZe9DOAWOn48TMyXDHIyDbnKgGK7uvnl/OaFt5MvLykxfOJP52XgGHjlmDIPMrTvL7MFT0388ZIW/XGjW+3Mj1DZu9y0fM9jI+nHk8fJkwFi+CDNFY/f49HDBQw8aF/mHZfzGHBy5cM8rTCeV0kiO0HMg/8G9uUxG5dUpjhrpOk1fqSyBpzIuvFyvvb6jeXjH/9kNHuh+Bd2xaMHCDCYORh5mY2bJ0ZrbzvqUGZvqY6n2+wx65CpS2aPSqJ46f13gueEiTnhiYqzcsgrEFyvo8qzE8UQL6WR3JSsrdwASdMWY7yLlWfVEW5tn+WhXE7TiMPc/Ziu1U9OC20SLUVsOs2PlbUordSB8oaiFc1srW+RxkcyyBmAWCqpkPcTJulQzXjmZjp2YkVes71SGYsKrEOyI8SxIgWmoOEyCzKUY0JnEKJcEyP2umfS9C3YkGeW1KU67/OIrDuTUSG3OFYCKGUcNw9OB0g5QasL1oe9Mgf3e/Bk24Pje5Ah8Hj5L/FXTctKx46J2dY85Y0Z2hbZRh1bIVQWFafwNDCsp+SoCcRu7kpRolxRd6zrV157/TzwbFbecyxg0NELQD3w7O0PUNA5MVN0crvPY2dYdpbFgx0GCJG9jp/jSnomRdtRIYMItdmXIFkjrG4dRNLpQyh+sDGXrkkH3kBpK33u+LHRH6sPFsYGPynbbEKlG7uUU3GbDEMvs5IPzzbUkSpjLw5KEwpIrUgNy0mWOpQzoRYJUkyUkuAxSMoEH+ziIEBKEjx1fcLL78xQ5jZxrDaB+8pFthZgYtUT/m1Cd1n6Jo9yeEaVJqrN5V4UKyPLzgOIMttBClN9RPDlypUfBh+tejzwgFa5udLh6mwIPJrcI0MVwrIj6bUnNOrWi2J1I4mKJm1TdLAhDuhAmnAnpVKZBsoWZWQ9v/Hm28uHP/pop/VpF75QKx42++0DfKMZJ4VH9/mqe7uEpkZS4/qQwIhQRy2txw7Ijmc2DDoReIjbh+rZOZMuTs4suWfAFbGRBYg6E9TwWs9U0QSUuqFnbWawY2bIucMay/nQCb+ch1LHhDGnOseE93kYdEDZLFpktKaX9Y36rcyZG5SjzK28pFIX+UW5hIERItxsdAzauYxFMCMQrUymTaGj9RgKbasTjok4ThE6ZjtuGy9UEM9UTrmnLv+FmJyycTNxj9YCRr34is6OmeqgFHigzDrgxy+1tUeq+WSbXR5U2l0atPLRU5RRvs0199qsKPRPlnkF3miXmNzEqRds01lHogwpjbrzYl66cgU/+vYPKX5RiRcq8NzEl0KPH15c7h4eatVig5k9CM2Nhu2uAfvg4dmRj2G1sTo2TLjSUfCB0FY91hPNp3WHatd3ENPtsafJ4WD+pttjHF9R9RqcS546RUNkCmzSSUvgKTLaWAezYRxlognNRzd4Tj68kW1bmQ5YtYJD5ipKrB9VhB1rf2vQVw1E9GD+rag9HX3M+qKXA4pOafLNMhQ8sQ3CgkgIWRdedg4OjRE/EuEuTxlVQk/a3MlOe8lIYZO9kbv2OiIdVEz41AbAY9JxoY2QatNqh7iteB7iDdV4Zw7++cDQ8fRAge7xsID6V0G9vJYFfZpn9+9AYJYtOBcHTrXABrIXUMjN7UV7MURj1/WcKCfq7hf/wB9+e7G3FybwfINX4BwdP8Tj0vfx7jV8s5mX2bgkR/txwMUZETvkJXybmkEobqCC7DZ2Ov0+j1Y9NgjkLwaB96Zk07r2sgT/xsRwcI9Vmu95PIO5saugl6poiCy6XtmpkSJHojEGnI7tvgiHeQqVHyc31U7bUdkmqPBnM5fpeSk1ZcCG3rJ22Ylk200ngOjPlWHRT/7mUDpWIrkwz3THvheZWj9MTniVh2RMs4QS8EQrtiwpy6dBwHFi0rhHo2OVjQlMHkqScreyrYLQywMqZDm2OC561PgF4JVg93aoi0saPDHE93ge3D+kIsrdHi7gGFezobA6RhWlloc+mUHbjDVcNOs+xYaTXcNSrZP32lWHdKt7k6ikqOef/vyL5fKV66P6C8e/EIHn1p37eBvBPbxx+lg/dXAfqVYsfN7fm+wSGvUiHqm+hN8I4efyZQagSxaA2Cd9xEmf/Qydm/d6OPhrEGuTRI4HzyFy2t1H2kQy68WgnyWnEBmqw9gB5GEllIRBYhsWk0+adBUJPf2v6RcsqrGzNTDmptq+NlX5hIXEKRiQol9P2XBgrf1AC675uh6zghK5uqWml6uWgXr7eOlUhx095kYhykDYCuzaxFw3yhh86Mu0+ZuOpInc50qSB8sqcyYxEPrnLmgEGdBWB0gZjLjq8Z9GeHCMwMN7PBjf7QQT93lUZhRI/3PBMu8oomUHLvKloNKNd4oJNuiUxJh+T425BD3Isl/Bi0F/egYus7F2Tn3g4cMAf/nmYDk4xEoHr0ln0DnGmwn4yvRjdk5+PwcB5CJeDHrp0pXlytWr9sG3g/kN4Qg+OehYK+hM7Pe048qHnR79HR/soqOR8j5XMVpzazLjv+8+54Dv6+hZ22edtIwMWhFQJeEkDBLbMHkrlaqJI8VOIOkmFOpzxLvYBr+1Lf11dQpdquUE4UQ3uabQNeW/akAhdZhDZdNh4jU/L2KW1b9uBt3QYvm4QnM/gNNGHnft+rypmd+lwUqBG+vCvNMxGAL6x045McWWiROGPtbeyl0PwBElRtsAYltRz1OWA7S9wQCX2hBwGHj4dFsEnXisWmXHMWR91eLSTZa4UXIv3BRMUmkKXb9P3JuDRc0FfVLLAonKCOzqlavL51/8std9QblTH3i+xU9Y38IDBfcO7+lVOPfxq6IMQMdMjw6BHyAQcTnOS2tY6Vy9trz86hvLS6++tlxjEGLwuWyvcecVhew6IBjULOhEakGIfYHjwbYkChayv06qSaMVQ5mybw9QP9E+raIxk5XM+rx7LrNOOAmJ1up2ELgLtkt4A0FaZUlQ7WcnFYaxPeMkI4vNEwowxMNSk0H4Yxa8vKOKDr3wE0o+xfkbAqwshmlCZ2baoK+JnVkaKDYyDjWI7NhMYEGBh0gqtlbeQPanzVq6YqPsVQYax2ISx/OLplaOdgTkyWEbj6NJlJ3EPLDICqSOye1Imw8C1r6S66QPiP9KLN+viIiDL5DitTn4sGnie0QKQiw5B3Rulc7MlBUljkhbwc4oCUyGfTNzC1j6sQyHJOu2q96jHFG30ALEen7jrTeXD374STN7galTHXh4T+fLb+/gYQKudI58tcOAAxpvKTg8uLUc3vlWZ0jWhuwAWPlcvrr84NUbyzsf/BivH8cqCE+S8L6POi97ATZ2dnam3YGndSjqvihbDI0nOZ65GmZEfju4Y1TvlnePF4G7cHmqJeGTROHzYAyzCZWtbFt3zGQgYH/QpsZ1JjBOFa4nHWfML5CQpb5NLppEKUzc/ET/yTzNqfbWG8OeaZTbnDBPKyKPJh1bHRSWzjJ/MpSpAkCkXqMToq62GQlJ1KM7DHg7lUGxigoIC/A6SuIh86sPutSGQKQghKDDE0sGm/rwkNpBxbUy15KXXCO3LHbI1oMP1VkeMwvdjutBE+3ae8GuYg76yc++wMnx5V3aL4zsVAceXl77Fvd3Dg7uIOjg10QVfHCZDYHn6N7Bcnj3NgLPd2is1huiD7MFL+E3zT/52f/Aqymu4Z4P7vfwOnFpWlqxA/LzAL/jow7vDiwxvw4VyxeTrHVTj7DV7n5UGp1Bx5g4oSTM8VTRLkdCysqn6cr0E7N2lLweRPpzEAkptnesisAAbEaikpW2ckm8FURlyAlwDadG50smJTtb0YRKcwFkBlsvb4rmkPsOC+Mm7imX71PrjYxjPiubwStCQQPu7WKTP2TZTmhbBRwGHV371mrn+P5d1ZlWOmgrPmhgTebjeTwOupzK6EiRWf5UNLC3aYoTXn33QpOM5QF6DVdiPv38ZzgBPg88tfqeS/rmncPl29tHyyEfnz5G4OElNt7fQQA6uofLbAg89+7etBWP+knrBdGXr1y9juDzT1j5XFXwyYmCRwwlWrADPvSfxyYdtuyQjd6qopbnlsY2vtJDt5WfI8mOY55EE1DqdJBNlT3KowoGPOAubTr7arnFnVlTyAQb0Owi47WJkBNlyJkWJskkLDBKC5jD7UiKnwCbqebPsEnjYrJNViehFRmY20A306ZeVBooamxfBhcIbBTCjHKteizwKAjhRaHHRwc6LAUevVUBuqoeL3cWn4TnKb+lKEmawLTG8T3yNOodmZ3j6XM3wV7x+o3Xl/dxmY33nM/CdmpXPPdxme0BLo/9939/jaCD3+bANV+lesDA7u8cHd5djg5vIyDxWX92EOvCcSZj0CPd8/nRZz9f+HK+S+y43lHViWTGhwx4U7O/xxN+1jtK64Lr8idBcwQ9ifFf0WbHsU+iHhDXdnOZ2WirG/BJNAGytOmnv8aeLsM/lDxMpIhE9A3lpebo2yS5QZZ28mZaDSPPsro1kilviVwuH74LJ+uHWjVn2t2Z6Yrv2WIbmfJvQKMGcwlGKfgC2RgjYLhWOqAf8YlVBiF9l+euaFbFvNrZOq4hn65onpewSrMY4JloHzvn+iSEnvYWIWQ78/Hvjz/9dHnp5dcCfuHTUxt4jvG02jd3Hi43b95E0OFvc/CFoPxxqOPlPn76gNd9eentGPd6uBQ3HTzlxiZF57FuwGBC9uHywSc/X954+z1b9aAHazxDiZrsaxwAFnjkILHWQ8yju2/wU6Bibnl8V1uD7iSeeDzVfuTpox3zSTzO6mY/eUkgieLesRSRYDkTKLpG1qMwJHRteo/ekHpe4eE18eoZoOHYRxFc3rdXb91kjiMxquilqGKFruUQDVkVx+FNej0gtWrXiTcEk+8J2G6JVE2iy1EV2YmMyeBjA1HjVU+YchzrfW14sg1vqtaKhxWBSlbpSUbFxOHAZZdFcA42mSkmz7y60pqc0ISHXi8IdEp5teXdD360vIp3tJ2V7dQGHq54vvzu3nJw9wBBh18mi8DDR6n5SDUCDlY/fKyan4dMGaDwy4UWQHjGxGBigYVPvH329/9zuYbfwtC3noeO2gKP9SYbA9GzIkUnbOQz60Nt8npmWTwbx13dGNNBkWuCSYTEUlZytA8RqTXdEBEJ2gzbXjh2bFejm2ajmn6l8v5PBUG3dikeQDauUQSNG7HC07/YHrN8eiyK0mohkH3pup+wenx/sEyjJBoUjpluDha3UxI0U45VpLrcBppXIDie8YZqPlbNesngQ/8AdHRtJx8sjHullm+OdDJjUtfLm3x4caDhdNlzymQFIv7Kq6/gibZ3zwOPKuk53x3hYYI/fn2gp9kUSNAJ41JbrG7EazXES3H8Tg/faOAfBCst1dGZ+F0dro4++OSL5fU338LlNnRYfvs5NwtOFrCMtkFAhdabNsdR+nk2RJvwno3/p+K1VZO7M2CCKRW4KilFgTxUOLGA9sQn9BAWE5JQ0jw0wC7SZDVNiLJZsXLIkkEOdsITy9ysFGu4jAcPBVsp/k7IasP87VR8AuFGTfeeVgZH2rmslo6yfHovbYHiRBE7BSC71IbxnG8w0A+mWhvKHh5X6ww+7L8vo7hRto+nUXMGamVbQQNC+d58663l/Q8/XrF7caFTu+I5OF6WP/7pa+uACDoMCg+x0lFg4SU3BRwLMrz/ox+P4hdCPfDw9fOmG4GIDyfcW/7uV/+nPeHGs6X4HgD7FTp/fK/HxkELQOweOTaek76SgziJv2HBYpB1RTBwh4i12ln0TJN1hxhwB9JVeVItHVG5nhVTj0LsPJqPbiiNM2n0gLAWbJOcz3XBSH8FW8O7zLxcrhceLKNhP555RB0Maqss8tytzkLt0Nghivw6FTEdEmqeFlnV9QFWVzwsl95ggMttvMKx4J1tapvadpXujgTO7X/In+wo28e7TUkG0nwSHDZeXbmBk933cantLG2nNvB8d/ho+eqrb9BHGAAQFGI1UwKOLsEh0EjO1ANUBJFqw0DFS3JvffApOsKb/mi1vfOJHZH9nnbtE93EZMGdhrSb38YC7xSOyifgUW/rmwk6ccfQagI6VzYl+qWyTjIzW4c1ztlh2emLaUijXBtACRNdjDBdt2DCQ5I+bR0v5LqfptfK2zCac9tdW6azez/7HPUfKw8OmmHrkBV5Uy+aqQeMND5xtYJjesH9Hf4uDy+56TJoBJtIm1NRxbP5A9phoc98giZl/440pulQ5FwPBtrk7uUyXpPD39/58IfnKx6vkuc7+eo2Hyz4zq7zsoMgsGhlw9UNv9HsKxpdB8alNLuXwyU6+xo7Llc8xLlU52oHqyW+egPP0X/w8d9h1XMZX0hDHbSRnnZmz/qhn6162hSYQYj3j3Xon0hpqyBPjD/bXK0CohqykAkkkaKRaOXbrdv03AMAw0IS9sPqp2QYmoJKn+hxM+iCB6Gi1Mkc77Cin3jaJ2EZPdHefMQRTy4eN4tNR81zU3GqAa40AYYLLjIbvJDZ+FXwwRjmfZ5HeKyab6pub1sAGe2kY4oDgz/7bwUsQMnNy4C8UvMxbYvfcGG+msfL+OLop5/9VK/xCp2zkJ7aFc9fbh4vt27dZBSxgKAVDQMOOqKCDzuMBRcGCus9drks+gODkn7uugQeBq9Xb7y1vPbGW+0LpezA8MHLy/JFz/SJzZPSV7xTMYm+vqpXTAayGyeDrHM6yZ49UA7pe2TmdbfmwavPRB3TabMcbN+cnCXt9buyehuyTXobcxtzVJeJM/IzKPS+3UdtcEKu1OVHjMXckrkg/c8EPbct5Q0yqghKfqPW4/H2hdZm09d3y7fghWx2MY4qMtLFsA4ynETaoLMxaPd5GHh4xQJPt0EeTWWBp9RDZgHf9p9IBUrOkI+6I08XzVlv28vIcTMd21+7dn35yU+/MMEZ2p/awPPn746W27dvWzMiIlgH9Mtp6Hy2KmEn5T/l0ap8vYgxds+GZ0x4uAABh0++3ccXUPkKnTfe/cCebuNE4H3XfDJLeSw+6TszGPDI98nSHDZJVD+rYFV4ZvT3y9nqqtWYF3MCiK+C0STl+EIvShaX4MATothFoZHGrpK8EwoYRZlkcWNaPssVtW28KE3BSFYFTd0kTKNnLS8/sKgBB58wWc3giXxZeTZK5TBHEv8z1yAkdyXlbnox9jBoQRLjySXGPa5W8FLbQ3+smiax4qHL6knuPN8e9zwmfcOb7sjTo0tNZFlo3/ACQtvw69d/sHz2+c+r6EzQpzbw/Onbo+XOHQ88DARacvPFgVyZeMBhqi2CjfdqTBbss+ws7Ly8DPeAl9wQePgINn9n/uXXbuB3MewdbnLhO9pZ4KItQetAohrp2k83iTHZRunoPzVGwTPnT5bzXEEd0jEs8gTkcezLT/JBaWA12zWMlOU3Bhxm2vTINK5RoWR+SgiheXFQJINxsjNh+SfeOZT7XbvtWgyrznGAzzzV5JuFS6LP1wZZwzQAOa5t7Frwscvlj/h0G4IPNwadPCoS7r7PBZz9y6btVnDku9/WNSafDW95GPXG2+/gwYIfjvALz5/qwMMVzwW+MZedkYFHAcc6pHXM1n7qoJwwNGmwJ1q3ZHeyJ9xw2Q2rHn3vB+lVnIlcxTKY72/j77hLXR2K/mGujkjCshfxN9rZkSDzJL5vQZ6Oo+aFtXyCbVKagHTSfCfUEZIPSh3rCoYxH6NaTCFv+ecUZirKJ8lm0OPkmlIv24ub8aBWHcrfE+2G8j6Rj02jLDE0xrYL2YjX8dP6iWlDN9WTMANf8Vjg4VULBh88ZKCn23ACiuOMFU8rrvuobplBx7u2BnnJnrDGfPMWhu41DNOo4U41IJ188at/SvosEac28Pzxm3vLHQQe/YpoBhyudNi6HhxIeQfS5MGnBfgCQWnEQDAd6jHwcNnOBw0u8CcU8PsYfNxRLw8tA5a65jbS56vLtCNDuTrmaZbzZI5Nq00oO0swDcwJSPNduZemWteXcYaT1GFdjX7HySvl7qMZF9teqflMnFbGzG4K3tRSn9CJti4vWkzAidzsVjqhz6o2NekAiB2wLARwH88xznlPV5fddMWD93nwdBsfEqLNWkeQL/rRf3qmvynXCVuxc0fN1qkuadIxk/PA05rgVFB/uflg+e67bxQYED1RZnw8APEA1I2ivdUBeQYEgdNdp4Re3O/RZTcEIAUsBCkFHtjYd3piBFnAiaDG/LY3FoJ2kW5rPitJlLrzvwp2Gk/IhOOo/MdwkyZJbBpHLpMCBGuyxNT+YVUeTujsUrvrJhaqULbOh/mSRTMD2JikBqWBTZten/4TIdO2DdgUdgqbj1XqCWx3mOwQtdxRrfPU3/pB+uBYV0CQAUi/0qErHrxcjtdkIfikPnIg3TxFljaGg1sNPBSOwWfk6dmdtzxGrEmUn7M8qfn5L/8xi3CWiNO74vn67nLnAG+lRa9ix2rBh61aOpVPEnbmSmX70Ma2eFLHbOwRa7txeYw3XscvGsZP68rG+9UceJh382z+vZcZs7LfpT/KVsyfANrpdafwCTJ7HJOsqiRWrVeLWMBCdva7Vy+marbY2/9O+xB6FwPb59xxYhoysGm7hUdea+VKWRItn4T2Em6DZHftbzt6klxXvTG4rG6OSw6aQSA+uFLBE0+73GZPt9GFysRjWnVZ5gkq0xfTbht0qGH/RWvEegVw2Gwf5FX8COVPfvb3Ys/i7tQGHr6r7bd//A4dyx6fZAe7wBUPNnUftnMXdMj7a3C8NyqhAbxEt8iOjE7IJ90YfPQDU7hMpz/4jI7Ud+bwIIddP1PvH8TCXHV/0kq6X/fxNU7s/cSKj1+GbACZjpXV+9ssBgRbMq1WBmHHyrYhLZhE3vDQxAECWwEhTVREcrKbIZNv4ZHZRlYu7vMIm53pnOFO9ScTbpVrdxu3vOLpREdkxhND8tgxWPCDwBNPttrlNn/IgGpRcdQjX7cRG3nqjtjIQSzOCwAAQABJREFUqxzm1Px7Ll3S58zf3/nsDD5GHVV/agMP39X2+y9v69U4l9Cx+JCBrXri0JCWgcUJgk3fVj7UmwcFdbSSAcHVz8HdQw88/LkETV801GZdCXv7D/iJ0rkkg5tJYQIGg+/PnjiHEyueoExWqVBMIo32ZuMKs95G0AjPMujbll2j+dmwjwkt/Hjq7iqXGk8i623SFYhWwopOdKfWMZPqyYENPwUu5A633s7R3GtGIat9ApO/7u0wxRZBR18ex+U2Bh8GjAw6tQRj4Bh55ONum9Wo0/FeQBZJFs6TTswZyZfl9ddeWz78+DPnzl5yqgPPX/Bdnrt4O/VlrkbQYS20lOv20Z6aIKQAJCaRxodapOx0PDdiALp7lzcr2yU3G+sxOqxXlW4WLp5qGrml0wkIyaYgFJ44PbHnEytuFCUrM4lU3Om6CAsJW+PUBejShakjYg46zNQtSYpJG7IbQcdV3bha0IbS2Dqm71ZRSFft7dbtA+3SPguIJqBT38/A/gQuTqCyPytpDKudsOIA9Rnd7vGAZyDAG0v4tYp4uu0R3922WmDq6z88aqwnQ4L+eoBQ21bkvU9X7hJj2Hc++uTHy8uvnJ2fQWgVZ9SpDTz3jo6Xr27Zz17zx9v0wBpafh6kHCwxsfjAqTzrIUeKEeoe3svuHh4t9/FT2lrtIB9phD4UvV+N9frU+ZJlK25X9jHLsBjx78+fyPOJlDbK0lVqx/THXs09v5YtKdoitf+qLVq6Q4cxzFRFh+bgYyvwNHfNmi6q39H7LG+2s11qm5u1fTMv0hgDBVojO9uOWdN+Zticc+kHEQE4+cfldWJ80ECPVfNrEfgyKb7Xs2vTlY1QoK+gPe3kwHqe+VkPM/UVngJ3aonteX/nR598hl89vm6mZ3B/agMPfwiOv8dz+/Yd/FysBx70VnbYrtPGTOBpmzBcWY3eWWQ3YFd8gJ+8voM81gJP9P80+CsTU6knYCzQXoXRYCd/Im8nUlrJxgdsk2yc/dI/dT2fll2j6CO6AenYpFEEaeGEJY1JuRzEyjm8WWruek1KhLRdb0R5miQhnYaHSS8P1JQ7LqoE4A4bmnTijukdPmNud86lQ+TAA8aAQZ4pO4Ieq+Z7G+3dbRGY1otO2yKRj8LT4y55p++KSIwqhk0E54+WV15+WT/8dg3fFTyr26kNPGywb28dLN/csmu5egAA93n0+ED2YBD6dyBHseH0ofNAF5Mnwg5s54f2frabN/lFVU40htInt65TGuRg869uyI6XeYfi003jEJRVuF4FR2HwT5ZGFjutT6BElTJUzV0BzAUA1SPSkA2+vYX64kBnUDN+aJNOJ20cTT5csz8E3VLDZkHTXZHRPOEk5LTZRR69PNBmX1xVMBVBTC4moGqfnKabaBe3WoHS35RrBQY/ZlRADD4bqXY4CjAMBFr14HIbfwwS727jDz9yoMo1K5M6WQIQA9+vagb5oDva6uDduSUdo1yZ+1t4+/3rb76DH508Dzy1KU4N/c3NO8t3d/hW6WN9yZPBxy654RCyE4OwXpfHtb7qoTiNUpfEt98x8ECKXecK/WrsYOQnLwS8D/YO6P3ZbVM5IqtNQShEemJFGezV3qtgdVerSjR2/miIKwiIQpaUGcRJQw+vZS2MDVs2wwIoYczVmrZRg7kMW/8KPyh277gJQPU+Wg5U2iWTE1cfrCSadr0SvU8qJwYG01JTJ3bRBsWGSXSEFDfAsrfgE2K+gcQeOOB9HvsVYv7cCV7kFiqWjgEEaA04lWYZoe4b/et/g5cjydKkN9D3Al+78cbyHl6Ts9ZP3PELn5zyFc/d5dbBg+UIr8ngr4Zm4MlBEYEigTKSHUtRElOj3zk4tLcZYBaQVuyyA3e9kV0tt+qVeJiaArlE0+ZZErU8ymcCduW+X3mvxl6Fln+qZoU6odk4wNAyfnUChEpoNe/RFr1EXIHSn2NN1ICGuXcAaVcy3JpodgWXXTK5Vl4lk9UjhXwqJG16sOfc5yrossE+0O+XRrsWLwWyExCUPMqFMWgnhFDSeETKBwxwr+f+Ed7dhsDDF4eW6CHHfXChuGSCMdmzZZWkPGrZisw825AGbR7dryeXLl1a3n73PfzU9TvFydkjT3XgYXP9/s/fLnfvPcB9Hg88fMINePRLI5xTEhKkQWa7F4CkdxY+2XaEt1YzsHX+ooN6L3X19LZGlByaWOCqpOk8RWozp03BVubbBtsS+NopbHmdTC1q3bQnGwcmnMXI2WslTxmU8FEcGOkAkiIyR/A7YcqP4lnSirFLtmLr6s2qUdTObRVeL+NuG0pXnaXZ0yGiTXtvlrNfNvOSZNARTzsGDaQIPvfxc/Z86e8DvrmaK59h64MNLGu06QJMDUTwbf/mbRr7TQjKN6eQ8MGCGwg6b771dgjPZHrqA89//wmBB0+48ck2rXoi8OT4cEJJgmhs0JVV80+AdO7ePVru3bunwKPJSmrcRYe0ztY62sn7UuaYxGi7KRgVH5tf9bwKnsT1bDgjxc9OYdPbrcYa7zV6zv0AnHFMvDNoeokPk7PjljQm1bPY677pfPBoFsJJrnhKKInMxfw1ds1+xaXyWfFmjh5fUAvwWPRWVjaO+tEUukzZbpYayu/w8d4uOQse9uYRrnb4RKqCDwLQ2oMGNdhUmgfS8TUQdcEG5bR/mmDzcndJY65eu6qfuX7plVdN/YzuT33g+c0fvsZq5KGCjp5u4yU3NKZNKtEx2R2Mbu3sfIG9e7hms+Wj2wcHd3WGLBTOc9KCEe1aJyVHrUhbjvuoUhRTnYDRw16F0WCT3+lpp3DLpRntNN0ptFrc8r6FTy4d6PHGZTu6Q0naTmhqO2FJxwy9q/SPWlCYrAYe6NT+2pl4NlNt9NnTQzUzehVaBWfbRFb0QwbRDmloPX7KoTNs0U7MD0Nc9RUrVsos8Phqh2MPweEh7u3cP+JPneArEff5AlF7m8HguozdOo6hVYON2FKwTsb89O+uXS8x5yF95dXXlh99/Knrnd3k1AceTvj/32//slzEI9W26uGLPTkg2EWtg1rzxtVh4+qQad0iZDQ0H5evXFq++ebWcoxLbVrWc0WFni7/zCI6V+2IoHNTMawsie0gTqS5V4kKLMNexa4km9qbgs58hTHDneaDcGBXfG5Dk20BCukO2I6zrx4zhVRzYkC9r1Rf676tOdRzqrLRcLoqEU4VzzwsnbVkkK2oG7Sit6Fr2azr93Vkms9qHyXIFGPbTiz5JhGrFaYX2d/JaxxyUDII4Qce9XQbVj4Yv/eP+JSbvVZrLG87caRpG7+VHgNR45mfebSkYyByHirngcfq6dQHHh7Gv/3mz+hxF5bLly9Z8GEH9NFhCQDfrAsY37pDSPuUPriK4lNtR/4lUntsmxOLfWghP+rwZKybtRx7nxotA7SP3fS1ZZgGSWxpTvimxaZgcrECrE6pvV7xX8heZwe3alPAQsKLcd5FOq+StJ1kaevEdDTAU8ct1nyb0mRt+ctH7yUyN3SQObsqo+GkPgCW66RncK+bXBJh/GzTyI51GXQbf7HyYX226xmqdz5SreBhP3XygMEH93k4hu/jkvnauN8OMAxgcZyVJlZ5KNm/K7tRYvYQxEsvv4q3FnwaDs9s+kIEnt/+4Ss9YHDlMlY9eGqEv5/D97dxsyS6rQcJb27rGuy2rZO4SIZ8YOHo3jHegn1XT8hYsLE84m3V1u1h5QGndmDmSs8td/eeQBIu2E5Orll8dEYdU5TWyUl7AtbtttGNCbcaeB5PmtVkV4BGFqqRWQpB3ncCTDUnuiNJbNAGnnYpMmTGTaHzmzb0M1g429BGyWxgiU0+DJR6v2vGSSXRaz4LbsyKTUGMY4+X2HQkSO39jMStFJ6A92CA4MPRx/HIez388KrF4eEhaP/ZEzPNfR27lY6xLUUf52HU9NocYtTM8xjexIMF77z3QZif2fSFCDxsvX/59Z+0OslVDy+JAbeOGd3S2tm7hIJCO5vpgxI1r169svDLo4d4Uei9w7vofw+XK1evL5cuX9bz+PqBOC786X4l8FhutpcKyK4kMWqq4hPQnc8t+0lpAibLSWMCJpO9gLnY4QiiHdJN/5NNAQoJe+eQ9Li5Xusv0ivK3STueBM3oGFebG/vGae88+qFiWSwaFnIzrTKvqgbWYBQm6AeENdDYXmC9KSGMRLNZbWKdiBGmkHngv+Io3i/nO5VCq226smR7Csfjlt9rwcrHz7pxuDD392ysd+XoQUSDukm26KVF9RMM4nG89Ac5tWTz3/+SyJnfnthAs+//+4b3Ty8jKBwma/QQU+ty3LrGNbejx61VQ77lmQMHKKtA/N3eHiGcuf2AV4UihXPvcPl9s2vl5defn25+oOX7bIeVle2CrIhQz+1g+7qXWZRNARMaFF4fHLTWyfomCmTVekqOJluAs28Uans0IokVdaI1E+iaTWoUYw6hUtltue4JeJEFyISo1VqiiycuXTfa/iEFXddfh1eGMuhK4JJVzxP0JTD5Cfcz+nkbFbZg4weogmY8sM3JNo4s2JxbHOTnKkY7jz4ZMDwMa0AxJ/G5qt0jhF47uIp1SMb7zb4aaytjt9K03e6pSbnCzMptCYQ8xMyarki70OfBx6rmBcm8NzH7+b8x+++8qfbGHwQeLjqQe+MDmrtj6AjwjoOaf76qDoSE9YLeHaSY/zmzyGCDh+lPkJnPbx7azn47svlpdfeXl5/632sfOyekiYrZgJr+eaujQar6Y29DaEVYQqSWFE6GbTpIQVJrDqcpBOwarYTbC4alQaAVtAUj0Sn2zGmadAgADsgUt4MPKlcJunEwpcDfdKKqz4Sug5Lt/hs2lJclaR/J8JmlV0FwwLpSg6DSVEeyBMrDnaN7TyACV5jFsxm0IGLGNdhZLYawRrDlgvHpN3zsZUPnnTjqgfj+ghPunHrA0zPV1mlOdA9J3qI/6TllzuXkToPPKwF216YwMOXhv73X+7gbOZgucKAgNUIv9ejez0MQDpernRsYycizRhB2n76GpgvwRm0+Agml+VHCDx8Iube3TvLne/+Av2Hy8uvv7PcePsDrHzsshtHAfOQ18jE89IIUW6m0YZXKFhqZXQsmSR65SfkVr0lmMTkfZJMwGSyF2guGiUjZwd001/qJdFUo+UbAmqH/92BxwwzmyTosmOUXUEsUwc6fC0Y0Tp1O+1tvNgYOdgNcrLcunIbIHz/bsX/fqNOo/PgDJMIKPWKBfFc6bgOnXn1kYwqA+UDkIPbaQs+uO8DjKsejukDBJ8HmDekLV16oUoZwKALV2RA7Z8W8Z+0/HDHzf1dwZdHP/v854ad8f0LE3ge4DHJ3//55nIbDwLY5bZL7ZJbCTzqB+oLc+Cx6772JAy7MW9C3sXPax/j1RsMPPfvYdVzwEerD9HhLy6vvfXB8tob7+BMBg80aLRweGRv7LsW5dGh62jptcrgWRHAdVNgXk+2rVommMTkfJJMwGSyFzAXK44AraCr/qS3qmxgJypMIc0v2mXCIGnNZdLUSYJl7Rj5Kwi95AF1uDvvMFoL6LzKZ2QzSQYH++ThrDPrGNNY359Ycd0c6OQBADFWB9Mx6OhhnrAruoC00aZtHCjcYixirGvslZUP7vcc4Le8Dg/xlBvVYmyaYcdXWaXpv5lZXpZz5KsSqBwXMV98/sX5/R2vXj723qouwNOa3rpzuPwBv0rK3+Rg8OHNPH0YeNRZrXuyc6iD4NB59FrtYKXzAAyf83+Ay3ZM+dPXdw/u6P4OA88DBZ87+iY0q+3ixUvLWx9+tvwAj0jyO0RxtizfyIO5ka4p2H5rs1qPF85KXYAtMhWT2NIUvqqVYBKdj3UUKpuCznxierOeo88BmewJSKdTbEyj3NSBHm9gj5uNNVGTJFWIQnpGtewu7RMoGJC2YSlgRZaKU1ipmaE+UjE8dvIAJ70Vs9Bt6YmUmvoG1XkBQ14f7DaDDhWkZ+PZONubKEYeMac5wEVH8GGKAMTxjUtu/GL4PXzJVGphQwsD6Ehb4/tg06mBsVwj7yjFI5wEX1p+8rNfhLszn75QgYcB5Hd4k8FtvFvt8qXLy5UrHnwQeHS/pwxIdUfs2FUi8HDFw5UTAw+/eMbXbRwc4Km2Ozf14MKDowPdoLQHD/CVNe91H3z6C/jnAw3+hFvJp/YwHzcVMvppBZ8pgwmY83ak00wmicluWzKpNmDDqId7jlU5IM2fU5KnUhKzXRMVmYN90uURJxQBSrX4YgmTTSLK7UCfmKu1wCO95qRRMEkfHZq4Ow21KO4gr/AuP02vpwabXngirvPgDBNWB4OOXT0ADSwvr6UeCPvPvFwE3id8SYLmIG+0jVlf+eAE9R4upd/FU6u8RxzjORx3fAYVZhMBZqA5m0RWLIv9U2m5jh99++QnPw3XZz59oQIPW/P3f/oav9NzqCBggYf3e/hWA54l+QSBnhodhJ2LNFc4DEAPGHyw0jnG/R1+4ezg1nd4mu0rvXTw6N7t5fKVqxgYl2yUcATA5vorN5bX334/z9TUq3xS2ephbbCsaOyxDYudPjaVtq06yTYjz5048jpJumE4ww05SXWYTrNhUXquB5rMqT7pjmQKPM3Y9Vq/qoYlHGVhmimotTyFmcDF5jKZzusgo8tUbEVZgVY1V/WamymzUfQYfGYFgjTbrwYdYnayaLIsr+tHVtTrt5z5ATvNAS6aY91pf+CAj1nzPu5dXHLjw0RpQ0q6IHxrfAkw0Gk5FpyoC6jxg+vXl48/Ow88UZcvXODhgf3Lf/wewQPLW6x4rvDxan6x1C+FxdkU9div2De64IPAw0tsDD58zxO/v3P39k3c27mN4GRvqL6A1dTly1c1ImSLM6dXXn9ruY5LbhncmEFsO2ZODhyWoRtAYjokPHXpfo2inspJFGFPdhrJJNEpr6OdyjZTjAvp+gUBWbjJn2Rtl/LJxoGG90DD04Xas3FG9c1pVtoPDjIIFLyRoOy/d1+cN12oJJNevTDVfJBRlHZVzwSTaAJGG7NbQx8XU1bYMeVHFwtw7PoDwHHKqrDq8OMiP2Q08lLIgOEzP0dYwRRAEHg48njZjV8svYvgc4ifua+v1GmBxjKtfKPp28awtDIQNZBXQn7ysy9wLFzDnW+sgRcy8Hz51Xe413MLwQEPGCD4KEXj83FGdWgduXUABR/1EXZC3uOJy232nidebjvCwwWHuNfDsyP+zsfly1fkS8OAHQ0vI+SludfffE8PGvBSXMnCMqp7G00VET0NotCQYFMaWpnu1ExhEmlXiUkqYELTZFuSKtuEG88+CgKycJ0v4St12ukXxsgJmP3DZ9HKPFtWTSqqsdAttgU3EnvHisixhiQ1EMmyRMmU/LKkVV5B0iv66WvUrfyJlKrBRMsDduEJFyPyagHrNoMOLaMNXDlsqtMZw4DWFikYBRqCNs4tWoBe7H4PxzkvuR3i+z11awEGFpwsYuO430m7FAm/iP7Rp5/rSdswOevpCxl42Khf37q7/B73e7TqYfDR5Tb/Yil7em78Xo91IqU4EXqITmr3eiz4cPXDxy95M5I3JRnA9C1qd8NgxPdB8em2a9dfXuLLpzloMq8Vos1iELKzmtNawhUrDchVfAD3+6HBttYk6YCOyZzX0RSvE2402zakq6riRRorQsOLopPTlOtZtJyoCM7+JweW1aDdszB1YA0vWCG7Nu1xL4+VqpVnUOrY0NoBTqIJCCc1PZFSNehoWbsLJhyKvEoQVyJq0OmuHhSbziEYFxU4QwIw0s5n4GDw8ctqwjDe8Vg1g89tfGGcVzxi2ww28Jnu6N/+kZaA5OB1XGb70SefaX4Iv2c9fWEDDxuWbzPgt5SvatVTHzRg4KBG67I1+CC2qGPG6of3e7iiYXChngKPzGHPjoZO/JAPJOBFhBdxCY4rIt0XGCZD5sYh0HKlk7JJ0Et32gz+i6dVsvdcVFKQRBEaOUn2AzKc1CbPBYDytr4Jt+Sq7+KKpHRXDDIopJIZNlVQzjTMdIgb1kv6pig5FLW0m7C5sEWlO5AZ93KhVJ2swUGV1DQn/QkoJkmeSCm1R0LW7iJXOlBS8AHAeqQ42rPq05ebkuy2HvdAI42gMzIA5cMFFHKgW8oTSl5m41tK+G5Gk0PG8U0VbpUWGxKk9j/oWHB64/XXl7fe+1Cv2pKf892Leakt2pW/o/Pr332pTnQFP2/QXqdjgSc6d+i34EPELrtF8HnIwMPOic7HRyPV5UDTBzHJcSmOX2S9iHtAOoMLx9DhwIhuSrgfKKHoaT+LpXCnTWilUhIhUbqOukoKk9hvO6lOwP58Ixc33eVho2o0YY21Kj+Ds2l6LnIjHUBSRFHC1Xwo7MtVcilOEu0wd907aHmnrhHJKlO3de1O1ouC83TFFyWrDgZTsSdW7Ixl5aZa6UBqKxw+dcrs8Qd5jMvMJYndRWxqdaSxCOQdw1gVEise4sD0iDXoBzjJvHULb6NHGltb9VggCbwFIvrwHOirKeiYPvzo4+XlV15L9JxAO6JSWz29gDXyZ/yWzpdf39aTbXzQIL7bo8effbDHmGdNqDK884jHjsGHl9/srQYWbDhCoqOzCvVUHALTEW5SPoKMtjGAVK3MhCC3yNA4gwrdkcokcto98Jqjpt/5KsxejSHfYprHXbF1sNMQ02ptliWCvOfyObIqM8uuvt2ZrNLZkHviNT8HkRRxK9pK21HYYLNK2yToD0zhZReemwMhqSYiud484SR6eZdBZNSDzRJ4x1T9NfqxlOUgDpF3QEmzvZhG8BEmmfnOHJKwcgysgbRLysfZxAOPMYiRblOfLm84bQGIXyq9fRv3dDHuudUpstKcLcwd/eqf2vEvmnPOux/8CIHnbP/iKOuxbi984Dm8d3/5j9/+Eb3ykr7Xk18sxSkWO37/PQHrujxnif7JVGdDSikpHZwDx3XZIfWlNKx47vHRTFwnzu/10GjXxhHHjZnJp7Gre6m2IdaoVe0ejHx6tAzYQUC2y6BjelE17dWqJOlepefC8YC6rU1W6agQ0h+O0bBQMo/pN4l6mAAdL2JzINGESr+hRiWfBNXAdHwpV8EL6vpN2ChoJZNEgzonwdR0w6bBVXmDPplyaoEgzSZSsCGNpU/SlHv7Ua/bBmBgU7XhddAF7akGN8c4eftw7JKm/TGuXPBej71INPQ8C45zJ6kvF+QTh9T+CeIy/1X9DMLL+OXR863VwAsfeHiod+8/WP7917/HaodfKr2ip9y48mHQ0Scnq5Vu6x3KOph1OtNqusxDgQdKXPnwMewDPCGjIELfZky1k21bgy+slXWfP0UzEgaebtiF1k77SdiARoWnId2h0ESNkrWzAwrRduChnfSzPeXJMaNl30hRLY8+04a7AQAFj7CPVDiZ3mIohtn2Km6RDsKjUqm2XcrSxUw0u9QGkXq7wVRLourvoncbUBp1wZS8gg3v6fCPGD7EYmtUIEgHcGCl2LAWHhQJ0g2jAmX2yeADjCeYtOco58nj7TsH+loF1U2PTkqwGWiwRLjjv3RffullPO36tn55VND5TjVwJgIPj/R//e9f694LH220VY99sZSB5xJ/50NPQNsgsE4Do+xAQaeELjFYrJtHp2QHZeDhmw8O+UZrXCduA0EmuaMn6+TTeDId+Q6tFR05Xve+jnrWnbBjsmzr6Jo9sabdqHTVExsKDW6UDJ0dUOVZ5qguD+m2XXXjReVU55sTlnRMb5f6xTYwpjDtfLhsLKOsPZswT7sBd7emNjhK1ZkIt+0YO0cpdiIdpCCRJFJ0AmI2CoSHoA+86EoDGKYNMzwyCbvgMy2CQqaYhOF1rA60WO4YRCzl49YMPLHxJxQO8J5GfrGUl9xijJtNaIGTPXn40X+f3njzzeXd93/YDM4p1cCZCTw82v/nX/8LnfICfsztir5YqjdY8+cTOAD4PR+OAmxM2B21WT9KWkTp8SRDl52QH616EHQODnC/hx1TDk0rzogSc18s1+YW5dpUgEDmzUejdhm5LJWTkKDnVvx0CsZ00IrJ2mH2Nj1H/QGxsnmdjFlIt+1S3CDzZnuIncj6T0GK0ofarJkUPHSLMfU61nPosGI34OFccO8oimwqaZeE8J5jYcJjTVfBprourg42aDMM8yg+zvFQJ1YP9RIbM7TzvrAwtz3nWQ3gwErJsBiVUcTgkYrkLgKK0365LSyOEHT4Bmu+pV6v1VKQoU1owEMyAPXfUs4nr954c3nv/Q+bwTmlGjhTgYfnM//66z9gRYJfEs1HrH3lwwHBS28xSmqPtr602mVCDSra4uyI93gO8c64+3gaLnrqFHRGj8qbnnIaNI3IpE0JhXInUe7Rp7ytgBWS/8ykSuZ8OimYycyACa52K8Ie6jnmMSDKeOuQpTsIDYtClPp1x4mUjApphu5zxqN8vaQvgsl6zN2uH6CEsmq7OIBWH5llErNOILMKJKtgWJh0t0rqNsIMtMeOKY+bH1xbsOADJjDKucUVBOPMLugpDSPaTUJiMSJDGLynXRDxBwwUOfpVD1+nw4cNjnEVg8GHWws2lYZM/y3lG6lfu/EGVjzngSdaIdIzFXh40N/ePFj++NUtfe/m8lV+sZSBBz9rgJVPXHKzAWBTkXW1qC6kBFZ6OiGKIvDwKbh7h/YqjlCvHRaquzcZmWXYpwFHLLYJTwUnXC/gvfpU7JQ6pheF0zHtTHI6H7V63m0605rbqpwubPLqnfkhyGbw2LFetoIJ6fjiudRlUUkFE/eSYqKyUrnHwnwuS5M4tWKYuc1EmCtNcaD7gdDsU9hNpr2Gc+14qM+iM9WVBWeMbv7Guq9uN/MsgkLCtI3ahjfMIkTwvurhpTbaeUBS/qDv83U6fIkoUp5MUlzHcdIQmEcq8N++dvHK6zeWd/EdnvOtr4EzF3h4+L/GU2637x7pi578FdEMPrzZqXs+6K4+0NlxrUP1FUduPEMjpsDDbofrwrzHw9euW2dm0jyJRh7yT9xHiA9ZumobixMKgbJ8sjNDNw+ppQJXJaO33i64NE0iJLvtJ/Wp9OknCbfpTQsHsnBppppZEVjz9QJxCRnRY17PrpOqzLkxlWzlkEpRoqQzM5l3q2aXFOpoMA+RW3Zl6GRpl0SIu7STdgzVJqCz7RhX3bawY6Gcx2SpX00Q73KX0bd6CBU3th2iYsGvOhTWyWn1o3EYYxFjlXwXeLjqMUe818NfIOYTbrx68RBPrcbKh+5zTMOHeaQ/STS/8DHq9z44v8fDGqnbmQw8944eLv/2n79DkFj0lFsNPgwm8bSbVdTck8fOLQ0HY8XDDslXrfNsiZ2XW3TSSM1/2zNv9tk5R2Bjps3MDTR0K9rTdJrO+xx6rjcTJ4Veq+dWbAgNSsYOYJgWuJC9Ewh6mWUibBZMddbrmUGP0b876hMrx4RF4WG31j7Qd5PuONZUQ3Nd5tINofLIjJJohRuo1EgiFCYgBNspTGYrBhkzYZF5/0ZfLUBKnnWldPC6WodFZ86HQpvui9pcngv2mHTqKDKEXQQKPlxADB89ZEAa4xEYXyLKy21HXPVgTBOLMRwpAC9J+Hu0XLv2g+WTz/4usz0nWg2cucDDjsIOzm71f//v3+DrPXjYAK+4YfCxn8vmE252dmYDpO/uHDC2GdF4Q+FenZJnReyk7LB81Q632mFNe8cejjOrUAOwgtpodp3JJmxrOhT6ZDadg2T22g4Kq+UPb647mEBaEJCFc0t4nUHHeoG4hEppEvM67vjIxsAiipKrUMVb4n253H7LAax6/XTjxwzDVVuHU5ZEc7BCSWtSnYAVywGCSbXSuIEKj0VfFuWVBGroHxRTYztH7dgh3Nh6CUfx9tbp1uDDQarNUgseNfBwEOOslA5A8mEh/kQKVz0MPm3V04KM4hV9wre8Ir12/RoCz/lPIaiqh92ZCzz1+P/7D39ZvruDV+HgC2P9I9YMPnzKDdoYDXYmhoCFHqWgJcz75aOue0POtxzgg59l4IsHuUzne96sc0dHZSlIe8+2bNhnPS/KPS/rxhoDliMFkjpGum4QsqCQ9iUrOpFtKhgxwcUkyUlpRz5pBCLzIrjDpug1slH0U7jMQR5XBDaZ9QJxbWf+ikqWrsM8K58di8gEDqRtlAx40y1UI0MTaQM9myJz6ZqgaDVx81XEq6Q0J/UJWLUNMPI1Xzhxg4BY3tdxPoISD3UtB7MPr7tT6mqSp+8V1R4zzYaRN2wOPAg6HIy+Uc4xfOSBh8GHmOygplCjlC7FKb167dry4/Mff4tq7NIzHXhYE3/+8tvlL9/w9RgPM/jodTp6A7VfMohRBf146s2CUanLMgrYIXnJjTcjdVMS93rUUdnR1Z/ZaYvtQEag64YT/E+TGu28bG1AEZOAu9UBKcHW7nFs50x359fpbxxPKXSvXjiQhfMjQe3MYKmKXiiu7Yqeucu6LmZGYu9YEYUR0rQsWJgUi+bG9HLfdLaPp+mkWSEkTZUkisYOEurNolE7LCSKstJCwQUET9xYG8HHmJFXyba9SifEHRNgn26pNLwNOMPIG6YAwvARl9gUVOzLpMyFWrxczrEcwYfvZJQ+hPJSAk4Eokt4cvYnn39BF+fbUANnPvCwPv7456+WP391W6ucuOSm4OOv1WFHjUHD2Y2DTNOL0qFGwXLFw4cLeDMyfkZbgUfRpgYddlkbBtZ9g24+bUAbzjKwUyvvpiIXE0a5GVfNzK0Dg8nsk5Ck50K5pJ3CakmacqcbRz+A1HaolzRu5dBktIbLqu1UlvRU8EK6jmv1iRVuwmSiOneRA1V9kIAdkHCStmvHQ6t1PM2SML31XFJpjXCTPa2ZllEeBRswseKJHz+jPMaQXKf/dLFKuFqTTYCJNuBSvwoPzY/CRUYN4ByXfKiAWNDWPrLEiSnHM99KwhVPPGjA8cj/fOBAAYj2y/Kzv/9Vye+crDVwHni8Nv7zt39Yvrl5F7/fg/s9/oi1Lrfx+jRGjTp2TQEIHXq8xRa73Kaf0GbwwdkSV1TWp9mN+eEGYxkYtzWbxIB1rUwSj7KkZIOI8m+IO1jH1Q6uUZ1Wz6TSnukq9czc2AGkyKFe0sAeNwNOcGub4EFoWGibYY95G1PFxJEYMGGht3L80DV1N6JPbokb2/ZNbyh2qqz1vxSuENlfVmSbUCsGilqYYiAUO6bMw4IPefyx8PhnIIr+TT1tSUgl0NW0qDb5AA5s6hkeY46w0zn2GCh8XCL4KJhwvPolazmCPH+VGPd7eOmtW/VALq9MnT4PPNkEE3EeeEqV/Od//Wm5eeeeRgHf66b3uel1OtZ160ASgkEVqXVOdmnreOyFDDZ84aACD5bm3OprOaijzgrccjA+6BioMqTOMAONvPSiTGEUabFN/yHbl9pBptZO+07o9ZOWhSh6jWxUagLq0caVQ0p1aq/hsloRGB7m0Z7BWyq0ZVvKA9DxInZs5dhTvdOW/oB4AQxdKXYp4HqZi0JPwtl6Xr3aKpeGvY8oH8W8FJ2Bx95DpfaQqSumm5qJg6uyorcqL2AhixWrOEYaYacRIGzzMQu8rXp4ogh5OATJ8cwHhY581cPgQ4xe7IoGPVOR+0dY8fyD+z9Pxho4DzxDjfzxT18tX357F33noX+xlA8Z4GEDDhr9Y9CxM6pDxqAXY550toNuh37LTqnOil8o5dtvo3OyQ7Ozdh1bPHbul2x6rVihqRNbF4RQwLQNhZpSyALoQERIutOGGqlgRLKyHnZFuLM0nV6XSXMInaIGvHCTzHzo0JoHUYYV2/CUkBEDa7aRpwtTh/iENcdNT26ka9gkWfcTzulyxcS9RoZ7dJp2Uu50p+tU7onoc3RBe6Z6MwGWN8ZrnZNlImaHI0rOGiW27SDYlLnWJC9AIV27PlKNPm8DEDKMRdHlxJDjU5fdeJ+nebLxjHs9+J0vXW7DJTf+Rhcd6PK63GJ3HnhaO25Q54FnpWJ0z+frO+pQF/mY9cVLGDzogPpfSemD/dM7MzuyLbf5dJsFH/EZfKSonEmlqdOtr1PiA9AnCPEywM7EplPkBlBcFASu7NzuBJrNOJX35JB6UdQCNG8hFGIag56zPdq48dDpKCbFKRuZNVvp5q4RqZFEqU/HmgjUhMGXsJU6Sl0nmG3dAPeSxq0dazM1vd06TbunWqYtt15j4qDIQMP/dk/HjpffhYujiPIQ0ZZEANRcAav6tni2dN1m0sabXCrSOCaaqJ0YMohg1Grs6+yRIjhi+RiMGHz4i8S8x8OVD1c93IjTFTS4U7D9/IvzezyqnJXdeeBZqRRCv/ndH5ev8LTbJfyQEx804GU33Sj1TqjO6CPKOrjttZZBB7TVDbqwB5tI1cHZr5Uv97SLlKA/PJBw8R4jmGrY6uRaaZO2/abMXNNTKjcqoXUiFY1IdtQeBJsTTNFb9QiwqCCXwk0yK8Taccuq7bK0PSSu5WCsdFX+jg8XAB0vYsc2jjpNOotwKNte4lzaNdWeanrEex+9Zs/1diHbZc8uWV9/wzq3S220Msuh287lGTJobKO6ssywxOtwXelQzUaeokTQSC3+RPDBAEX0YKDJlqNzKOlXiPH9vBp4ONbji+MMPLT5/Oe/gMF6iSA489t54NnRBf7t3/9ruYUXfV7EiocPHDDwcGDxoQN1KdIgsnPCVwYedmqe/PhZUgQiLsPRpaWpRB26FEKj1AcHPWffLbk4aEkqyEnVT68Ae62UzEQqGpHsrNkjUNyZizs6mU64HnJXHiFj2uTtuJt8LfCklUyLfZglZMSgJq08BtdNE5ZnwmAiLK0iJ0ubSSjukFPkGYRWZx/gut4KWg0G2vMZsqs+JMKuBp6k1SBmvNY21U9mvCOv1ClEqidhwoF1C4ypGFYx/iixiAPCgw5kusyGE0YNYNS3ld+eKOUlc34/jysdPuGmp9vggziDDwMPv5D+6d/9nN7Pt40aOA88GxUT8H/+5nfL8XJtuXPnjt5owOATlxEUhNArx4Gl/u0BJn4uuw887NTYciBYwOqmphw91b9rSJYKyJ80nY0YM8EGuPNt6O59ujqBZepaZh1bcymCTa+u01QbFYdXEHhvBj1uGSufFYGgtpNyqg3EwLquoymMkgCYRY5tHPWkX5zaYUx9LDNxOfOcrYowSKaD4sBWTaeLBsjg2O1It2BDHn9SaOnocBwvIQ+/wWdaBIVMcRB6CC0YpRgTxYAnhWIRKJjqJJF6Cj4cPww6SB/FPVmsXrB8458b2BUMBJn4jp5+MgE87eIpt2v44uj5GwtYsdvbeeDZrpuUfHfzzvL1tzfxxNuRME70eveU+mMMMF7lZudlH+WZDzb2Yax48C/EOjXOo9hRJaQSN9ppSJQkeKYmF+I7l0I/KQ9A9IcNsAaMcf1+l6zXzPIE0XIbFZ13hV15h6WprnhMH71mcpNJM5hEMMqJIxx4GhNkhdO+EElSsTB5jB3mShPmuQhPSwdL4naWFCehAqhHe05qk04Y13TdrmoEPWrGSpI4H1zj+p91qY/TtZSli4bLnelme6WVjbNkdxIchKZgaxYvWQk2JvWgw5UPHgayYOQniDomqwWdQGL8PoAOgw4/fGqVOFdCvMLx6iuvLB989OnOUp114XngeYwe8C//+pvl4N6xgg4Dj1Y83U3U1jnTLTokO6M6LDs7/8VTg50dCQetDGzvjCMNy+lKkFts0DL2XUwUkUX6qUonpb04VN/04zqbcjNWjps66UNqyi2oVl+JpHxrklM+pey0FNt26SzVBmJgpW8Y9imsZMOL2PIRYOgko4aDJ6+fYmQ5pI8VSWiUdKUUOyD1fVh3gYc8bLr+FgdScqrkVntRZyX7arpBe5SpUg0yx0VTqIFoKffCeYbIMcnAw6CDlREKGH2HNPV44sjP8X17m4Hu+zAYeeB548aN5Z0PPoL9+bZVA+eBZ6tmNvD/63/9v8uDR3zYwB464J1U/o6PRhxsOJCsb1tHt4ADgTo0OzWDEJ2DVmJ6JP//9t6ETY/iShNNVKXSghCLQWYHsxu33Z7x3Jnnufdnz9N9vY0NNm1MY9rYmG6DF2jbzWbABoSENjTvck4s+eVXVdpLUmRVZZw9Mk9mxFuRGZmZTa003Gh5pfNRK+VlglQEJbkjlCiNrMRLk9KiSTTxUr+bUjHKlqz1WKm7tczdkKxsVLXo9BQ3NiAbLnwsXJVbra2dKcUWWSHksKQrFoVoYpNs5CaxDlmjspPsq7RSVV19F7VrYm9v20TP8K0I9Hr/1PC4kuZplpMJkk//5hSM+Ok9q26BXfWdGbkRzYTJRptCoVbmhhZKCinIkqxBRtak8eyd9No3tm3uJ/YX7dztF+ADkNEDpRjx8LIbgYjAww9M3o/Rzv6trdyYUS5kYADPQlJ2Er38i19Om1u3YlCOk1ETDViyIUbD4knKU17nN099EjzBQ5Y6ldTBPlzpo85aMeRFAQnHFxk8ilqnLWRI27RrbVI5L2mreqmQ49xilY/4O1rDwDZrLIt+Td3b6Ttd478ir5u/BIQw9yKicJIVrtH1snSeH4vc79TDKxyLf6pYSmjNir4RlOPd+hb/UkVoG8e5ffLbmFRVpbidvKjMktvC86wFHqmKeSGytsUyTm8HlYXby6LxglDtrLQxGsDfQpOFr3K1SQEOzVkf/yHkiAd/XwJ4uH/YMP7oOT62b+4ozXn/FnYFeDDLTSMgfNl4Cx+XvPfBR/BJhIOyHavlDAzgWc7LjtI333hz+viTz6d9mwcFPnly8hT2yapz3nF4vvMHJRuZhvWSkeZ/W3WpU7YpQ6TaKskqtqzVBliT7ayjS0hCL3Wzsto2RRxsRivy3RC78YWNzcJ4HrfoqViw2UbfpqeGtcNCJJloPxeUEtVVCVdMZ8SMrbHTMwyKXZFXSaVSiVLCbY5GOG1j4WCLwTPDa5TNZhQSpmmduSPP3PP8jP7Y/JJTka0h2GhiYVyyWV+jKjJWVNuNL3/Zi+2JAdTaUlRs2e7Q4aktSklaYEMn39s5D9DhP43+NEpcTkd93E8+UuG64Qfwyfs8+iw2L71h5HPk1lunu+65F59EOISYY1mXgQE86zKzCznfVvvT538yHTxyF77rs6mTcx+nXaevTlievG4QAhzosnHJLBoCG7QaXJzk1CXouIyoWTBo1CRRrGyrSArfxjGtddEtEozVhFDostXmFv0ohLpaVEoqsb2sxIG4aiolfbBVWqnUzyQQQ+LfUkVLyF45bKWxDVZ2CokoKYSZwhbCbgUUGnlDhlGVVMqqsub5UJgFIpQ7WNlx20A0qQaVauqEkHKeYy492qE0U7no14S4NJInJRYUpggcVUAy25ikAIMikyHvz1SwEejwrSK4p/MlRznnzgTgePJQvihY93OBrvkgOevgH0c5nE5dgAcjn6NHj06333XPdPDQAB4eg3XLAJ51mbkA+bvvfTi99uor0+bBIzo5N7cOqGHypPdIyP85ldbZxXZTZcOlfXlWKFpygk7RK7Ibf5D0itA1lquI7ih7BcWn5sK7B4fYwQ/q2AJXv7SWzZo4xX9hG8OlelZK1j0bNWdeljYktrXJTVopVIlXiJq1KoJL5LhzXshD49OQ8q+B0y+DRSkHe/W+jd1MMduqxnCBnPn2Fn0kpovmCT5kyogndyTj8YTmkry5QI1UpnB9iW4+kUZGHbgECFAhbIFtAoPBwQBBkCDQsBQtHqDD+zPnTuHvjPaDIFO+zQWab6tnG95kSR7/WOb2cMRD0Eng4aW3u499dboDwDOW7TMwgGf7/Oxae+rUF9NPnnse0ytP6wTfv3V42thvANrH0RDfeI0HUUXjRF7pyCFQE2cZfzRqgUc8twhyFdmiwcrXQhpYI7OMIZduFWFk3ymSUVwyri/F25ZhWrZnblxiUrEQdzt9p1v1r/uTlTr+qjz12II1yrJlIgonxwVRZtyBG/MuD42chjPWkhCu6tLBmkU9g+ZSDLotSO3uy4jT1iqggYAyRs8UZrlj8AZHInzjom5dvIGEJMFEa9sRs4I3yBB0CCy4YMaS92AIMHKir0HHD3nyHg5tzuEezWnMIzgF8MHlNd6r5T6hbfI5PZ4Xm2yz+OOEgU204U2VfJCc9TEMHyQF8MTkAm7LnXcfm+68625v51ivzcAAnrWpuTjFn/7z7emTv3+Ck/Ls9OGHH+LT11/4ZN7YD9Dhf0146zUAybPicBLjhGcLdgPmyY+/kGm0BJ76WKlRJC1ptvawcaF1uAUtO7ZY8/TNZV3nK32YNxHTbX25kw/0YYIYlSoBt9N3Onr0/pmOEqvRr+pspQhrlNYt1JMVNNXzGHZLsFW6IpB51Yf3bFtW9DST0JpFfYRS0Rl0TGvV0StWEKTM5yr4ELDgx3Rx5nYxeLYRIGJFQmx+bUCqFBJcCm2CnXtQcqSFZS5zZOMXdEIGwKEhAYGG1LPUCIeX0zS6wRulMbo5dxb/IKKEViMabjrbQd7byXu2lO3Ha7P243MpW1v7BULUuU4CjycZcLRD2zu+cs8AHh+2bdcDeLZNz6Up333nv6bPjx+f/vLnP09f4BPYbiiYC3eLX78jABIIAZTwX1YdDbEBVBBic85LcLVtw6Zp+Wry4inP7TZhfpWmFXVsn47FhlucM8j6EqbVulJLDu02pH6+nSlXuV3sTkfrvu4at41om2Wd7Za2MSOUGkQUrtZcRZA1DAM0bCWDqoLWLKuNEkar5jObrKcJmKJVywuTqHrHzfyJk5yhyHFafr/wbNJSiBTQmgvAwUXlw9ag0dhRTjBRQVAh2wAMY1HPP45oZJCX1hrQwQhHoHOekwi4A5wc4dKFRzwt8JDmpTa+keDggS21FW0m6uBoJ1+hQ3A6cvSO6S6MesayfQYG8Gyfn0vWsgGcwYejvsTQ/jhA6De//rVAiO96SjDZ3DqEYfwBAc8m3vNE0OH74QQ+CUBoFQk0LM/jX0wPhqK5q+2YLh2f2ODYqrC4ML20c2FGyyV1ke0UpxpmpOV429YHl+pVKcXudJT0+hq3bEmxWdbZTlHWGJQaZkRhGaJhynGYySvbGVNclkZTZCKabVtrkx4y2NEqrVfKFU8IuE8ZdkXfRFDHTJ4AEIs76xmYyMQ21gM4aG+RAUSgYqEBxQAjCeJzpOPLaXQiz8tsvpymS25oe1+exSjnzEmBTtuOvC8GH8rzb59eCkw5/wFEiXbIEc+hQwdxyVwTyrVtfE0ORzv844SCBx5+jJs1lh0yMIBnhwRdKfWPfviD6RRGQbosgMaiS3CbB6bNA4dwQ5NfQeWH6HBvKIBH/5WJjubORsKNy5IdAmgtpQCR+tTRxVbSuYUXid3F9rJ0KSXU1aJSRd8S29lup2OM7fSdLoybeptdbqWi4druQNFLLl2hii6JVd84Fp1BMqymibVMwnhZ0UhrQFKznVtr13tFNbu2Lt7pMau2bHXgRLEXAWFAQQMkgobC0w5QYT8VwdFXoEVQCSuOZERSJiouq3mEQ5nv43CmGmQEBILOmVO493oSAf3ogsGFgdhmtOZ1QvwaZMrlNrY3XomAEf9J5L2ew4fRPgk8kLE+ftqeby7gP5KHbr1teuChRxh4LDtkYADPDgm6surz0ws/+YnuA3FqNkFoA/eCNg8cxgOqAKHNLfC8LOfRT76clCe9QIYlNxClCjWk6CKssF2asK2Gre3JF4pEw0YcSbdZwaxaVmrFYzu77XQMtJ2+04VxU3mzu43UdnBtN77TSyd9odboW3EcjxTNXDvtii6dWDbKhpxpWge4zAz7KL3txXAK3+1BF8UwgLV/q068tRIGGfAS9ulkkKmAY2PxBBWxuCtDQiBEvwAb6TnK4eW1uLSG+zhnATpfYhKBQAc5cppYxr6EDPDiKwjiY6QDgNngRAOUHPmwLXLEsx+X3RiIdel1ORj18JLbwcNHpgcffrTu+6DWZmAAz9rUXD3Fxx9/NP3t44+nD//61+lvf/sYbQkzavbjBD94q8BHkxIEQPEfGU767GgMQGShi00mrYVmKaUPFq2DFm+BdPNVmrGdJ20bx5rbJ19tV+2oc7yZDmyVVCpjUlmllZK+01HS6+v2lGhBlOzMXaTvoojpJLNa2mptV6wLUesvNS/q1B9HfBrMDgBYKtM12Bo8NTIIbWMUERv7ncmsS5aMFYRIKFVyhkEgj+V8YBOSkLPQ02ogCDwEFOaBl8Xk6SAADhIVaHjC0JbnTXtfBxJ1/gYbjnrqvRzOVuPfl5yxhhOA8XkSl1LbwpVlvrJAFnz88fIaAUclaVx+O4j7PFsY+eiOFjaovqft3LSFh0YffvRx1jSWHTIwgGeHBF1N9WncC3r/vXenP/7hD/gMwwlcctuaDhw+qo/RcSSkh1PRKNRYCDSksWRDAUUVJf4NvSUhC50MqIjFkcA0PqljWeK2whndu5aIM6uMRfGqTY2xnW7Vt/q11dUYy/q0zQ4p+b6sUSAX00lW96KoTRSWYRtmQdvpZ+ZkZ0sEa2LSYMbOfC6MFRbs5EJAKDZBdUU1IFj4ty9boDHIVH3OVrPcEwoMTjnCiVEOLndxNqlnrWEyD0Y+XNQ+TATPHCFLOCl4XpDeDnjoz9EOrzgQePicD/2whajLExjOAYQeffxJ/aOoSsZq2wwM4Nk2PVdfqf8CcVa/9PMXp48wHXtjY2vaAvhw0gG/hqqRjSYesNGwi3HZgo/alFfU0sR2KiQhFfKOUINqFDYLfzE7rbI6e6611qavsak6GqjyEmf3unSp/r1v6mtZc1VlLVUirRKzrYRXsckITd4pmunNLgozQClnViGfSWdscb4Ygj3sbLFopgi206WMwxUsBXiSb0vQvT6mRlNKd4yMPDUaTNK8tIZRjScTEHQMPAQfLnlMlY44AVgYjETonMd4Rvd5sh3xvg5HOmpvoPUFYvAH8PJP3uthXG4rt4ez2rh5TzzNr46OZTcZGMCzmyxdIxve/zl9GjdG+fJBvBVBM9/4BHXc81EjIQhh+3R5LRoUWxJlanYipAgJxamVqPDkrLI+tCrCJUSr+taWdLVfb7udTdUpWhd+97p0q9vQ+6a+lrLcxqhGgo+Nq3OKWsnMoWNpNxNUtlJtuLl96latVyWyXSOWztiQIVdKgUIrDXsXjXORg9CvS7r2wALeiOKSZgk+6NCTlg0BhrYAHPK6j5Oz2QA2fMcaQeccn83h629iYRvhUsqkIafKwJQTCCyjogMeTjDgpTb8bWHKNKdN01cPqmJbOKONN4ieePpZ1TVWO2dgAM/OObrmFi88//x0Gq9fP78REw4w8vF0a4IQGov+M2MDI83GEzQLysSLNG9xQ8uw9mlm04HWK0tvQg6dQo2wat87FH1u2pJv1dG8BJDv7nWlqhKj9231lUbW5lVWZYkUIm1av33UrEiKQNHDuSmKfsF3NVrjuFpZE6q367jWisevLj0X8pmwA6LQFRl4iQgUdG/11BFEIBS4CFBI21DTo0MHhAHFkY6cYJOjHsipw+U0/unyGkCHD4ne0nyKlOe+9jIOevJqE9RBKZnsyNc/v8EAo54EHoALRzt8oJSyFngIik8/+y3uwFh2kYEBPLtI0rU24Yy3v/71g+n1117H5QD8xxVTrjXpAKMfP3PgKZ7ZcLjNpXFFp2VemmiMpuuaTh3XsG0nlWa9jJ7zhQ27X1YEavzVptf3/r2OG9dLKtf71eimsjOay3ve0VYq6YxqjSEugkLMtnFuZz62qIstpoZZ0S2rlqWd85KJOv3OKpgCJeZndkVLXMCPFtLs/D172XLKCtiEGXhPFghf8ZTRGKBS+KA1CiJtIOLIRsADsMl7O/TJY6/zHVWtlpYx59kmRMc/bZTxx5faWILjiAfAwwdJfY/HSdSlP9Rx7/0PTkduu907NtY7ZmAAz44p2jsGHNL/8Ps/YKvBjEG3ZLgAAEAASURBVLcj+O8LD53yUptufHLatRtINjQ2FLSW6PjcULKhscuWpHRCoefuZsstZDEqyWhMaFXkS4S0xaQQnel28bbTMch2+l7XVUnPWQ7m+tmerQm2uEdFWIjlLFW1Ks+jtboljWTm02gixlwy57cLUODDTsCA+VIsQid+W9pgQjwRxJQSRAGXiKoRTiNvwEZABF6dfYx0/GZpj3g8mQAZxO5pD+N4GUhQNXjLSfL+De1obwe2F7nQDn8FeMgH8PClofvR3mzIzSe67pseH5fZeHB3vQzg2XWq9o7hP/3v/623HHC6NcGHEw/8uh2OftiI2IDUpHRJgM3Lv9HIuCsQ5UJL86JAV2Ulqyz9WFLKfqS3k4TqbultOpWY7fRVR9PVbdlO3+vm9eY+z+U939W4JmBnk+6d0EwnSjuWC4odPFrvnl6I1RvswPEQNsscbKiyCdb6dWl5Qxtt1EEn8MheI5qwpiJ4jXZgoCnSlAl4EriCJ+hIlyMd8rivgzgCEYQtJavA8fIhy2MNUKEg5JTqEjXLtEWp+zrik0a7AuhsxlsNGJoguIl7Pl974hmyY9llBgbw7DJRe83szTd+O731x7fxITrMsuEDp/u33FD4tgMCT9z3cUOK7guNSL0b21z2cknLJKRBt/ssV/QP6dYQrdkatQL2dkVUCOlVj6nOnkzVidtB39ss7FLjX7Kxbrdk221pvzFNrDUheudi34mLFMSCYlW0KmlDbEvTlcdzm6WATdqEveSNb8snbQChIyQABIEOS1bKXwCHtNJR72nS8oPMs9TiElvoykiHPpxQgOd26MdJBaSZNB4WZSWOj3kKJQ097fxHY9IViHgumPf9Uv8Tx8ttGhGhXWmGG3y8X+fxmesDAJ6ntT9jtbsMDODZXZ72pNX7778//frVV/l+Xcx6w8OmAB++bkeX39iweBkOJRf+96aFcrY2LKkD0fDsUcj74b4wDZk1ltlHjrGSpIgL0ZqI7u0oWrWtNr0uNrWJeYH65eoiXmZmcZNKnbMasfmZs2JSiN52KS4t7L9im1HSJPksIV+nShOW3ivWUZfKOUKJUxVNcAj50KeeBmUMAgWK4iQJViHX/oDlrLOgWYgrD4e6ohzRSCt/WGEUQV5AA2BRHJai62gneX3EDeHy3Mjz2jz2ntvJLKBULliC0Q9LKQgsltOQ/7xp4g5pXq5GmZfe+LkE7Sui8vmex556BnrIxrLrDAzg2XWq9qbhJ598gkkHr03H8cApXzaqiQcY9eSsNzWwAB2NgrQb0dhAq9HlrmUDJb9AN+I0oKgsciG3ShSbJCJ8sq1TkbE/8FKIFGC7CwmiY3LTW4PORta9y8yWEcNgG7sVVREUosRdlYRqraLZhhLlIom2Dvf3uwhUIIMYEEvIWl405HMZQYSO+o0SwMGljmooxx8tE3RoA9qgQ32dxQahRkKUaVKBdAAiTDLQ8Yr9zHO6LaUiiHADCCKkeRLpF3SACy0otg2vHNiOtgIe6Dn6kSPW/EbPo48/LQACO5ZdZmAAzy4TtZfN+ILCv37wwfQa3ny9bz/AhwDES296ySgbFRoQf1iqVWFvULL5sAFZZI5CacSGTdAyj1WGMRu+rQHo3m3VptfTecGmiApRatlpG3p9utU4oiqbBqW0CuttbGi8qJZwVbMqKdWZWGNQxZWaeV4iK5ioMYgHZQldkREoUpk0QUK/ApFk5Em5AIVSMbIRALWgEyMdyvmcThkNEZTox2nTenaH93MISORxiQ369ljzHDfv87cFGB4sQAfaAkvaSQAJJ+JUmcTRXhyvAo9iuwJ96vqr9z2kh7szI6PcOQMDeHbO0XVj8Yff/35647e/nbYO4WFTgQ8/tYAJB2xAcdktGxF3So1Oe+fG52YqRWm47CqKXE5yoFESlZKoyotBa13UhZBZtOPWsrj3Ydf5pXnV936pz9J229vYtliayABduajqhB0j31VJF7JN8UxR2R1jVNOOQje+usyE6uxp1cgNFhYafKwsNNgCLjJL0LC8gE17yQ3OHOHIQrRfddMBj4AGNpxCDZp/Bic8t8N6IhF5TteSKihxgtkOJQjN+KSYP9Tpj3Ek0YgIq0ZXgceBWOkE4Ll9uveBh8eIx+nY9XoAz65TdX0YEnjef+89vO3g/LSB531yyrXf80YA0r91aDsc/XCf2Lj60g1LwtrG0ibTYCdxoVKsVGdZdZ0kmVK6NrCFoKoyTXWdvFhV013o6ZULOxosnX/qalnVoCpTDYJaq+oUlanUSqjtBRfj2ADI+uABJDTo7AOGJAMduhaIaF+ApbHTaEfxDEK8Z5MgI3sBSQ8+rIA6/+Xoh5fYeCnOIx0BEPj23BCAsC4IlSKWJlRSqstn1IaulclWct7joYntdGmO/8A5qs4BvsHg/gcfmQ7feoQ1juUCMjCA5wKSdb2Ynvj88+lPf/rT9M477023bB6ctg7g41XNt33UmPjfHH/U0rhnpF2ybVGnhY0wxI0UZOihq3q7hCSZBX0JWGwkqSEbeS9sqg2bql/dDkWVXbEqRFNFiRTKbW1mfqsbVAy2CTNPUfExUbI/k18qG2jRhAl8aCRJ2jYBJlGo8AQFmXJNgMDeEkAoixVtV0DHQgEKVnHPJgHGZYkDUOHsNvGMDT7BhtOnc0SUhyDPZZbKfSiSlx4Kasu9G1q2MurojFXeB5I/Y/r6HC24l/hEwqHp7q/ehwdHj4ofq91nYADP7nN13Vn+++uvA3zexfd98LzP1kHd8ymX3bg3akxqZSDdmFyA1q9ltmt3P5seYyhQURaWnc8qI7sirtyqf5GQkEeRxKYWvtX3sRuTiFEiFaK1IT3ft7m+ra3Rra9YRmura0LMdrPVFHpXcYq1CeHATBaoMZNWS+KDFxD+Lbx1VVhGObQIR49kApwg08/KSCeAhlrYtJfbGCeBxsBDG498dIlNgORLcqxWRy2Sk0Cj85Y6njD4o9r0/FIb5XklAHayt41iyZ3yasM6bz96dLrtzq9Mt+Fy21guLAMDeC4sX9ed9Ssvvzx9+OHH04Fbj/qyW0y3ZivUdW422biW7Z2LhgfGHTxbHTVaxTpZ2FLFpbGxYFGUhmmy4NbU0wcvPiRWqyvGslvVF6+q70WS58rRImYfOk3qvhdJEMuVr7ef+6/j12zHonkBjkVtCHujwIzGgZ19sibMg9ZvKAkSIs378lijC2ARmNBQ9tTbj6OY/MyBdKwSNp44wFEOfWCDN3doxBPP7xCYfI7ifAjCqec5zCBRguFFMv9C1o72JeaKIxy68JzubSr4GHgYeQP3TG8H6Nx7/wNkx3KBGRjAc4EJux7NX/zZz6aTJ05Ot3DGGy+74X1vvOfDhpgPxXm/0ODY+NjwohGyg7HMcvpIH2zDKV6sbNbYpLwTrTCLgr5+msQSm5IsSkkKv6pPle3W69MuI8LSLlUxoxbVO1Sw6DOLe/lZdvheRFW2lYpmf+/FhHnQ+k2ZeYEIjWEkoEh6DjqSE0xoGqDSAFD6e3TDOhAPM9doK/CJWW0EHeq4ECjy+AgkJJRUcsto4/OaIxee0+nHMsHIoWhXZUvAwysHd9x59wAeHYELXw3gufCcXZce/LbPa79+DQ8e4Mum+LqpZ7sBfDTaiYbISwlshOoRUXJPc6WGGgLRKQi71pY0FrkuE2v0nbFsiqQES7EFRVyI4pGGZReKoBBNjM6/GBSiWO7KrrhVovPrGNmsSqrrxVHulOe+ki6qQojCVGMkmRWAAYdsZAIHiRN0GlsBEVwIMiz45lBiCIGEvMBHBHQEmTrC8ciJxpThT7qcQm1/xiAw9KW4Blx8TvNMlS3MBSaLvAJ6hNSMjARUah/U+8HRBx56ZLwYlKm+iGUAz0Uk7Xp1+RyTDl7/zevTiVPnfNmtPGhar11r1lvsYN+g2Vr1C20h2HRTmF4qoy8IGQvYlXUSlq3KKeFS9YXrRJUpVCEUoMQo4kKkvpbal2TX2PXi4HphRphtfRGvEmv8Vw23kajj30ZfVL2hRzFFCSL0KEwVQsAgS4IJiXBWQWCQ0nKPeghEMkTJOOT5l6BDZd7boRo6jmQUq9qLb0DHLwNV4Ao6rKYBIKUUPEuBjJCDZxR+KG94GulSXABNxysG7R2HEfh7EJ+5fuzJ8X42pv1ilgE8F5O169znuR//eDq/74BGPvqqqZ7xYcMiADUNU/sJXg0yd9oND1ILShEEpXNZo6JyxmbgKK0tNiIKZ9/Kdj5kiqoQYRKaIi5E6l3Otq4JWO0WXdkzrVnWa9Y4XFaxO+guJPv0uSD5ogsL8ZWmpzgCCZYCKGYso0WAjMiWB23woWmObkJGcElblgIbxqKdn9vxfZ9mUkHkvfyTxLA6h0UYMHDsDTQsfQYafMJW+krzVOF5oDcUMBZ/eBCDZuQDmNH2+AAepuKilgE8F5W269/ph9//Pp7zwacVMNuNN0pv4XRrNiy2sCjZ4PjrZohiEYCst6mMw6d4Fb6RNDL6cwlfMz3Xqcxo3clrjCIuRARVYWFRFaK16bZ0vmnFcI0r9NCsUa4Rl5iXRhgMVmKw714StrJi01hKFrwKAgSdLBPokJMQMv0aRGxCAS+uoYwZbfIWKBFMqOYIR3BjoFEQ8vjJ0Q+BJ+7z8IWgqgjrPD+VU563lPHcNVFLnc/Vfj66oYfPe9soFP4Jw+nOgKrHMtMMf/jIkenRx54kOZaLyMAAnotI2o3i8sJPfzqdO7+J13349TplqrUaKlqdfnMmDxtn7nnQapSUWaHGW9iQFZ4El0ZeWWlSt15cNiDsG4+iKkTUBNMqKn4pLKpCNCbFtVE2ZGu5Roxq1mrkvr22rSFp9NY7LOzQ1y+NMkgXS3LIijjAIYL3oIPaBB62TyDK0ljCQIhBu/IX92mCrzFow6nTjOfRDnm9v42vyImNyvMtS+4zaaecICEBAASUfqkLmnYW2occHRq5/WxXdQo6Pfut/0ZiLBeZgQE8F5m4G8GN/1G+/ItXppNfnK3gw9luWDzzB42ObzqQgG2XjZOt0wI3Rsj58CCZfEsz+NSVjivcGIORsvMQybiKGSrRRVJ1lBdxIZZEiuBVE7vzb0wQoUaDvGMySm9fuB1ti+VVJgpidPWij2+Whgky4CUOj4Vah6MLSggODIWVfsHnqCZ4VQSjBKAEHPvKGT4aD0FEgKEj7XMUxJg52iEQxew2BM7zUOmPc9IFjiWEOqIgUp+AZLn9SfdApMDyVQyvIlatcwOjoWe++W3t3lhdXAYG8Fxc3m4YL/4X+fMXX5pO4RU7+qzCxn6BjRsqZ7tF4+QesyGqaGRu2qFKvcxoGb+Wh6mUbPRlaUg6dCyNst506AwqU6hC9A6duGPSblb7Wptqrx0kuyvb1u9y0+7Iu6gh6jUN15FzY3T6DGZ0UViTCSRSEkMMGCBSn0BkMLGdwYe2HuUUEBLQKEjoIn4AkcEmRjsY9bASgYW2iKeGE6910ihJ6kxiSZ4HqJHLb9HGfvPp1XZn3Fumxx5/Yjp4+LbYglFcTAYG8FxM1m5Anx9873u458MvmsbrdfSVRQOP5vxEA9auqwFDgCUbvpqrRGrNbKfU6teUJVaoG5BFGJrWutGlNFyTZemOpJdY3shW/C4gdhNmdRvLbrVWQdd9nitXNmdusCs+AGLJNlTLFo20IzsGUc1rHSsXlrPjN9UDDf06cEnfKP1WAm607croRiIYCYAIShEHoxtdWhMAcaTDEQ8fGO2zmLzFPr6S6TD4WOjxUV0xTh52dGhteE7zBzKuXPgyszjaQr6F97M9+fVvcqvHcgkZGMBzCcm70Vx/9MMf6iHTjQ1+UA7f9IkJB9xPNjrPemN7VSuMMnnbOCfU65dCidyUGcgWJApJ0YyZsenUGS7bWFp0hWhCzOumasFuFmnRZo1rVIYIC3FDqWJZ7a69tZvT6Kd3WGYGK2wjCBJdvmOqCK6riKAAk5DJIm3TTkARYcrohpfRKAv/BBcIE6yk42U1+kjOS2zk87kdgs9stMOQARLlPFPKuYrzC2V7j4fHg5oWeHSKyp7yjNnbpN+R245Mjzz2FGseyyVkYADPJSTvRnT92b/8y3T2HL42iZlunHTABroPX1fMSw/17dZ942Z7jVbrwi2Vayr0y86FjT6YprBVmqqsni1rOgwbrzU2rCKsVozTpVE0ZFPRfEvKdrc2pNe4z82WDdUxhykDtfxqhG0kM8dgq7RStQ5BiGNKXQGiVEQwIIMyl/aymWWw4ZsFaFnikICEIvkGCEWcOvIB4MiXJW3o4ynU+UJQgUVWjjJ5gUUeaQII8qfjHuW2IEPL8KHjOj8oNPvz8JHbpke+9nizFYO8mAwM4LmYrN3APnwf1ksvvTSdPoOGD/DZxOjnlg02Tn/XR01aDVWtGpmIhsucsMVroSxI6VOsZp0MXbW46JhVOSXFBETQMmQdJup6JliwmMUgu+JU4wU1s4AUklWhrNeIV2JemEA9+qpLI65kpeTQsWa0rqvEC5iHMQEgaxMNrrUPOgGEpvIQcBA87J0gBUG4p47xTNPGcXxZzcDDt1Dzmzs1z8prnGBJu2TtsJQpV3FEUa6MeqSToWK34OSqGKfqKTuMh0YfAujs3zrAisZyCRkYwHMJybtRXXlt/S9//vP05pt/xJutD06bHPnwWyT8w4we/4fYNuy8FxR9MBssFjVcE2y3lOSv6SqqfMhc2It0WWaiNi6Dd+qOYYSZ3qISumcb54ZM4wVRqEIzM5ixGWZN6c56jVId/3qLBU0RmejZwhVAKPU2IEFZ8QZhQAnfzi5BJKyho2cCkECGwTiqYUT9YhUz1gw8HOkQhHCZTc/t4Mg1CTRtQdLisOIRngOGzleeGaFXCUedDQs+JSaJxueuO++c7rrn3ungocPcg7FcQgYG8FxC8m5017/86T+n1//9DX/RlM/6CHxw2U0Nkv9Fxs1XllhSjrZKxjxpNnEJQx6yLKxKA5mnas5IXlfqOiqbVIQq2iZ0NWmEDZl6llUcVBUUswVR0a0QJQmpYafsZSmO+uw02LascYrZikjdvNVFZ0LrupJNCxQUWM21qBmQWCZQAdmBEuzLxAICVOxUsZGMIIM/gI1jBOgQjDjaafKmPLV80C58xH0e6qzTQSQvDZxLGbL04wmqB0bLuQpLKsNnc3NjOnbvA9Ndd9+j/IzVpWVgAM+l5e+G9z5z5sz0k+d/Mu3bPDBt7Af46H6P7/kYeDjaQRqwQtNtaKYmGq4NlCuRKZeksbNFkdKMi4tgqkA6ahtNGofORWfRGa94r/HPcI1zQy5oU3QFy+jsWUNDthU2UGNxY1d0klVFAkNxgEq2YVfNqYgoCSbcEIkBIFjy8hpjKm7YpU76tNdlNoNPgtCX+NhbPhqmgFh1IKRjEEc3aZSS6HwM+yKzrrwCKmx87sKLMWYynlyMt38LXxt94KHpttvvzE0Z5SVkYADPJSTvZnHlF01ffPHnmFW9X+CzsQ8z3mL0w1KNU6Metlyw1Ilwp3C+6QTYAdXOIxq7vOho+2TV5BFIz6dSzajoqGjHLq/GoUfUTZKLWdOx7qJTr1hpQm0jWPCnZS+OINie1jXtmmhZyQWUc2/wrWjGMjDVuS62EtpROaOFDWUte/ABISGzUSvTcWvtCCZprYDgKZPQtKJSQHnWxlENl7yfw5p1WY2jHY989KG3kDG17ZLHXOJYuYijC4Y24kjzh0GCznJFNvORXVTOGLfdfjsmFTzRbsqgLyEDA3guIXk3k+upL76Ynvvxc5hivRX3ffBNH77jjX9o1CAKEPg+ELPD1q4uwGU0ZGmyUTcy22tNEywM7CIo8ykPXS1Yn02i1mRcYm11H03K4ldMi3XGbDWkF6LMTGBBI3a+mYeZBZQrEgkWxL2o50qQIi5EDSdRL6dSo5G0CnWxIhjIqKy0P4KSUCTYyEIML6+RS5BJIMq6gicgJehMvKxGuZ/fmfjcDuK3p4fyXc4bxs9zK2gbyEcapR8UfYLOckWm4zOzk4zbsG86dOut02NPPM2KxnIZMjCA5zIk8WYK8f3vfhcd0b5p/8FbMd0aIyCBD+/x4EIbL5ILgHzJTY1bLT07iOgEZO1GTr/oSyKNLQ8bLn2xJEiTqgu/qJlcidOTEbwXkluO2Stkt0ZUdJePKHBQQy6ICGadWEwnkX8FnAhHILCGIVIoADBDYEgFSpGUUZs6gg4FEspN925EQQogo0qvDiU6xSiHQXJCQb4ax+dPOKJIXkcsVj534igXWfIu5yCj8ThBJQOhpI2sSfPIFxm/vbM5fX28IqceiMtADeC5DEm8mUKw4/nnf/onvOEAD5nii6YCHz5oqktvfKNvjHzUsNm40YKjIbPUtFYmzK0eEjdy6kJU7OnpJW0UqcpIVaMgG8E6fWNishHMfBbYWun2bnS9TEvtxEvAmSgho+hJyGZmSHEBj7SGjX/tVFwqqMgSflaFQfAVWGzv+GHJumjHMioh6OiZHY1qqM9LbCz5WhyW5RRR1Up1njNmLA86RTyf5kDTgwrcEMcyhoAnfn1emmYM/dIOFnyQ+tkBPEzWZVsG8Fy2VN48gU6ePDm9+m//Nh0//jme8cGlN4AQP6uwgReMcvIBVmiwbLxYC4hIYlTEvkfi0GXK1KFYaaCyotKMk8arOklC76Ixbkja9WxwKKq8Uo3Qla74NxEbt0Za/C6MYC4WlgVxQkGxls2qofr9gI1iS4KgIEH4tEWCRTgUwOKoBUvGLHJEIm23sGF0PRiaDtQTWFDqehzouNxG0DHN+3eqQiuRIVhLW6FDpvMGvM9BlPAtNC34mzLUwNA+1/I8qzYEpDu/cs90/4MP1w0a1CVnYADPJafw5gzAyyIf/vWv06u/fJX/Ek6bW4f0n+EmwMf3fdh46zRrNXS2cHYBLFSKYKtnX6DSmkqbhzZMyXvJOJVPmxI/VUVRBCmBYBY42F7acA3JaDO2VrCG4raxY/Y2wig6+jQn28as6kqlbe+7qq+AUDwSLWau9gUU2LCEIkgkgzJJEBb3eoNOGBFYii+rDT5GNwyWgAMCl9l4T8cgVHITm21QMJPHlpzyBIFL8qD0y1UjF93qqKa+ysBWn5RDePDAgfFuNqf+sq4H8FzWdN58wU6cODH9C77r8yWmnm0ewKU3vN16n0Y+uOTGy28EHzZy9QVxGY5Nng1dpRu/aImkYNOXHwvbmapr+9k6pcFZlUKUtT4Jq1ln0zCF9HYWFsSqc0hao8tAswPPyNmZL4UtaCBl7et7uUHDsqKpxvalkZRhITbo0MmFc5wTSOBZASbBRbAim9yoL+kIYJFGNCcRWOYRkCcVoEOquw3rFnQYK3llJlblXJKBbVZAhbnUb5Rw6m1Sr0qUeZ6/jz32+HT4tjsYeSyXMQMDeC5jMm/WUMePH59++vxz6BQ48jmMez8EH0y5RuMmCPlyWwIQQQCNnEs0/p63XOroLEiz10i35CWNUK1MvYY8LK3rpnNpjLoQKa9O0WG1gpZuvB2+VV4EjY63XWasVb1QXF213o05QKHTgGsE0rYxpK4GmhRAfwJDLAk4RUc1L5tVgwAlAhJAhwr4+91rJP1RtzqpgG+fTmelXedISqQKA9M6K9LQR47nlI6DVpDF+WZW8ewrjXx7m/Sbpi2Mdp54+hu6hJzbMMrLk4EBPJcnjzd9lLN40PT13/xmeufddzHh4ADu+xww+Gj0w8tvHu0IZNi2Z5fhoveAXN1CKdWLILuWs+eKjkS9WF7Ka9Nvf/ZCQTXKmaS1yXob65UI6Y7NCPPOes5om/UffDq2FqV7boWmt1XNlB3bMU2sBB3oZyYJHo2xSMurvd3I1wC0SbsShzJGKDrScU9H4EOtZ7B5yjRj+N6OYjepynOB4bgkL5NYJU3w8C9LcYWXn9TVxsev5SvNOPynifcun3xmAI+zf3nXA3gubz5v+mh/+P3vpt//7ve677OBb/tsYso17/lslMtuBCD2DR4BMWHsGDwqEuccqh9wZ8AeBJQ6kliZl0waBpHMdiGjX5KK2jBBNhJZKD6Ei/KwKMWiXdEuEorLVe2/F+1SmJCRfCnduxd2hUgA6BRw0u+s8iYW3LCkHqV+uUoZSdIEDNtmSUEBIFqI50gn7VFSlvdzEpC+PGubWdITaFiLj6MNnMOgzfh4geZZkH5dGToa2kZRHVfnjhTS0ebI4cPTsfsfmo7cdpSGY7nMGRjAc5kTOsJN07vv/Nf02//4j+nUqdPTBi+98XkfXnoD+HDCATsRv+2aBHgmrTT+BAvq+OsyKKfXvZD9wtcKuTBYEoWGBFVw3S7Vbq5prbxtnWRbZrWebc0bpXpydMIQtRsUYisa84ZU314Ao1EYOWaaWo+AbU38BBg726gCi0Em6y1yCwxABBnVD1/SAhpOIiDPUZBfBsqRj+po9llke5w7mvunM0N5mp8jyj8CpHypXLFBfFePErMybzt6+/Two4/7nG3TOejLkoEBPJcljSPIPAPHj382/fKVVzDl+rie9+GlN15u872fuOym+z9s8Phhx6LOxbT7GfUepQMpnQ0rs4E7i6BzG9SBzGRyobWU1bLUY4NenWazcrfAsrwdpZd3VLLtNs3UFWxoZKXWnV3H1K1Vx59sYxOkQaHXFwCJurJg3alz6SDl+zsljAHGfumDMqZMI4gApwUdxpsfrjbH7TFyTlkZzxoWWYYEQknaMm3oEfLtgIcPQn/lnmPTfQ+MKdRM8ZVYBvBciayOmCUDL/38xenjjz4E6OzHNfODeNmoX7XDZ350eS0uwWVH4w4hR0HsV9BTsCtx70OBYhdeWq4sl1Iy9TDJRsk4M1FqimK9zdwzO7i5fIlfU+2SaSNrwALSwq0SjQ/sOKJYWSBbkFdR1VdvAkbl1oIPg0SgrJuX07wYfAg8fIWO9BjheEIBeMiVmyZB5i1YpRm119lGZ4lUeVxKiWNbaG0UOB5v/UYpG8fewJuo777nq9NX73tA1mN1+TMwgOfy53REnGXglV+8PH36yd+nL06d8aQDTD7ge9444433fnS5rXQO7hSyY4juJDoKdjHUo+CbQz23oOlUqIiF8WSYApeQqsPppT1XbaKuXr3IqeaF+haNIcwtbbt12lZ5o2nIGm9BmJ1/NTJV0QW8/SxqYkDQcLajTMKqMbAYTBRcNtbbNHS4jFaASja+18OJBAk6vtx2KaMdnQ2RNB010T7uPZ/HNI9T5UFRyPMlsn/g0KHp6a//g3ZvrK5MBgbwXJm8jqizDLz91lt44PSD6aOPPkIj3/Toh6OeeNebXrXDNx5othvL+udOAQGjY8+OhVVYFN01iuw8VH12JpLLmgaKrV423GS7sJI66kz1Epilri1LaBLskYsg+DRu5ZTVPj4tolxV5OiiN4TdqqlMBC3S9QY1TutrmwSeCjgM1QOPJDS0MbWi5RP3cqjT7DWVHPl4JpuOV5ODNr8S15VTmOcAK4Uu/bOUZEGe+rZUXbJlLGrMPPrYk9PR28ezO0zxlVoG8FypzI64KxlgR8SHTT/77FPo9uGZH156iw/MAXB8+Q3Nn+DDSQfsDOKPHQMXd0yUi5Os7YDU8VhKEov9OirkLqx33HSspTqjzrnVgY7tqtJVqm7Bqm69xB3/kr4CRaONTr+RFLK3r3FX5FVVwINB0s4lAURSxxeQUIA//XIVwETQkdCX2HyfJycXsOzT1x4PBm+PsXWSNoc1jg4MUy8KzI6lfGQoW9bFc2ATz6B9/R++zYrGcgUzMIDnCiZ3hF7OwA++973pzJnTUN6CGW982Wg88xOjnzr1Gt0HOwgBEbuS2lGwV2JnwRhamwlWlpJbHTaWFJtk5a8VY9q216UMPWXYtXqL0iY1YSt2rkubLHG5CSQ9WssSYZVIR5dGgk6WYCFhBicMKFYJ2PhAxt8SyzaVt04PgrZeuncDAfzs4fs2rigBCM/txAhH/jEKyuOZ4drjSVl7LJSXWHX0TOaYcfyhI1XiBM8k67wSkTZ4YBTP7TwzXgaah+OKlgN4rmh6R/DtMvC9//+fdb3/Fn5Yjl845ZTruPzGS2+iGaAZ/YhlD4U/dygsJQ2e9sGz4BJ8IQshBTkthWNsShy40VHq7rUKi5d9qLCzOmPZ5aqahlETK21YduKOaa1W4xdX+Ky4bQM6Ao25z9wevF72STvQuSUEKv6xbt7XKbHoTzmByKMc6mXDGW74KYAgb6a7JsgpNF+kobeOTj72OlphRLrEgazwohsfxbJQNrjMy2fOxluo42Bc4WIAzxVO8Ai/PgOnTp3SpbezZ89M587hKz+beMM1Jx7EMz+8/8Oug9Nb2ZloFtxKh+EZBu5g0O/RQ0DFet0bRX8FNmbLUcVFattYkB6tThGhYA2me4/0pE/VVKrRd2TGDSHZsnRMkYqITr4VyjrlWXGEEEQEzc2zGW/8F8ZhuW9h59lnFFOAvRZgJE9xAI+CBcBE/QIb2TNeAg5tEnQgww+zyd92KYABoVNpA61jtUorkmIFBV9Y+ZeReh46xnBd1HEL8NzObUemB/HcztbWAQrGcoUzMIDnCid4hN8+A3zOh183/cXL/wrw+VKgU8BHU67ZOfCeDwGIn11gj5KdCTuRSrOm7LyyZKeSizskesSiUOSKRIqOW8NIHKvOJGNnWZRJlN5dtVZuvhURgP23ACADzkp2+AzdBHLHXu2MCQoUwmpsKngYtpfWVLNUlNMVK9qITFtxlgNcrA878X5ItAAPZVh0FDIl4rmyQOtYFZOW7+g4npBlzN2UqornEarleXX7nXdNDz78KOiYKgn5WK5cBgbwXLncjsgXkIHTGP387IUXphMnT8CL9374vjd85yfu++SbrnUJTlOw0Wmw91DnUWlWWToe9S6WaK0Oq/LqdWRfZXxqPSJQ6KX4pYClhVrXVYZsDSvdxon+uiojZCfvmGpqFKh8oWzfebW2LQ0f2QUQZAibZAQDji6P0QDKBKYsGcXP6MCHetrpUlqMcOQDmjLV5dj1HwM66DBybboKLGnzG3Sm0ueAHIptOf6U6He1TD/aHjp0cLrz7mPTPcfuVf1jdeUzMIDnyud41LDLDLBzevWXv5zexYtG2aHx3g8nHvh1O/3Ua79+JwAHnQcBgz/1v+a+s/Em0J6UVilSaUnIUSiWTINqXOzYrot1hG74YsYOdymIO+JitpYIuwXz6O7lyRp68JgFbMCjahy09TOwLABN50/QoS9HOvwlTRl5Ag39DTgCnQbkWuBRVso/CciSBTVbLT+jlWnISsZJI4DMuJ7xii29dfxH5ugdd0ycQj2Wq5eBATxXL9ejpl1m4Hdvvjn97eO/4ZmfD9V5GXww7RqX3jz5gJ/Y5psP1Ku4o3GPUummc1G3BFMv6JREF4E6J+qyuwrDNLdc8ULTuHa28wiuKEzcuad9DZFUr0+7LNmJL1vO/MTOZAjSjlCEDxlYpe35YGddCBrksCKASEE6YhFQpOZaQpgZbGQvkGEM3NMpox0FiXya5lr7FblapdMujo4Nik+wJaasIMxjqbB57LoSFrQD8Hz1/gemr957f1Y0yquQgQE8VyHJo4qLywBfNPpff/mzXjaqN1xz9MO3XaOz4HV5/WcLWqMd9zBFxp6JnY/FotjLxIbgfpF6HbIhK0XazLZ5rhcf8dn3rnFTDaxLvfQsZsfuaADrsFk0XRVWsGFFjS+3Faz11a/aN6BDUyIQwUdIRJq/rYwjnFZPOl8ASoCynlvBhUcj86W0leMCsQVhJ+Nc2QUG1STy38TM2LWkkpzrLGWJc8v0j//9f8JoLFczAwN4rma2R10XnIH3cNnt319/ffoCExDYW+lN13j2J+/98JKbRz4cBaFbARCpoxHNLooydVVhx01g9wMZ7+eg/5QEpH2ttXS2dhjbF1WNX0RLBOMXeVJReZEvEQs2IVLnD5eMRu8KHquxfLmrldfY6VfLGP0IbCJNpAkwqijApr3MJn1eWjP4zC+x0TWPh2gLuPZ+xLGa89pHrHTcQik6ZZEEyhxCCtuHTcpVYrWBf16e+vo3pgMHDzHiWK5iBgbwXMVkj6ouPgPPP/fcdPyzzxSAl9s2NnDpLUc/nP0mAErwQU+DTkWTp9HB1A4neyeXWlupuNmRqXuTX9i3m92IGhIWwaEw1WvbEKSbaueqGc/OfiYSm7ADptN3jB0FFiHv1JWpl9ksSwAi0HBJ3kBCGYEl/HWJrY56uGV6SSjrjUtuCoJVzbElHQgpZU32FvjqL0rJTllIKrDBnzLlmseTVUbJeg8fvnV6cryTzQfiKq8H8FzlhI/qLj4Dz/3o/2DC1HmMfk4iCC6XAXg2NvyhufbZnxz5eMIBR0A0VxdUOh5tRZHVbVL3pB4qZe643EE2imUynKxE+I5PrpbsuNNo+R5OaukTEFDcqZMsAaBoTBgYAhxanZ0qcDCOYkQNoaeLJgqkrwCGSgKKtKEHQ5Dh1uQlNj44SiMBTwbg3mKrY6dU1CQZIEJpHf3k4QA6XhIVaQEuhdXKOpP2Zx0zPWeyPfXst1AnFGO56hkYwHPVUz4qvJQMnDt7dnrhpz/RfZ8z+Ny233LNNx/g1Tu878MJCBj91HtA7HHichy7JPYz5HMjSmdWJNKsdkjhqxjsdRXIRcSaRYDUdpfatzFuGV1EXbVgHc0iAGh4kWGThVCj9TOddSQI2Sx1eZ9mO9ChLi+1Vft2a9q8Kl+RnJamvcXOqHWS+rhBkABWYGkuE+9AtMl4LHl+HMJo5/Gnvi6akcdydTMwgOfq5nvUdhkycPLEielTvGj0337xCkZA/O6LHy7le9/0vZ/y5gNeeot7Pup8TPNNCEKM7KzIqWfK3sobmZ2buUZGkiG0sFMjkx25Fe7owqQUiuiRAWQlRNHvhsh6wrawGm8sByAYUFNXxY4gk4Ajgxa4AqAqAKWtAQaOiiP/5i0Ffk1OAE+zk/N8bg9CDO18OVGVDkoJzJhrZaif9bR2fEvBsXsfmG4bb6Au58HVJgbwXO2Mj/ouWwbO4kWj//LCT6fPPz9ZOk++dmdzA6/d0f0fdDcc/fAeEH8CDfoJCACjWKimLicZUJwdVtpkKXllgmIdK0IJJC66tOnLVLM7Jx3duujeMjgbFCDrbBJsICyxZB9O9CLIdDIYU5aBpCeHP9EAE3J04p/kvqRm8EoaJaZQ11zIDXzuobepNbCqyapMg+/oVlaPj6Sws2nauHS9oKH0WwrunB752hPeqLG+JhkYwHNN0j4qvZwZ4Hd+fv7ii+hYEkT4ent8ahsjn/ZLpxr9EIjUy7Ejwl/7poIi99ZJLyBid5a9Wr/l6ugWdG0n23rYPiSqr9WSZofOJSMnOFjqddq0MtIEhLTwPaPOkupyz6VqhCHybUCH0eIrop5Q4Pgt6KTcMbmd/ONIxwA03702J9blPiK2SANFR7PaRldipAxleMlOdMqilI/oSZfYnn72m4w6lmuYgQE81zD5o+rLm4HXfv2r6d133pnOnuXLKfHeN771GpMPdPmNs9w48kGPpxlwnPNGOnhuSem03CtKIjk7rQC1djREXS4wiSV6OHCWVT4t2rL6tdJ1dAWLuYU7f0vbmPTw2wXmvi2gQUfQoK1RSHx5Wahk9jewGGRgZL8AGvLU54SEkkbEzdx6C5nPupWigjdNK3lEEisdlOQZM8v0cihII5jqAk27u+65Z3r4kcdyM0Z5jTIwgOcaJX5Ue2Uy8OYbv9UzPx+8//50+rS/+aMJCJx8gBEQn/9JAAJTnv0pI5/sEFGqQ4vNzE6sbDUEGl/l/aK0KwYzQvHUVde46hjdodu6rZF9eujUadICRAMClBAu6FWjVMrCBAla16UFqlIPYss76wAjCXnqACqSFD2tHV+AQ73sYoae9s91as9a3gmVMnNb1KETj1XJStJZ0jvyytRkHSslbDjK3cRl2G/843e8QWN9TTMwgOeapn9UfiUywI70k0/+Pv3q1Vfx7M9xVcH/ejn62cCLRzUSwiU3P4TKTgkQEpfU0H81nRm6MPixS9OSnZu5RkxFdI+yL+Zp2ZclXBC9dhuOHT19WHLJMuIIEFq5jLRiTgww6UOMqDQBo3iKDnv5GVAcLQAI5i0QiaZtPFDapEFuFzrCoZNjZF4l8ZHA7q6Ai2tReqgrvkwNju2hgwenBx/52nTktqOyHKtrm4EBPNc2/6P2K5yB7/7zP+ljc+5kATK8x4PRzyb+8u0HvhTjJ9l5Ka10kui9EniyI+PmFn1uuzpCaVJSbezoDrNoQQgr1H02Unb+UoSsAYbGqieJACkpRAoCTxJ0KK42c+CRJt7XRgihbV42c6CIw8tp1AdY+eHTOtphLbHbJLW0OfOuez9XaZpHXqzMVFkKWcla0k0pbx43eoV8a2v/9LUnnp4O33pE2zJW1z4DA3iu/TEYW3CFM8D/xr//3e+inzyvb/6wQ9Xoh9Ov+dwPXzga93/YY/InnwVi56WuTj0pNIXPjZZAnZwtq7x0tnaSIqzTqJZNGPbnjUu1AcV9iE0AR8oAQJiYxzawECygLIuZFnQKrUtljBgOcPSoBs4KAl7ARDltrE+aNrQv+x11envr1mUOqV5Lh9K+Ysp+J6jYRBwj5W/UH8cKFRzY2sIzO8/i1TgH6TKWPZCBATx74CCMTbg6GXjvvXen1371K0w+OKtREDtIXXbD1GuWuv+DERF7Q+rcgbJDi9FQzoCTTnd4qIqlEKUDtCLkt/heTKusHkmxM08647IMIFirtT49hQnhU0BF4WocAkjlWAU5AgcNQxNAIl405GW0YzsCjepo5DUntOEeYcty48iHgUR1Fbm0oU3kGb5JZ1njhkR2Om5RHyPxi6J8+/Td93yVmzKWPZKBATx75ECMzbg6GXj/vfem03j+53dvvIG3H5wKAMLlt7gEt28fXsHDURBAJoHHM9l4L4jbaHm5JKdLc7nt1FW6UEWWEpartq4vOv3WlDQRoQQnAIRBxk6+KGqAHJF0IGSEqdbBsx7+EGC40EejHuldr0dBlLNS60XLp90vhYg8Js3SG631AghZrgwVp04WzFyGmhWaJcPyGG3iMttTz3xjfNLamdwz6wE8e+ZQjA25mhk4ceLz6T/ffnt6+623BD7q5tBb8d1veviUbz8gqHASAuQCBZZlGja3tnZ0Ipv7QwaR3CN1keoMU2JvzkYzYlR72lqWtvYOjj0q9b3Jio8BAWuBA31XHKis0gSRuMdjf9ZDG5eKQV5/BCbTdRTEOtzps0Yu2nZtc/AdXSyKne0tT5pZ14JC9Loywul4geb7+7757e/onwoHGOu9koEBPHvlSIztuCYZ+MXL/zpxFNQuvOym7/7o8htHQ7gHVACIPDtCdrDRIYpmBPWI6hylAhBJWuxsI690lUXIV2RWplggAqZ0xBU2ShQSwpAEhV7TcQIVGwtMElgcgyBCwIlLcrID0Kzc4wmbiKNtzQ1GhAQKxrTOyhVaBrFnVgZQtzLEcGIjVvK1HrqmzeZ+As//YOSx7LEMDODZYwdkbM61ycBzP/4xOt9z08kT9fU7ZeZbPv/DZ4DiHlC+AVtdXtdR5vajw1QviBETRWAqUKUNvZslAKrIgjcAhF0oXXBNgPCSgLMqSwuWOUqpfpZZF6jVABHv4VTd0mU2GuTIqmwyXbC0+2xdbLmKuheJJFXs/AXsKFGiYZBlxi9RQsd/DLYOHJye/ea3tQ1jtfcyMIBn7x2TsUXXKAOnTn0x/eyFFya+9Zp/XHifQCMegA9HQe0MOHaq/mtHNpTlDpDApIJm5MM+XK/sqUYN+KjnhEuAAuP3ocwpbAKH60gzAkATuoBGAkPalTokQCz9csW4CTYgOeKhTHICzOzeT/n8gSO3dXcAQXWjNOm9S1pcrFzE/oMpmYBx2mX8rkQ1t99+dHoMs9ha0PPWjfVeycAAnr1yJMZ27IkMfP758ek0Jh289utf4+Wjn6vTdafNGXAY8eDpd05AcBmv4GHPqQ6R94OwG9k5srtUL5m7ljzLUKRt8jmCYf/PsO5mHUB8xqplbp9DEBxS19MpLWUY2t/gUmgZwR/fPyIQebMMPGmjEjESjLRHsVt0L/tI2gKuF2hL0ybjaN+DmcsyL9rnzCEi85mdu+4+Nt33wENd/ap4rPZMBgbw7JlDMTZkL2XgDGa+ffbpp9PL//qvmn7dbltOwdb0a04oACDpZaS8DIfOL+8B0Sc73yxrHIKPLJpSguiZbWlJyG0eo48aKSnWYVCgpAUd82mX5fzh0OpjEDJP4CHvGHwzAcHI9RCQkua+ZmTuApiWb5QSg3dJHxvapMozRkhklnnsdHBnBI4s7z52bHpovIutHog9Sg3g2aMHZmzW3sjA2bNfTq/84uXp448+xOw3fvsnF86A46QDPv8T4AMAwlQqAA9HPuga9bfuMpzjuCOlLXn7uJd3Zxw9flSadrbtdWGCooJPyoQayVhfhkWhI4A0AENA4ZKjGdUlkIlLb7Smjb7Dw06/hBeRAJHSli/7SmXut2jsXyuLmJKCrmUYURYVU8fJBHcfu3e6H6OdseztDAzg2dvHZ2zdHsnAb9/4w/TJ3z6YTmDywQlcjsuFHZ9nvfFN2J6CrV4Yct0f0hsRWiBib0pdRnCZHSi5pLPsLWWx4r8KNulVgYWS4IgoYdDqCSaNVQCNDEnrklsAjoCHIx7fD2r3JwEiKggw8Q5rHcZLtGUtyNiPQTJuLVED86yKbpmO3Xf/9OBDj2S1o9zDGRjAs4cPzti0vZeBP//lnelPb/0eAHQi3n7tbSTI6NIbwQejHoEGZegYPRMOkxTAY6XJBQaV6DJRsMN3f5wydKjRQbPL9RIgAaa1DSUK6tOW0gQJ0vMFtgoXMYU4CTx5T4fbBZoLAYYOAiPaUU4+9DLyKoEhRXU/6nZrK2OVdEIId66TgUld2e+UsYRwPyZ+fPO/janTmfO9Xg7g2etHaGzfnsuA33hwbnr+Rz+eznWX39wJ+tU7eAOCLsFxVhwByPd/PAqqIyB2qVzazjl3mLLS0a7YBGAUf3utH/lk1KYk2ARw2C9jBmAFGAkV4ZY2BJ2kJ04+wOuA2qXdF+2ddyLAJPaXDp2cmSCKRBl6+890DiF7fs7i4IEDeAnoM/jI2+F2Mwa9hzMwgGcPH5yxaXs/Az/60fPTieN/XwQOzYLj6Kc8iArw0SgogKe7F8TeNIGG++3eNTvxLOcZib47xNEjeygzN628AIdgoTGMSrsEgHBUQ8EC8ORIR2Xqa2RR7bZqixJgzIQNixjHhNxmVZZAVCxhlzK5gNuPWWxPPv2sviyqwGN1XWRgAM91cZjGRu7lDPCrp7/9j//Au9++0Ot35qMOdsSaCZeX4QA4BiB0o3E5Tp017Fi2Hbe62q5jhkSjpz4j7LTbevsYsC1g0vo1I5UWRIIuo5qG70Y7rU+ETWDIWnI7YhcgDsjIfaJh0lmGLGOpXJDtx2SC+3FPZ7wAlMm5vpYBPNfX8Rpbu4cz8O+vv44HT09PH3344XTy5BfY0qZjB+fLbJz15jdhG2R8GU4ddI6A+H+9XstDH/TGCJO8dx96ddJ9MrKTTylNtAUEiHQQWKRFs30JIqFfBZ16ea3q4l5Qsy3tNkgc9e5EW4/NDGBiIbopudUZnw/hckT55DPPTrceuS13aJTXSQYG8FwnB2ps5vWTgffx+YW3/vjH6bPPPsUo6Ezp83MPNMoByGwQgJpZb3kZTs8BoWN1xxtdcXbgWTIYbYLP2PNSHfpcWHgATwGanCRAGQ2say+5EXAEOrovZHpefbs91nkLOprhIZAmVi5mMghDQiLsZTltIm/PfOMfp4OHDjHaWK6zDAzguc4O2Njc6yMD5/DNH3bCP/7R/9HnFzxKWN12TTzg63gIQryExg6Zl98ATPyPXjzdSkftjlei7eTUcUk/c806gCVHOkVjeb00RxQiyNCAox6OcgKAIEH4sohsBGtBiB65XXYSqBR7yAQ4WcqeMhNbB7amf/jH8dZppeM6XQ3guU4P3Njs6ycDJ/DqnecAQOxs1wEQwYafZOAltQQelQFCpqPrzc69dN5lXKA6mBlbNjmSbY5YhCKNMvgGhLydcSlNwBMApA/Igdaoh9tawyRYUCJxo0xQsdwWczpt6Jyxyp5Jxg+7AXTwxmlNUa9VD+o6y8AAnuvsgI3NvX4z8OYbv50+/vhjvAXhI+3EEgjpGSA968PZcPEH8MlngAxAzoE7Z/fIKx01TRKYOELBjzp6uzbrdaBDcAmwKWXc5ykAhVqboLkNqlqrqkxQkQQr2YZNJwuXjJUlTfkJ6wcfemi66577yI7lOs7AAJ7r+OCNTb8+M/C7N9+Yjn/22fTBBx+svAcu94j3eW65BcATb0PoRkGchEDDBBaV7rEJBOfJAzNIs4sn6Kirtwlo8pBYXAGGQoEKS4AM7WQKijx1GulIyAiXBjyxfVEYjMAIbLgtDb2xuaGviD719X/QqIfqsVy/GRjAc/0eu7Hl13EGzuIe0El8BfXFn/1MU7DPnWvfA1d3LAFoX5mE4Ps/eAWCL8up81fXjY66AhIRwx166cYdVJ15jZ9Ao3s3EgeolFEOhQQebJ9UOQmB8m2Ax5XTqGxHpeUpRdk6bZc3bkWGijfxZoJv/ff/R+/HU9Cxuq4zMIDnuj58Y+NvhAycx9sPfvD975dX8ORIpd03yjgC0otJUWq0k9OvCThyaoEg6SihFxa0QcslMwo5molSNgQb//mzCKDx08fIOuRAGBKYkGv3QT5ZvxnHkbkE8kv/sqWh4j5/53/+v65krG+IDAzguSEO49iJGyED7/zXXyY+C3T69Gl0+jmyiN4XO+jOnCWBJl/Fg8txVODP07DBMxns6MOhKwU2ma0Y3YgNugGjMoNNoEQ9/xg3/cVxpSWBg4xtrCjbI4VXqbeOstVYftXQLdN3/tcAHWfoxlkP4LlxjuXYkxskA7957dfTWXwB9UM8iMovoX6JmWTtkh2/y/gMg0Y/vNSGHz58CqWBIMuCDx1wMK7hgaMbcgYYT3wA3cioFTzYIbkM4DixcS5sqLW2R+5NDG1h4x+BUXCUc/To7dPjT319XF5Tpm+s1QCeG+t4jr25gTLw9799PH3xxUl8DfW1ifeAlu4DZQfPUU3/51FRq0/E4VP/wpPIVceVEQ8+ggDaugAQI0gATE10GVFR5Ap7EAp5uNMozUgV4KEZlwP7t6ZHHn10uuvYmL3mjNx46wE8N94xHXt0g2Xg1Bd4B9y5s9NLL72kz3HHMAR7qa68dOJzHhffPAEhQEkTEtjPBzikfY5yyBtoPOqRvuBCW1cFDqa6xiMtibdsBkKh0nZX2rVmnP37OYngf+DNBJsZjKqx3GAZGMBzgx3QsTs3dgb+9PZb069+9SvM8tpsvojaggL3fxkY3NmnLW1M20NuJAU/Ku0QYBKa4lLrWI0Dnc0VzbHsmPKwYGVl2cDlwu/8r/9vXForGblxiQE8N+6xHXt2g2fgp88/N53FSIgjonPn6n2gftRRk0CAcMcfIBAoEAUMU1+oAk4Vo2Bjd9sHvRP45DZxa7r6wHB0c+zYsemRx5+ieiw3QQYG8NwEB3ns4o2bgS9OnpjeeustPZD6yd//Pp05eyamQXufBTZ8UvR8AEb0+saLKgvIESrYJCVhSdAyqcAVaKq8yhJcIoYDOnazHRt4M8Mdd9wxHb3jrum++3A/h++mG8tNkYEBPDfFYR47eaNngJ9j+OzTz6bPj38KIHobn2U4qUtxnhHXgAPHG/5FaSThuoxICDBMlmy0Mh9O1oWN/CSBf5TybWkHs8RxKTmMt0rzWzr33HNs2sDDoWO5uTIwgOfmOt5jb2/wDHAaNGe/bWzcMv0nAOh3b75ZRkEJDkyBgKCATABF8mFAeEmfwJXCM8KqbB631NSmwNUaAAAB3klEQVTZHjp4cPrGN789HTx8Kw3GchNmYADPTXjQxy7fXBn428cfTi/9/KWJX+w8deoUIQPTqT2hugALU5LAAxyijUVikgsAqaBTbOhuhutiR5qTBviZB9b1rW9+azqCS2tjubkzMIDn5j7+Y+9vsgy88ouX8abrCW9HODN9+ukn2nuOkAgaemjU6BEgEgAEmcRYr4xyEqwijwlk+zHrjjPvtg4eAOAdmJ548qnp0Bjh3GRn2/rdHcCzPjdDMzJww2aAr8N5/7334v1w5/WmhLcxSYHfu+HbEvgSU6LM+S8xMsLkBJYEHY+WpNIIhkDDP77ehs/gfAkQu+srd01Hb79T9244W20TD4SOZWSgzcAAnjYbgx4ZuIkz8AUmJOjtCBze4F7Rvo190wcEJ1yee/+D9/2cKfMTIyDaPoTv4/Brq/c+8LDAJwFoA6OdsYwMrMvAAJ51mRnykYGRgZGBkYErkoEBPFckrSPoyMDIwMjAyMC6DAzgWZeZIR8ZGBkYGRgZuCIZGMBzRdI6go4MjAyMDIwMrMvAAJ51mRnykYGRgZGBkYErkoEBPFckrSPoyMDIwMjAyMC6DAzgWZeZIR8ZGBkYGRgZuCIZGMBzRdI6go4MjAyMDIwMrMvA/wXO8dEOUngrSgAAAABJRU5ErkJggg==;" parent="1" vertex="1">
                    <mxGeometry x="60" y="130" width="281.87" height="320" as="geometry"/>
                </mxCell>
                <mxCell id="5" value="" style="shape=waypoint;sketch=0;fillStyle=solid;size=6;pointerEvents=1;points=[];fillColor=none;resizable=0;rotatable=0;perimeter=centerPerimeter;snapToPoint=1;" parent="1" vertex="1">
                    <mxGeometry x="213" y="299" width="20" height="20" as="geometry"/>
                </mxCell>
                <mxCell id="6" value="" style="endArrow=classic;html=1;strokeColor=#00FF00;strokeWidth=2;" edge="1" parent="1">
                    <mxGeometry width="50" height="50" relative="1" as="geometry">
                        <mxPoint x="223" y="309" as="sourcePoint"/>
                        <mxPoint x="223" y="259" as="targetPoint"/>
                    </mxGeometry>
                </mxCell>
                <mxCell id="7" value="" style="endArrow=classic;html=1;fillColor=#0050ef;strokeColor=#001DBC;strokeWidth=2;" edge="1" parent="1">
                    <mxGeometry width="50" height="50" relative="1" as="geometry">
                        <mxPoint x="223" y="309" as="sourcePoint"/>
                        <mxPoint x="263" y="339" as="targetPoint"/>
                    </mxGeometry>
                </mxCell>
                <mxCell id="10" value="" style="shape=waypoint;sketch=0;fillStyle=solid;size=6;pointerEvents=1;points=[];fillColor=#fa6800;resizable=0;rotatable=0;perimeter=centerPerimeter;snapToPoint=1;fontColor=#000000;strokeColor=#C73500;" vertex="1" parent="1">
                    <mxGeometry x="280" y="360" width="20" height="20" as="geometry"/>
                </mxCell>
                <mxCell id="12" value="" style="endArrow=classic;html=1;strokeColor=#FF3333;strokeWidth=2;" edge="1" parent="1">
                    <mxGeometry width="50" height="50" relative="1" as="geometry">
                        <mxPoint x="223" y="309" as="sourcePoint"/>
                        <mxPoint x="273" y="299" as="targetPoint"/>
                    </mxGeometry>
                </mxCell>
                <mxCell id="13" value="" style="shape=waypoint;sketch=0;fillStyle=solid;size=6;pointerEvents=1;points=[];fillColor=#60a917;resizable=0;rotatable=0;perimeter=centerPerimeter;snapToPoint=1;fontColor=#ffffff;strokeColor=#2D7600;" vertex="1" parent="1">
                    <mxGeometry x="284" y="296" width="20" height="20" as="geometry"/>
                </mxCell>
                <mxCell id="14" value="" style="shape=waypoint;sketch=0;fillStyle=solid;size=6;pointerEvents=1;points=[];fillColor=#b0e3e6;resizable=0;rotatable=0;perimeter=centerPerimeter;snapToPoint=1;strokeColor=#0e8088;" vertex="1" parent="1">
                    <mxGeometry x="233" y="402" width="20" height="20" as="geometry"/>
                </mxCell>
                <mxCell id="15" value="" style="shape=waypoint;sketch=0;fillStyle=solid;size=6;pointerEvents=1;points=[];fillColor=#d5e8d4;resizable=0;rotatable=0;perimeter=centerPerimeter;snapToPoint=1;gradientColor=#97d077;strokeColor=#82b366;" vertex="1" parent="1">
                    <mxGeometry x="260" y="396" width="20" height="20" as="geometry"/>
                </mxCell>
                <mxCell id="17" value="&lt;font style=&quot;font-size: 16px;&quot;&gt;x&lt;/font&gt;" style="text;html=1;align=center;verticalAlign=middle;resizable=0;points=[];autosize=1;strokeColor=none;fillColor=none;fontFamily=Courier New;" vertex="1" parent="1">
                    <mxGeometry x="258" y="268" width="28" height="31" as="geometry"/>
                </mxCell>
                <mxCell id="18" value="&lt;font style=&quot;font-size: 16px;&quot;&gt;y&lt;/font&gt;" style="text;html=1;align=center;verticalAlign=middle;resizable=0;points=[];autosize=1;strokeColor=none;fillColor=none;fontFamily=Courier New;" vertex="1" parent="1">
                    <mxGeometry x="197" y="246" width="28" height="31" as="geometry"/>
                </mxCell>
                <mxCell id="19" value="&lt;font style=&quot;font-size: 16px;&quot;&gt;z&lt;/font&gt;" style="text;html=1;align=center;verticalAlign=middle;resizable=0;points=[];autosize=1;strokeColor=none;fillColor=none;fontFamily=Courier New;" vertex="1" parent="1">
                    <mxGeometry x="233" y="328" width="28" height="31" as="geometry"/>
                </mxCell>
            </root>
        </mxGraphModel>
    </diagram>
</mxfile>